<?xml version="1.0" standalone="yes"?>

<svg version="1.1" viewBox="0.0 0.0 570.0 539.0" fill="none" stroke="none" stroke-linecap="square" stroke-miterlimit="10" xmlns="http://www.w3.org/2000/svg" xmlns:xlink="http://www.w3.org/1999/xlink"><clipPath id="p.0"><path d="m0 0l570.0 0l0 539.0l-570.0 0l0 -539.0z" clip-rule="nonzero"></path></clipPath><g clip-path="url(#p.0)"><path fill="#000000" fill-opacity="0.0" d="m0 0l570.50397 0l0 539.7979l-570.50397 0z" fill-rule="nonzero"></path><path fill="#000000" fill-opacity="0.0" d="m12.639481 216.6263l37.984253 40.063004" fill-rule="nonzero"></path><path stroke="#000000" stroke-width="2.0" stroke-linejoin="round" stroke-linecap="butt" d="m12.639481 216.6263l29.727898 31.354797" fill-rule="evenodd"></path><path fill="#000000" stroke="#000000" stroke-width="2.0" stroke-linecap="butt" d="m39.97011 250.25397l8.64196 4.313568l-3.8474236 -8.859329z" fill-rule="evenodd"></path><path fill="#000000" fill-opacity="0.0" d="m44.143417 276.50427l0 0c0 -13.167877 10.67466 -23.84253 23.842522 -23.84253l0 0c6.3234253 0 12.387871 2.5119781 16.859207 6.983307c4.4713364 4.471344 6.9833145 10.535797 6.9833145 16.859222l0 0c0 13.167847 -10.67466 23.842499 -23.842522 23.842499l0 0c-13.167862 0 -23.842522 -10.674652 -23.842522 -23.842499z" fill-rule="nonzero"></path><path stroke="#000000" stroke-width="2.0" stroke-linejoin="round" stroke-linecap="butt" d="m44.143417 276.50427l0 0c0 -13.167877 10.67466 -23.84253 23.842522 -23.84253l0 0c6.3234253 0 12.387871 2.5119781 16.859207 6.983307c4.4713364 4.471344 6.9833145 10.535797 6.9833145 16.859222l0 0c0 13.167847 -10.67466 23.842499 -23.842522 23.842499l0 0c-13.167862 0 -23.842522 -10.674652 -23.842522 -23.842499z" fill-rule="nonzero"></path><path fill="#000000" fill-opacity="0.0" d="m149.83896 228.81923l0 0c0 -13.167862 10.674652 -23.84253 23.842514 -23.84253l0 0c6.3234253 0 12.387863 2.5119781 16.859207 6.983322c4.471344 4.4713287 6.983307 10.535782 6.983307 16.859207l0 0c0 13.167862 -10.674652 23.842514 -23.842514 23.842514l0 0c-13.167862 0 -23.842514 -10.674652 -23.842514 -23.842514z" fill-rule="nonzero"></path><path stroke="#000000" stroke-width="2.0" stroke-linejoin="round" stroke-linecap="butt" d="m149.83896 228.81923l0 0c0 -13.167862 10.674652 -23.84253 23.842514 -23.84253l0 0c6.3234253 0 12.387863 2.5119781 16.859207 6.983322c4.471344 4.4713287 6.983307 10.535782 6.983307 16.859207l0 0c0 13.167862 -10.674652 23.842514 -23.842514 23.842514l0 0c-13.167862 0 -23.842514 -10.674652 -23.842514 -23.842514z" fill-rule="nonzero"></path><path fill="#000000" fill-opacity="0.0" d="m84.845146 259.64505l64.99381 -30.82582" fill-rule="nonzero"></path><path stroke="#000000" stroke-width="2.0" stroke-linejoin="round" stroke-linecap="butt" d="m84.845146 259.64505l54.151497 -25.683441" fill-rule="evenodd"></path><path fill="#000000" stroke="#000000" stroke-width="2.0" stroke-linecap="butt" d="m140.41228 236.94638l6.7849426 -6.8742065l-9.616226 0.90467834z" fill-rule="evenodd"></path><path fill="#000000" fill-opacity="0.0" d="m68.13045 230.86647l55.84252 -25.88977l15.0866165 32.535446l-55.84253 25.88977z" fill-rule="nonzero"></path><path fill="#000000" d="m91.84557 239.0424q-1.0188141 -2.1971436 -1.1830597 -3.7399292q-0.1642456 -1.5427704 0.37942505 -2.673172q0.55783844 -1.1369781 1.9045181 -1.7613373q0.9922943 -0.4600525 1.9276505 -0.4114685q0.9353485 0.048583984 1.7722626 0.5906067q0.84451294 0.5212555 1.6134033 1.4736938q0.78305817 0.9458771 1.6375504 2.7886505q1.0056686 2.168808 1.1699142 3.7115784q0.17842102 1.5362091 -0.3728485 2.6873627q-0.543663 1.1304016 -1.9045258 1.761322q-1.7861252 0.8280945 -3.384163 0.018951416q-1.9497375 -0.97332764 -3.5601273 -4.4462585zm1.5593185 -0.7229309q1.4066238 3.033493 2.5820923 3.7113342q1.1896362 0.6712494 2.2244568 0.1914978q1.048996 -0.48634338 1.2910919 -1.8213806q0.23552704 -1.3492279 -1.1645279 -4.3685455q-1.4132004 -3.0476685 -2.5886612 -3.7254944q-1.1754608 -0.6778412 -2.2386322 -0.18492126q-1.048996 0.48632812 -1.2444534 1.661972q-0.27456665 1.4878693 1.1386337 4.5355377zm8.802277 -1.1875153l-0.70988464 -1.5309296l4.649597 -2.155655l0.70988464 1.5309296l-4.649597 2.155655zm6.427681 -1.9466553l1.3801804 -0.81211853q0.6641159 0.9493561 1.4055252 1.1739655q0.73483276 0.21044922 1.5570145 -0.17073059q0.69460297 -0.32203674 1.074501 -0.87705994q0.3733139 -0.5691986 0.46375275 -1.2655945q0.09044647 -0.6963806 -0.10341644 -1.7087555q-0.19386292 -1.0123596 -0.62768555 -1.9479218q-0.04601288 -0.099227905 -0.15878296 -0.3052826q-0.118392944 0.9332428 -0.70188904 1.7548828q-0.5693283 0.81507874 -1.4907379 1.2422638q-1.5309677 0.7097931 -3.1068344 0.09703064q-1.5824356 -0.62693787 -2.4237823 -2.4413605q-0.8742142 -1.8852997 -0.2943573 -3.5319366q0.5874634 -1.6673889 2.2460098 -2.436325q1.2049255 -0.55862427 2.4995804 -0.36662292q1.3022537 0.17126465 2.3712769 1.1395569q1.0832062 0.96173096 2.1348877 3.2297668q1.0976944 2.3672485 1.2239227 4.0137634q0.14040375 1.6399384 -0.5384445 2.8502502q-0.67124176 1.1895447 -2.0321045 1.8204651q-1.4459076 0.6703644 -2.7419891 0.28956604q-1.2818985 -0.38737488 -2.1366272 -1.7478027zm3.6707077 -8.315292q-0.60472107 -1.3041229 -1.6542664 -1.7475433q-1.0561218 -0.45761108 -2.034233 -0.004135132q-1.0064697 0.46662903 -1.3699722 1.6512909q-0.3700714 1.1704712 0.23464203 2.474594q0.55213165 1.1907196 1.6027145 1.5992279q1.0581741 0.38775635 2.0929947 -0.0920105q1.0631714 -0.49290466 1.3942032 -1.5247345q0.33863068 -1.0525665 -0.26608276 -2.3566895z" fill-rule="nonzero"></path><path fill="#000000" fill-opacity="0.0" d="m149.83896 324.1893l0 0c0 -13.167847 10.674652 -23.84253 23.842514 -23.84253l0 0c6.3234253 0 12.387863 2.5119934 16.859207 6.9833374c4.471344 4.4713135 6.983307 10.535767 6.983307 16.859192l0 0c0 13.167877 -10.674652 23.84253 -23.842514 23.84253l0 0c-13.167862 0 -23.842514 -10.674652 -23.842514 -23.84253z" fill-rule="nonzero"></path><path stroke="#000000" stroke-width="2.0" stroke-linejoin="round" stroke-linecap="butt" d="m149.83896 324.1893l0 0c0 -13.167847 10.674652 -23.84253 23.842514 -23.84253l0 0c6.3234253 0 12.387863 2.5119934 16.859207 6.9833374c4.471344 4.4713135 6.983307 10.535767 6.983307 16.859192l0 0c0 13.167877 -10.674652 23.84253 -23.842514 23.84253l0 0c-13.167862 0 -23.842514 -10.674652 -23.842514 -23.84253z" fill-rule="nonzero"></path><path fill="#000000" fill-opacity="0.0" d="m84.845146 293.36346l64.99381 30.825836" fill-rule="nonzero"></path><path stroke="#000000" stroke-width="2.0" stroke-linejoin="round" stroke-linecap="butt" d="m84.845146 293.36346l54.151497 25.683441" fill-rule="evenodd"></path><path fill="#000000" stroke="#000000" stroke-width="2.0" stroke-linecap="butt" d="m137.581 322.03168l9.616226 0.9046936l-6.7849426 -6.874237z" fill-rule="evenodd"></path><path fill="#000000" fill-opacity="0.0" d="m91.82845 276.59875l34.897636 0l0 23.748016l-34.897636 0z" fill-rule="nonzero"></path><path fill="#000000" d="m108.40437 294.63684l0 -1.90625l1.90625 0l0 1.90625l-1.90625 0z" fill-rule="nonzero"></path><path fill="#000000" fill-opacity="0.0" d="m154.0562 214.68944c-10.703369 -8.286591 -14.960495 -22.457474 -10.595764 -35.27072c4.3647156 -12.813248 16.387192 -21.438644 29.923416 -21.468216c13.536209 -0.029586792 25.596268 8.543167 30.016953 21.337204c4.4207 12.794052 0.22557068 26.983414 -10.441498 35.31671l-19.50621 -24.968964z" fill-rule="nonzero"></path><path fill="#000000" fill-opacity="0.0" d="m154.0562 214.68944c-10.703369 -8.286591 -14.960495 -22.457474 -10.595764 -35.27072c4.3647156 -12.813248 16.387192 -21.438644 29.923416 -21.468216c13.536209 -0.029586792 25.596268 8.543167 30.016953 21.337204c4.4207 12.794052 0.22557068 26.983414 -10.441498 35.31671" fill-rule="nonzero"></path><path stroke="#000000" stroke-width="2.0" stroke-linejoin="round" stroke-linecap="butt" d="m154.0562 214.68945c-10.703369 -8.286606 -14.960495 -22.457504 -10.595764 -35.270737c4.3647156 -12.813248 16.387192 -21.438644 29.9234 -21.468231c13.536209 -0.029571533 25.596298 8.543182 30.016983 21.33722c2.2103424 6.3970337 2.2667236 13.142883 0.43714905 19.331146c-0.91477966 3.0941162 -2.301056 6.0488586 -4.125351 8.750885c-0.11401367 0.16886902 -0.22973633 0.33677673 -0.34716797 0.50364685l-0.17216492 0.23968506" fill-rule="evenodd"></path><path fill="#000000" stroke="#000000" stroke-width="2.0" stroke-linecap="butt" d="m197.59818 206.58119l-2.6136475 5.914398l5.8038635 -2.8506622z" fill-rule="evenodd"></path><path fill="#000000" fill-opacity="0.0" d="m144.50037 134.34412l58.362198 0l0 31.055115l-58.362198 0z" fill-rule="nonzero"></path><path fill="#000000" d="m160.98067 149.33261q0 -2.421875 0.5 -3.890625q0.5 -1.46875 1.46875 -2.265625q0.984375 -0.796875 2.46875 -0.796875q1.09375 0 1.921875 0.4375q0.828125 0.4375 1.359375 1.28125q0.546875 0.828125 0.84375 2.015625q0.3125 1.1875 0.3125 3.21875q0 2.390625 -0.5 3.859375q-0.484375 1.46875 -1.46875 2.28125q-0.96875 0.796875 -2.46875 0.796875q-1.96875 0 -3.078125 -1.40625q-1.359375 -1.703125 -1.359375 -5.53125zm1.71875 0q0 3.34375 0.78125 4.453125q0.796875 1.109375 1.9375 1.109375q1.15625 0 1.9375 -1.109375q0.78125 -1.125 0.78125 -4.453125q0 -3.359375 -0.78125 -4.46875q-0.78125 -1.109375 -1.953125 -1.109375q-1.15625 0 -1.828125 0.984375q-0.875 1.234375 -0.875 4.59375zm8.485092 2.625l0 -1.6875l5.125 0l0 1.6875l-5.125 0zm6.650177 0.9375l1.59375 -0.15625q0.203125 1.140625 0.78125 1.65625q0.578125 0.5 1.484375 0.5q0.765625 0 1.34375 -0.34375q0.578125 -0.359375 0.953125 -0.953125q0.375 -0.59375 0.625 -1.59375q0.25 -1.0 0.25 -2.03125q0 -0.109375 -0.015625 -0.34375q-0.5 0.796875 -1.375 1.296875q-0.859375 0.5 -1.875 0.5q-1.6875 0 -2.859375 -1.21875q-1.171875 -1.234375 -1.171875 -3.234375q0 -2.078125 1.21875 -3.328125q1.234375 -1.265625 3.0625 -1.265625q1.328125 0 2.421875 0.71875q1.109375 0.703125 1.671875 2.03125q0.578125 1.328125 0.578125 3.828125q0 2.609375 -0.578125 4.15625q-0.5625 1.546875 -1.6875 2.359375q-1.109375 0.796875 -2.609375 0.796875q-1.59375 0 -2.609375 -0.890625q-1.0 -0.890625 -1.203125 -2.484375zm6.828125 -6.0q0 -1.4375 -0.765625 -2.28125q-0.765625 -0.859375 -1.84375 -0.859375q-1.109375 0 -1.9375 0.921875q-0.828125 0.90625 -0.828125 2.34375q0 1.3125 0.78125 2.125q0.796875 0.796875 1.9375 0.796875q1.171875 0 1.90625 -0.796875q0.75 -0.8125 0.75 -2.25z" fill-rule="nonzero"></path><path fill="#000000" fill-opacity="0.0" d="m268.88095 259.11844l0 0c0 -13.167862 10.674652 -23.842514 23.84253 -23.842514l0 0c6.3234253 0 12.387848 2.511963 16.859192 6.983307c4.471344 4.471344 6.983307 10.535782 6.983307 16.859207l0 0c0 13.167847 -10.674652 23.84253 -23.842499 23.84253l0 0c-13.167877 0 -23.84253 -10.674683 -23.84253 -23.84253z" fill-rule="nonzero"></path><path stroke="#000000" stroke-width="2.0" stroke-linejoin="round" stroke-linecap="butt" d="m268.88095 259.11844l0 0c0 -13.167862 10.674652 -23.842514 23.84253 -23.842514l0 0c6.3234253 0 12.387848 2.511963 16.859192 6.983307c4.471344 4.471344 6.983307 10.535782 6.983307 16.859207l0 0c0 13.167847 -10.674652 23.84253 -23.842499 23.84253l0 0c-13.167877 0 -23.84253 -10.674683 -23.84253 -23.84253z" fill-rule="nonzero"></path><path fill="#000000" fill-opacity="0.0" d="m262.51874 259.11844l0 0c0 -16.733795 13.523132 -30.29921 30.204742 -30.29921l0 0c8.010773 0 15.693481 3.1922302 21.35794 8.874435c5.6644897 5.682205 8.846771 13.388916 8.846771 21.424774l0 0c0 16.733795 -13.523132 30.299225 -30.204712 30.299225l0 0c-16.68161 0 -30.204742 -13.56543 -30.204742 -30.299225z" fill-rule="nonzero"></path><path stroke="#000000" stroke-width="2.0" stroke-linejoin="round" stroke-linecap="butt" d="m262.51874 259.11844l0 0c0 -16.733795 13.523132 -30.29921 30.204742 -30.29921l0 0c8.010773 0 15.693481 3.1922302 21.35794 8.874435c5.6644897 5.682205 8.846771 13.388916 8.846771 21.424774l0 0c0 16.733795 -13.523132 30.299225 -30.204712 30.299225l0 0c-16.68161 0 -30.204742 -13.56543 -30.204742 -30.299225z" fill-rule="nonzero"></path><path fill="#000000" fill-opacity="0.0" d="m197.52399 230.29688l75.275604 -81.32283" fill-rule="nonzero"></path><path stroke="#000000" stroke-width="2.0" stroke-linejoin="round" stroke-linecap="butt" d="m197.52399 230.29688l67.124054 -72.51645" fill-rule="evenodd"></path><path fill="#000000" stroke="#000000" stroke-width="2.0" stroke-linecap="butt" d="m267.07236 160.02446l3.7410889 -8.904739l-8.589691 4.416687z" fill-rule="evenodd"></path><path fill="#000000" fill-opacity="0.0" d="m207.72871 220.2838l34.110245 0l0 27.81102l-34.110245 0z" fill-rule="nonzero"></path><path fill="#000000" d="m223.91093 240.35336l0 -1.90625l1.90625 0l0 1.90625l-1.90625 0z" fill-rule="nonzero"></path><path fill="#000000" fill-opacity="0.0" d="m268.88095 134.1079l0 0c0 -13.167854 10.674652 -23.842514 23.84253 -23.842514l0 0c6.3234253 0 12.387848 2.5119705 16.859192 6.983307c4.471344 4.471344 6.983307 10.535782 6.983307 16.859207l0 0c0 13.167862 -10.674652 23.84253 -23.842499 23.84253l0 0c-13.167877 0 -23.84253 -10.674667 -23.84253 -23.84253z" fill-rule="nonzero"></path><path stroke="#000000" stroke-width="2.0" stroke-linejoin="round" stroke-linecap="butt" d="m268.88095 134.1079l0 0c0 -13.167854 10.674652 -23.842514 23.84253 -23.842514l0 0c6.3234253 0 12.387848 2.5119705 16.859192 6.983307c4.471344 4.471344 6.983307 10.535782 6.983307 16.859207l0 0c0 13.167862 -10.674652 23.84253 -23.842499 23.84253l0 0c-13.167877 0 -23.84253 -10.674667 -23.84253 -23.84253z" fill-rule="nonzero"></path><path fill="#000000" fill-opacity="0.0" d="m191.93082 244.95654l72.031494 -1.1968384" fill-rule="nonzero"></path><path stroke="#000000" stroke-width="2.0" stroke-linejoin="round" stroke-linecap="butt" d="m191.93082 244.95654l60.033157 -0.99749756" fill-rule="evenodd"></path><path fill="#000000" stroke="#000000" stroke-width="2.0" stroke-linecap="butt" d="m252.01884 247.26207l9.020065 -3.4537964l-9.129822 -3.1522217z" fill-rule="evenodd"></path><path fill="#000000" fill-opacity="0.0" d="m197.52399 189.72733l34.519684 -35.779526l20.0 19.307083l-34.519684 35.779526z" fill-rule="nonzero"></path><path fill="#000000" d="m222.76976 187.88818l1.3507385 -1.0849915q0.7971344 1.3341675 0.63391113 2.7185516q-0.16362 1.3623047 -1.3569794 2.599228q-1.4971466 1.5517731 -3.331421 1.5401611q-1.8342896 -0.01159668 -3.5654907 -1.6828156q-1.7874146 -1.7254944 -1.8979187 -3.5912933q-0.09965515 -1.8770599 1.3215485 -3.350113q1.3777924 -1.4280853 3.2124634 -1.3943939q1.8346863 0.033706665 3.5996094 1.7374878q0.10118103 0.09767151 0.3039093 0.315094l-5.0989227 5.285034q1.2342072 1.0611572 2.427475 1.0620422q1.1932831 9.0026855E-4 2.0503387 -0.8874359q0.6292267 -0.65219116 0.7367859 -1.438797q0.10714722 -0.8086853 -0.38604736 -1.8277588zm-5.7527313 2.0695038l3.8187866 -3.9581604q-0.9640198 -0.778595 -1.771698 -0.8415985q-1.2502747 -0.099349976 -2.139862 0.8227234q-0.7919769 0.8208618 -0.78318787 1.9369507q0.008407593 1.0939789 0.8759613 2.0400848zm10.855942 -2.7906647l-1.37146 -1.3239594l1.3235474 -1.3718567l1.3714752 1.3239441q0.7531891 0.72709656 0.9537201 1.4419098q0.21177673 0.72566223 -0.09420776 1.5378876l-0.8425751 -0.16184998q0.21148682 -0.534256 0.059051514 -1.0288849q-0.15242004 -0.4946289 -0.73776245 -1.1031342l-0.66178894 0.6859436zm3.4687042 -3.5953064l-9.780151 -9.441315l6.8347473 -7.0841827l1.146637 1.1069031l-5.587143 5.791046l3.0015106 2.8975067l5.2291107 -5.4199677l1.146637 1.1069183l-5.2291107 5.4199677l3.3274994 3.2122192l5.8041077 -6.0159454l1.1578827 1.1177673l-7.0517273 7.309082z" fill-rule="nonzero"></path><path fill="#000000" fill-opacity="0.0" d="m314.39624 278.973l0 0c12.820648 9.323059 18.24234 25.800568 13.462494 40.914825c-4.779846 15.114288 -18.690063 25.478119 -34.54007 25.734161c-15.849976 0.25604248 -30.087677 -9.653076 -35.35324 -24.605072c-5.2655487 -14.951996 -0.37890625 -31.596008 12.133911 -41.32831l22.624146 29.0878z" fill-rule="nonzero"></path><path fill="#000000" fill-opacity="0.0" d="m314.39624 278.973l0 0c12.820648 9.323059 18.24234 25.800568 13.462494 40.914825c-4.779846 15.114288 -18.690063 25.478119 -34.54007 25.734161c-15.849976 0.25604248 -30.087677 -9.653076 -35.35324 -24.605072c-5.2655487 -14.951996 -0.37890625 -31.596008 12.133911 -41.32831" fill-rule="nonzero"></path><path stroke="#000000" stroke-width="2.0" stroke-linejoin="round" stroke-linecap="butt" d="m320.9749 285.11478l0.29458618 0.3536377c0.1515503 0.18560791 0.30114746 0.37252808 0.4487915 0.56073c0.2952881 0.37643433 0.5827942 0.7580261 0.8623352 1.1445007c2.2365112 3.0920105 3.9667664 6.498047 5.1470337 10.085083c2.3605652 7.174011 2.520996 15.071991 0.131073 22.62912c-4.779846 15.114258 -18.690063 25.478088 -34.54007 25.73413c-15.849976 0.25604248 -30.087708 -9.653076 -35.35324 -24.605072c-5.2655334 -14.951996 -0.37890625 -31.596008 12.133911 -41.32831" fill-rule="evenodd"></path><path fill="#000000" stroke="#000000" stroke-width="2.0" stroke-linecap="butt" d="m322.4841 283.4982l-5.9506836 -2.5299377l2.9322815 5.7630615z" fill-rule="evenodd"></path><path fill="#000000" fill-opacity="0.0" d="m263.54236 314.57166l58.362213 0l0 31.055115l-58.362213 0z" fill-rule="nonzero"></path><path fill="#000000" d="m280.02264 329.56015q0 -2.421875 0.5 -3.890625q0.5 -1.46875 1.46875 -2.265625q0.984375 -0.796875 2.46875 -0.796875q1.09375 0 1.921875 0.4375q0.828125 0.4375 1.359375 1.28125q0.546875 0.828125 0.84375 2.015625q0.3125 1.1875 0.3125 3.21875q0 2.390625 -0.5 3.859375q-0.484375 1.46875 -1.46875 2.28125q-0.96875 0.796875 -2.46875 0.796875q-1.96875 0 -3.078125 -1.40625q-1.359375 -1.703125 -1.359375 -5.53125zm1.71875 0q0 3.34375 0.78125 4.453125q0.796875 1.109375 1.9375 1.109375q1.15625 0 1.9375 -1.109375q0.78125 -1.125 0.78125 -4.453125q0 -3.359375 -0.78125 -4.46875q-0.78125 -1.109375 -1.953125 -1.109375q-1.15625 0 -1.828125 0.984375q-0.875 1.234375 -0.875 4.59375zm8.485107 2.625l0 -1.6875l5.125 0l0 1.6875l-5.125 0zm6.650177 0.9375l1.59375 -0.15625q0.203125 1.140625 0.78125 1.65625q0.578125 0.5 1.484375 0.5q0.765625 0 1.34375 -0.34375q0.578125 -0.359375 0.953125 -0.953125q0.375 -0.59375 0.625 -1.59375q0.25 -1.0 0.25 -2.03125q0 -0.109375 -0.015625 -0.34375q-0.5 0.796875 -1.375 1.296875q-0.859375 0.5 -1.875 0.5q-1.6875 0 -2.859375 -1.21875q-1.171875 -1.234375 -1.171875 -3.234375q0 -2.078125 1.21875 -3.328125q1.234375 -1.265625 3.0625 -1.265625q1.328125 0 2.421875 0.71875q1.109375 0.703125 1.671875 2.03125q0.578125 1.328125 0.578125 3.828125q0 2.609375 -0.578125 4.15625q-0.5625 1.546875 -1.6875 2.359375q-1.109375 0.796875 -2.609375 0.796875q-1.59375 0 -2.609375 -0.890625q-1.0 -0.890625 -1.203125 -2.484375zm6.828125 -6.0q0 -1.4375 -0.765625 -2.28125q-0.765625 -0.859375 -1.84375 -0.859375q-1.109375 0 -1.9375 0.921875q-0.828125 0.90625 -0.828125 2.34375q0 1.3125 0.78125 2.125q0.796875 0.796875 1.9375 0.796875q1.171875 0 1.90625 -0.796875q0.75 -0.8125 0.75 -2.25z" fill-rule="nonzero"></path><path fill="#000000" fill-opacity="0.0" d="m190.54068 307.3301l71.97806 -48.21167" fill-rule="nonzero"></path><path stroke="#000000" stroke-width="2.0" stroke-linejoin="round" stroke-linecap="butt" d="m190.54068 307.3301l62.007965 -41.53357" fill-rule="evenodd"></path><path fill="#000000" stroke="#000000" stroke-width="2.0" stroke-linecap="butt" d="m254.38702 268.5412l5.702484 -7.7956543l-9.379288 2.306305z" fill-rule="evenodd"></path><path fill="#000000" fill-opacity="0.0" d="m180.60927 280.1263l48.18898 -32.881897l17.51181 25.637787l-48.18898 32.881897z" fill-rule="nonzero"></path><path fill="#000000" d="m202.66447 283.2178q-1.3659973 -1.9998779 -1.7814178 -3.4945374q-0.41540527 -1.4946289 -0.06465149 -2.6987q0.36364746 -1.2128601 1.5897827 -2.0494995q0.90345764 -0.6164856 1.8342743 -0.72198486q0.9308014 -0.10546875 1.8455353 0.29180908q0.918808 0.37557983 1.8338165 1.1888428q0.9279175 0.80444336 2.0736084 2.481781q1.3483734 1.97406 1.763794 3.468689q0.4283142 1.4858398 0.07347107 2.711609q-0.35075378 1.2040405 -1.5897827 2.0494995q-1.626236 1.1096802 -3.3357697 0.57373047q-2.0834808 -0.64016724 -4.2426605 -3.801239zm1.4197235 -0.9687805q1.8859711 2.761139 3.1570282 3.2368774q1.2839508 0.46691895 2.2261353 -0.17599487q0.9550934 -0.6517029 0.9747009 -2.0081177q0.010787964 -1.3693237 -1.8663635 -4.117523q-1.8947906 -2.7740173 -3.1658325 -3.2497559q-1.2710571 -0.47573853 -2.2390442 0.18478394q-0.9550934 0.6517029 -0.9548645 1.8432617q-0.026535034 1.5124512 1.8682404 4.2864685zm8.489456 -2.6148987l-0.9517975 -1.3934631l4.2333527 -2.8886414l0.9517975 1.3934631l-4.2333527 2.8886414zm6.0219727 -2.9741516l1.2283325 -1.0273132q0.8111267 0.82736206 1.5794983 0.9273071q0.75956726 0.087005615 1.5081482 -0.4237671q0.6324158 -0.43154907 0.91607666 -1.0412598q0.27485657 -0.6225891 0.24971008 -1.3242493q-0.025131226 -0.70166016 -0.38264465 -1.668335q-0.3575287 -0.9666748 -0.9391937 -1.8182068q-0.061676025 -0.09033203 -0.20678711 -0.27505493q0.036453247 0.93984985 -0.40429688 1.8458862q-0.42785645 0.89727783 -1.2667847 1.4697266q-1.3939056 0.95111084 -3.0493164 0.6052551q-1.6642151 -0.35879517 -2.7922668 -2.0102844q-1.1721344 -1.7160339 -0.8704529 -3.4351501q0.30577087 -1.7408447 1.8158417 -2.7712402q1.0970612 -0.7485962 2.4059143 -0.7715454q1.3129578 -0.044677734 2.5266876 0.73498535q1.226654 0.7708435 2.6367188 2.8352356q1.4717712 2.1546936 1.8667145 3.7578735q0.4078369 1.5943909 -0.06315613 2.899414q-0.46691895 1.2833252 -1.7059479 2.1287842q-1.3164673 0.8982849 -2.65773 0.7352905q-1.3283691 -0.17178345 -2.3950653 -1.373352zm2.2559967 -8.803131q-0.810791 -1.1870117 -1.9191132 -1.4522095q-1.1171417 -0.2781067 -2.0076904 0.32955933q-0.9163666 0.6253052 -1.0804596 1.853302q-0.17289734 1.2151184 0.6378937 2.4021301q0.7402954 1.0838013 1.8439026 1.3143921q1.1076965 0.2088623 2.0498657 -0.434021q0.9680023 -0.66052246 1.1251526 -1.7324829q0.16123962 -1.0936279 -0.6495514 -2.2806702z" fill-rule="nonzero"></path><path fill="#000000" fill-opacity="0.0" d="m292.72348 228.81923l0 -70.868805" fill-rule="nonzero"></path><path stroke="#000000" stroke-width="2.0" stroke-linejoin="round" stroke-linecap="butt" d="m292.72348 228.81923l0 -58.868805" fill-rule="evenodd"></path><path fill="#000000" stroke="#000000" stroke-width="2.0" stroke-linecap="butt" d="m296.02692 169.95042l-3.3034363 -9.076202l-3.3034668 9.076202z" fill-rule="evenodd"></path><path fill="#000000" fill-opacity="0.0" d="m373.5161 134.1079l0 0c0 -13.167854 10.674652 -23.842514 23.84253 -23.842514l0 0c6.3234253 0 12.387848 2.5119705 16.859192 6.983307c4.471344 4.471344 6.983307 10.535782 6.983307 16.859207l0 0c0 13.167862 -10.674652 23.84253 -23.842499 23.84253l0 0c-13.167877 0 -23.84253 -10.674667 -23.84253 -23.84253z" fill-rule="nonzero"></path><path stroke="#000000" stroke-width="2.0" stroke-linejoin="round" stroke-linecap="butt" d="m373.5161 134.1079l0 0c0 -13.167854 10.674652 -23.842514 23.84253 -23.842514l0 0c6.3234253 0 12.387848 2.5119705 16.859192 6.983307c4.471344 4.471344 6.983307 10.535782 6.983307 16.859207l0 0c0 13.167862 -10.674652 23.84253 -23.842499 23.84253l0 0c-13.167877 0 -23.84253 -10.674667 -23.84253 -23.84253z" fill-rule="nonzero"></path><path fill="#000000" fill-opacity="0.0" d="m316.56598 134.1079l50.58792 0" fill-rule="nonzero"></path><path stroke="#000000" stroke-width="2.0" stroke-linejoin="round" stroke-linecap="butt" d="m316.56598 134.1079l38.58792 0" fill-rule="evenodd"></path><path fill="#000000" stroke="#000000" stroke-width="2.0" stroke-linecap="butt" d="m355.1539 137.41136l9.076202 -3.3034668l-9.076202 -3.3034668z" fill-rule="evenodd"></path><path fill="#000000" fill-opacity="0.0" d="m305.40063 110.26538l58.362213 0l0 31.055115l-58.362213 0z" fill-rule="nonzero"></path><path fill="#000000" d="m321.88092 125.253876q0 -2.421875 0.5 -3.890625q0.5 -1.46875 1.46875 -2.265625q0.984375 -0.796875 2.46875 -0.796875q1.09375 0 1.921875 0.4375q0.828125 0.4375 1.359375 1.28125q0.546875 0.828125 0.84375 2.015625q0.3125 1.1875 0.3125 3.21875q0 2.390625 -0.5 3.859375q-0.484375 1.46875 -1.46875 2.28125q-0.96875 0.796875 -2.46875 0.796875q-1.96875 0 -3.078125 -1.40625q-1.359375 -1.703125 -1.359375 -5.53125zm1.71875 0q0 3.34375 0.78125 4.453125q0.796875 1.109375 1.9375 1.109375q1.15625 0 1.9375 -1.109375q0.78125 -1.125 0.78125 -4.453125q0 -3.359375 -0.78125 -4.46875q-0.78125 -1.109375 -1.953125 -1.109375q-1.15625 0 -1.828125 0.984375q-0.875 1.234375 -0.875 4.59375zm8.485107 2.625l0 -1.6875l5.125 0l0 1.6875l-5.125 0zm6.650177 0.9375l1.59375 -0.15625q0.203125 1.140625 0.78125 1.65625q0.578125 0.5 1.484375 0.5q0.765625 0 1.34375 -0.34375q0.578125 -0.359375 0.953125 -0.953125q0.375 -0.59375 0.625 -1.59375q0.25 -1.0 0.25 -2.03125q0 -0.109375 -0.015625 -0.34375q-0.5 0.796875 -1.375 1.296875q-0.859375 0.5 -1.875 0.5q-1.6875 0 -2.859375 -1.21875q-1.171875 -1.234375 -1.171875 -3.234375q0 -2.078125 1.21875 -3.328125q1.234375 -1.265625 3.0625 -1.265625q1.328125 0 2.421875 0.71875q1.109375 0.703125 1.671875 2.03125q0.578125 1.328125 0.578125 3.828125q0 2.609375 -0.578125 4.15625q-0.5625 1.546875 -1.6875 2.359375q-1.109375 0.796875 -2.609375 0.796875q-1.59375 0 -2.609375 -0.890625q-1.0 -0.890625 -1.203125 -2.484375zm6.828125 -6.0q0 -1.4375 -0.765625 -2.28125q-0.765625 -0.859375 -1.84375 -0.859375q-1.109375 0 -1.9375 0.921875q-0.828125 0.90625 -0.828125 2.34375q0 1.3125 0.78125 2.125q0.796875 0.796875 1.9375 0.796875q1.171875 0 1.90625 -0.796875q0.75 -0.8125 0.75 -2.25z" fill-rule="nonzero"></path><path fill="#000000" fill-opacity="0.0" d="m373.5161 228.81923l0 0c0 -13.167862 10.674652 -23.84253 23.84253 -23.84253l0 0c6.3234253 0 12.387848 2.5119781 16.859192 6.983322c4.471344 4.4713287 6.983307 10.535782 6.983307 16.859207l0 0c0 13.167862 -10.674652 23.842514 -23.842499 23.842514l0 0c-13.167877 0 -23.84253 -10.674652 -23.84253 -23.842514z" fill-rule="nonzero"></path><path stroke="#000000" stroke-width="2.0" stroke-linejoin="round" stroke-linecap="butt" d="m373.5161 228.81923l0 0c0 -13.167862 10.674652 -23.84253 23.84253 -23.84253l0 0c6.3234253 0 12.387848 2.5119781 16.859192 6.983322c4.471344 4.4713287 6.983307 10.535782 6.983307 16.859207l0 0c0 13.167862 -10.674652 23.842514 -23.842499 23.842514l0 0c-13.167877 0 -23.84253 -10.674652 -23.84253 -23.842514z" fill-rule="nonzero"></path><path fill="#000000" fill-opacity="0.0" d="m309.58267 150.9671l70.91675 60.99292" fill-rule="nonzero"></path><path stroke="#000000" stroke-width="2.0" stroke-linejoin="round" stroke-linecap="butt" d="m309.58267 150.9671l61.818817 53.168106" fill-rule="evenodd"></path><path fill="#000000" stroke="#000000" stroke-width="2.0" stroke-linecap="butt" d="m369.2474 206.63977l9.035309 3.4137268l-4.7271423 -8.422852z" fill-rule="evenodd"></path><path fill="#000000" fill-opacity="0.0" d="m342.0148 141.3205l38.86615 36.72441l-19.086609 20.220474l-38.86615 -36.72441z" fill-rule="nonzero"></path><path fill="#000000" d="m344.5485 168.29169l2.5526428 -2.7042847l-2.6916199 -2.5432892l1.0725403 -1.136261l2.6916199 2.5433044l2.5419006 -2.6929321l1.1470642 1.0838623l-2.5419006 2.6929169l2.6802673 2.5325623l-1.0725403 1.1362457l-2.6802673 -2.5325623l-2.5526428 2.7042847l-1.1470642 -1.083847zm4.169403 6.970688l1.3084717 -1.3862305l1.3855591 1.3092041l-1.3084717 1.3862305q-0.7186279 0.7612915 -1.4309387 0.9696045q-0.72302246 0.21968079 -1.5381775 -0.07763672l0.15264893 -0.84461975q0.5362854 0.20579529 1.0290527 0.047973633q0.49273682 -0.1578064 1.094635 -0.7499237l-0.69277954 -0.65460205zm5.7831726 -0.14619446l1.1583252 -1.2271576l3.7250977 3.5198364l-1.1583252 1.2271576l-3.7250977 -3.5198364z" fill-rule="nonzero"></path><path fill="#000000" fill-opacity="0.0" d="m367.1539 134.1079l0 0c0 -16.733788 13.523132 -30.29921 30.204742 -30.29921l0 0c8.010773 0 15.693481 3.1922302 21.357971 8.874435c5.664459 5.682205 8.846741 13.388924 8.846741 21.424774l0 0c0 16.733795 -13.523102 30.29921 -30.204712 30.29921l0 0c-16.68161 0 -30.204742 -13.565414 -30.204742 -30.29921z" fill-rule="nonzero"></path><path stroke="#000000" stroke-width="2.0" stroke-linejoin="round" stroke-linecap="butt" d="m367.1539 134.1079l0 0c0 -16.733788 13.523132 -30.29921 30.204742 -30.29921l0 0c8.010773 0 15.693481 3.1922302 21.357971 8.874435c5.664459 5.682205 8.846741 13.388924 8.846741 21.424774l0 0c0 16.733795 -13.523102 30.29921 -30.204712 30.29921l0 0c-16.68161 0 -30.204742 -13.565414 -30.204742 -30.29921z" fill-rule="nonzero"></path><path fill="#000000" fill-opacity="0.0" d="m377.96176 111.859764c-10.7034 -8.286598 -14.96051 -22.457489 -10.595795 -35.270737c4.3647156 -12.813244 16.387207 -21.438633 29.923431 -21.468216c13.536194 -0.029586792 25.596252 8.543171 30.016968 21.337212c4.420685 12.7940445 0.22555542 26.983406 -10.441498 35.31671l-19.506226 -24.968964z" fill-rule="nonzero"></path><path fill="#000000" fill-opacity="0.0" d="m377.96176 111.859764c-10.7034 -8.286598 -14.96051 -22.457489 -10.595795 -35.270737c4.3647156 -12.813244 16.387207 -21.438633 29.923431 -21.468216c13.536194 -0.029586792 25.596252 8.543171 30.016968 21.337212c4.420685 12.7940445 0.22555542 26.983406 -10.441498 35.31671" fill-rule="nonzero"></path><path stroke="#000000" stroke-width="2.0" stroke-linejoin="round" stroke-linecap="butt" d="m377.96173 111.859764c-10.703369 -8.286598 -14.960449 -22.457489 -10.595764 -35.270737c4.3647156 -12.813244 16.387177 -21.438633 29.9234 -21.468216c13.536224 -0.029582977 25.596283 8.543167 30.016968 21.337212c2.2103577 6.397026 2.2667542 13.142883 0.43719482 19.331139c-0.91482544 3.0941315 -2.301117 6.0488586 -4.125366 8.750893c-0.11401367 0.16887665 -0.22976685 0.3367691 -0.34716797 0.5036392l-0.17214966 0.23967743" fill-rule="evenodd"></path><path fill="#000000" stroke="#000000" stroke-width="2.0" stroke-linecap="butt" d="m421.50372 103.75152l-2.6136475 5.9143906l5.8038635 -2.8506699z" fill-rule="evenodd"></path><path fill="#000000" fill-opacity="0.0" d="m368.4059 31.514435l58.362213 0l0 31.055119l-58.362213 0z" fill-rule="nonzero"></path><path fill="#000000" d="m384.88623 46.502934q0 -2.421875 0.5 -3.890625q0.5 -1.46875 1.46875 -2.265625q0.984375 -0.796875 2.46875 -0.796875q1.09375 0 1.921875 0.4375q0.828125 0.4375 1.359375 1.28125q0.546875 0.828125 0.84375 2.015625q0.3125 1.1875 0.3125 3.21875q0 2.390625 -0.5 3.859375q-0.484375 1.46875 -1.46875 2.28125q-0.96875 0.796875 -2.46875 0.796875q-1.96875 0 -3.078125 -1.40625q-1.359375 -1.703125 -1.359375 -5.53125zm1.71875 0q0 3.34375 0.78125 4.453125q0.796875 1.109375 1.9375 1.109375q1.15625 0 1.9375 -1.109375q0.78125 -1.125 0.78125 -4.453125q0 -3.359375 -0.78125 -4.46875q-0.78125 -1.109375 -1.953125 -1.109375q-1.15625 0 -1.828125 0.984375q-0.875 1.234375 -0.875 4.59375zm8.485077 2.625l0 -1.6875l5.125 0l0 1.6875l-5.125 0zm6.650177 0.9375l1.59375 -0.15625q0.203125 1.140625 0.78125 1.65625q0.578125 0.5 1.484375 0.5q0.765625 0 1.34375 -0.34375q0.578125 -0.359375 0.953125 -0.953125q0.375 -0.59375 0.625 -1.59375q0.25 -1.0 0.25 -2.03125q0 -0.109375 -0.015625 -0.34375q-0.5 0.796875 -1.375 1.296875q-0.859375 0.5 -1.875 0.5q-1.6875 0 -2.859375 -1.21875q-1.171875 -1.234375 -1.171875 -3.234375q0 -2.078125 1.21875 -3.328125q1.234375 -1.265625 3.0625 -1.265625q1.328125 0 2.421875 0.71875q1.109375 0.703125 1.671875 2.03125q0.578125 1.328125 0.578125 3.828125q0 2.609375 -0.578125 4.15625q-0.5625 1.546875 -1.6875 2.359375q-1.109375 0.796875 -2.609375 0.796875q-1.59375 0 -2.609375 -0.890625q-1.0 -0.890625 -1.203125 -2.484375zm6.828125 -6.0q0 -1.4375 -0.765625 -2.28125q-0.765625 -0.859375 -1.84375 -0.859375q-1.109375 0 -1.9375 0.921875q-0.828125 0.90625 -0.828125 2.34375q0 1.3125 0.78125 2.125q0.796875 0.796875 1.9375 0.796875q1.171875 0 1.90625 -0.796875q0.75 -0.8125 0.75 -2.25z" fill-rule="nonzero"></path><path fill="#000000" fill-opacity="0.0" d="m397.35864 204.9767l0 -40.569595" fill-rule="nonzero"></path><path stroke="#000000" stroke-width="2.0" stroke-linejoin="round" stroke-linecap="butt" d="m397.35864 204.9767l0 -28.569595" fill-rule="evenodd"></path><path fill="#000000" stroke="#000000" stroke-width="2.0" stroke-linecap="butt" d="m400.6621 176.4071l-3.3034668 -9.076187l-3.3034668 9.076187z" fill-rule="evenodd"></path><path fill="#000000" fill-opacity="0.0" d="m421.20114 160.59608l-0.62991333 58.362198l-31.055115 -0.28346252l0.62991333 -58.362198z" fill-rule="nonzero"></path><path fill="#000000" d="m406.03476 176.9403q2.4217834 0.022109985 3.8850708 0.53549194q1.4632874 0.5133667 2.2496643 1.4893341q0.78622437 0.9915924 0.77020264 2.4758759q-0.011810303 1.093689 -0.45822144 1.9177704q-0.44641113 0.8240967 -1.2958679 1.3476105q-0.8339844 0.5392761 -2.0246582 0.8253021q-1.1908264 0.30163574 -3.2219849 0.2830963q-2.3905334 -0.021820068 -3.8538208 -0.53518677q-1.4634705 -0.49775696 -2.2653198 -1.4894867q-0.78637695 -0.9759674 -0.7701721 -2.475891q0.021240234 -1.9686279 1.4393921 -3.0651093q1.7177429 -1.34375 5.5457153 -1.3088074zm-0.018554688 1.7186584q-3.343628 -0.030532837 -4.4613647 0.7405548q-1.1179504 0.7866974 -1.130249 1.9272614q-0.012481689 1.1561737 1.0884094 1.9475098q1.1165161 0.7914734 4.444519 0.82185364q3.359253 0.030654907 4.4769897 -0.7404175q1.1177673 -0.7710724 1.1304321 -1.9428864q0.012481689 -1.156189 -0.9646301 -1.8370056q-1.2248535 -0.8862152 -4.5841064 -0.9168701zm-2.7164612 8.460632l1.6874084 0.015396118l-0.05529785 5.12471l-1.687439 -0.015411377l0.05532837 -5.124695zm-1.0092468 6.6412354l0.13903809 1.5950775q-1.1427612 0.19270325 -1.6646118 0.766098q-0.5062256 0.57351685 -0.5159912 1.4797211q-0.008270264 0.7655792 0.32922363 1.3468018q0.3531189 0.5813751 0.94281006 0.96177673q0.58966064 0.38038635 1.5869446 0.6395111q0.9972534 0.2591095 2.0284424 0.26852417q0.109375 9.918213E-4 0.3439331 -0.012496948q-0.7914734 -0.50723267 -1.2819824 -1.3867493q-0.49072266 -0.8638916 -0.47976685 -1.8794556q0.018218994 -1.6874084 1.2495728 -2.8480835q1.2469788 -1.1605377 3.2468872 -1.1422882q2.0780334 0.018966675 3.3148499 1.249054q1.2522278 1.2458649 1.2325134 3.073883q-0.014343262 1.3280487 -0.74487305 2.4151764q-0.7150574 1.10289 -2.0491943 1.6532288q-1.3343201 0.56596375 -3.8342285 0.54315186q-2.609253 -0.02381897 -4.1498413 -0.61602783q-1.540741 -0.57658386 -2.3410645 -1.7089386q-0.7848511 -1.1165771 -0.76867676 -2.6165009q0.017211914 -1.5936432 0.9187622 -2.6010895q0.9013672 -0.99180603 2.4972534 -1.1803741zm5.926056 6.882492q1.437439 0.013122559 2.2894287 -0.74476624q0.86761475 -0.7577362 0.87924194 -1.8358002q0.011962891 -1.1092987 -0.90093994 -1.9458008q-0.89727783 -0.8363495 -2.3347168 -0.8494568q-1.312439 -0.011993408 -2.1333313 0.76179504q-0.80545044 0.78956604 -0.817749 1.9301147q-0.012664795 1.171814 0.7762451 1.9134216q0.8043823 0.75737 2.2418213 0.77049255z" fill-rule="nonzero"></path><path fill="#000000" fill-opacity="0.0" d="m459.9072 259.11844l0 0c0 -13.167862 10.674652 -23.842514 23.84253 -23.842514l0 0c6.3234253 0 12.387848 2.511963 16.859192 6.983307c4.471344 4.471344 6.983307 10.535782 6.983307 16.859207l0 0c0 13.167847 -10.674652 23.84253 -23.842499 23.84253l0 0c-13.167877 0 -23.84253 -10.674683 -23.84253 -23.84253z" fill-rule="nonzero"></path><path stroke="#000000" stroke-width="2.0" stroke-linejoin="round" stroke-linecap="butt" d="m459.9072 259.11844l0 0c0 -13.167862 10.674652 -23.842514 23.84253 -23.842514l0 0c6.3234253 0 12.387848 2.511963 16.859192 6.983307c4.471344 4.471344 6.983307 10.535782 6.983307 16.859207l0 0c0 13.167847 -10.674652 23.84253 -23.842499 23.84253l0 0c-13.167877 0 -23.84253 -10.674683 -23.84253 -23.84253z" fill-rule="nonzero"></path><path fill="#000000" fill-opacity="0.0" d="m453.54498 259.11844l0 0c0 -16.733795 13.523132 -30.29921 30.204742 -30.29921l0 0c8.010773 0 15.693481 3.1922302 21.35794 8.874435c5.6644897 5.682205 8.846741 13.388916 8.846741 21.424774l0 0c0 16.733795 -13.523071 30.299225 -30.204681 30.299225l0 0c-16.68161 0 -30.204742 -13.56543 -30.204742 -30.299225z" fill-rule="nonzero"></path><path stroke="#000000" stroke-width="2.0" stroke-linejoin="round" stroke-linecap="butt" d="m453.54498 259.11844l0 0c0 -16.733795 13.523132 -30.29921 30.204742 -30.29921l0 0c8.010773 0 15.693481 3.1922302 21.35794 8.874435c5.6644897 5.682205 8.846741 13.388916 8.846741 21.424774l0 0c0 16.733795 -13.523071 30.299225 -30.204681 30.299225l0 0c-16.68161 0 -30.204742 -13.56543 -30.204742 -30.299225z" fill-rule="nonzero"></path><path fill="#000000" fill-opacity="0.0" d="m316.5345 179.07812l0.03149414 49.732285l-27.811005 0l-0.03149414 -49.732285z" fill-rule="nonzero"></path><path fill="#000000" d="m299.64874 197.94298l-0.21765137 1.71875q-1.5002747 -0.40625 -2.3447266 -1.515625q-0.8288269 -1.09375 -0.829895 -2.8125q-0.001373291 -2.15625 1.3259583 -3.421875q1.327301 -1.265625 3.733551 -1.265625q2.484375 0 3.860199 1.265625q1.3757935 1.28125 1.3771057 3.328125q0.0012512207 1.984375 -1.3417053 3.234375q-1.3429565 1.25 -3.7960815 1.25q-0.140625 0 -0.4375 -0.015625l-0.0046691895 -7.34375q-1.624939 0.09375 -2.4837952 0.921875q-0.8588562 0.828125 -0.85806274 2.0625q5.79834E-4 0.90625 0.46972656 1.546875q0.48480225 0.65625 1.5475464 1.046875zm2.699646 -5.484375l0.003479004 5.5q1.234314 -0.109375 1.8589783 -0.625q0.9682617 -0.796875 0.96743774 -2.078125q-7.324219E-4 -1.140625 -0.7824707 -1.9375q-0.7661133 -0.78125 -2.0474243 -0.859375zm-5.8689575 9.547592l1.90625 0l0.0012207031 1.90625l-1.90625 0q-1.046875 0 -1.6877441 -0.375q-0.65649414 -0.375 -1.0007324 -1.171875l0.7184448 -0.46875q0.2190857 0.53125 0.6723633 0.78125q0.4532776 0.25 1.2970581 0.28125l-6.1035156E-4 -0.953125zm0.0031738281 4.995804l13.59375 0l0.006225586 9.84375l-1.59375 0l-0.0050964355 -8.04689l-4.171875 0l0.004760742 7.5312653l-1.59375 0l-0.004760742 -7.5312653l-4.625 0l0.0053100586 8.359375l-1.609375 0l-0.006439209 -10.156235z" fill-rule="nonzero"></path><path fill="#000000" fill-opacity="0.0" d="m322.9282 259.11844l130.61679 0" fill-rule="nonzero"></path><path stroke="#000000" stroke-width="2.0" stroke-linejoin="round" stroke-linecap="butt" d="m322.9282 259.11844l118.61679 0" fill-rule="evenodd"></path><path fill="#000000" stroke="#000000" stroke-width="2.0" stroke-linecap="butt" d="m441.54498 262.4219l9.076202 -3.3034668l-9.076202 -3.3034668z" fill-rule="evenodd"></path><path fill="#000000" fill-opacity="0.0" d="m427.56335 134.1079l56.18637 94.711334" fill-rule="nonzero"></path><path stroke="#000000" stroke-width="2.0" stroke-linejoin="round" stroke-linecap="butt" d="m427.56335 134.1079l50.063812 84.39075" fill-rule="evenodd"></path><path fill="#000000" stroke="#000000" stroke-width="2.0" stroke-linecap="butt" d="m474.786 220.18413l7.471924 6.1204834l-1.7896423 -9.49144z" fill-rule="evenodd"></path><path fill="#000000" fill-opacity="0.0" d="m317.88882 226.42111l68.031494 0l0 35.874023l-68.031494 0z" fill-rule="nonzero"></path><path fill="#000000" d="m330.23596 250.52219l0 -8.546875l-1.484375 0l0 -1.3125l1.484375 0l0 -1.046875q0 -0.984375 0.171875 -1.46875q0.234375 -0.65625 0.84375 -1.046875q0.609375 -0.40625 1.703125 -0.40625q0.703125 0 1.5625 0.15625l-0.25 1.46875q-0.515625 -0.09375 -0.984375 -0.09375q-0.765625 0 -1.078125 0.328125q-0.3125 0.3125 -0.3125 1.203125l0 0.90625l1.921875 0l0 1.3125l-1.921875 0l0 8.546875l-1.65625 0zm5.2145386 0l0 -1.90625l1.90625 0l0 1.90625q0 1.046875 -0.375 1.6875q-0.375 0.65625 -1.171875 1.0l-0.46875 -0.71875q0.53125 -0.21875 0.78125 -0.671875q0.25 -0.453125 0.28125 -1.296875l-0.953125 0zm5.058319 0l0 -13.59375l9.171875 0l0 1.59375l-7.375 0l0 4.21875l6.375 0l0 1.609375l-6.375 0l0 6.171875l-1.796875 0zm11.520966 0l0 -1.90625l1.90625 0l0 1.90625q0 1.046875 -0.375 1.6875q-0.375 0.65625 -1.171875 1.0l-0.46875 -0.71875q0.53125 -0.21875 0.78125 -0.671875q0.25 -0.453125 0.28125 -1.296875l-0.953125 0zm4.714569 0l0 -13.59375l1.671875 0l0 13.59375l-1.671875 0zm4.613556 0l0 -1.90625l1.90625 0l0 1.90625q0 1.046875 -0.375 1.6875q-0.375 0.65625 -1.171875 1.0l-0.46875 -0.71875q0.53125 -0.21875 0.78125 -0.671875q0.25 -0.453125 0.28125 -1.296875l-0.953125 0zm4.886444 0l0 -13.59375l1.796875 0l0 11.984375l6.703125 0l0 1.609375l-8.5 0z" fill-rule="nonzero"></path><path fill="#000000" fill-opacity="0.0" d="m459.01715 131.52003l37.51181 56.7874l-29.952759 19.779526l-37.51181 -56.7874z" fill-rule="nonzero"></path><path fill="#000000" d="m445.7098 155.12007l7.132141 -4.7097473l-0.81814575 -1.2385559l1.0952454 -0.72325134l0.81814575 1.2385559l0.8735962 -0.57688904q0.82141113 -0.5424347 1.320343 -0.66593933q0.67681885 -0.1660614 1.3386536 0.12713623q0.6748657 0.28459167 1.27771 1.1972046q0.38754272 0.5866852 0.73083496 1.3898468l-1.3634338 0.6007538q-0.20596313 -0.48188782 -0.46432495 -0.87301636q-0.42199707 -0.63882446 -0.868042 -0.71876526q-0.43301392 -0.08854675 -1.1762085 0.40223694l-0.7562561 0.49938965l1.0592957 1.6035919l-1.0952454 0.72325134l-1.0592957 -1.6035919l-7.132141 4.7097626l-0.9128723 -1.3819733zm2.874115 4.3509827l1.5907288 -1.0504303l1.0506592 1.5905609l-1.5906982 1.0504303q-0.8735962 0.57688904 -1.6148682 0.6170044q-0.7543335 0.048736572 -1.4803772 -0.4267578l0.34140015 -0.78718567q0.4753723 0.3227234 0.991272 0.28163147q0.51589966 -0.04109192 1.2372131 -0.4799652l-0.5253296 -0.7952881zm2.7879944 4.2206116l11.343597 -7.4908295l5.0552673 7.652939l-1.3299255 0.87823486l-4.0648804 -6.1536407l-3.5204468 2.3247375l3.513733 5.3192596l-1.3429871 0.8868408l-3.5137024 -5.3192444l-5.1502686 3.401001l-0.99038696 -1.4992981zm6.3500366 9.613022l1.5906982 -1.0504456l1.0506897 1.5905609l-1.5907288 1.0504456q-0.8735962 0.5768738 -1.6148682 0.6170044q-0.754303 0.048721313 -1.4803772 -0.4267578l0.34143066 -0.78718567q0.4753418 0.3227234 0.991272 0.28163147q0.51589966 -0.04109192 1.2372131 -0.4799652l-0.5253296 -0.7952881zm2.5985107 3.933792l11.343628 -7.4908447l0.9214783 1.3950043l-11.343597 7.4908295l-0.9215088 -1.394989zm2.5428772 3.8495178l1.5906982 -1.0504303l1.0506897 1.5905609l-1.5907288 1.0504303q-0.8735657 0.57688904 -1.6148376 0.6170044q-0.7543335 0.048736572 -1.4803772 -0.4267578l0.34140015 -0.78718567q0.4753418 0.32273865 0.991272 0.28163147q0.51589966 -0.04109192 1.2372131 -0.4799652l-0.5253296 -0.7952881zm2.6932678 4.0772095l11.343597 -7.4908447l0.99038696 1.4992981l-10.000641 6.6039886l3.69458 5.593048l-1.3429871 0.8868408l-4.6849365 -7.092331z" fill-rule="nonzero"></path><path fill="#000000" fill-opacity="0.0" d="m32.34646 187.77852l42.803146 46.48819l-32.346455 29.795273l-42.80315 -46.48819z" fill-rule="nonzero"></path><path fill="#000000" d="m23.497742 213.27254l1.2464561 1.1461487q-0.66234016 0.7800598 -0.8486843 1.546524q-0.18634224 0.76646423 0.13928413 1.7198944q0.33620834 0.96492004 1.1193924 1.8155212q0.69851494 0.75865173 1.4575424 1.1216736q0.76961136 0.37451172 1.4249439 0.30195618q0.65533257 -0.07255554 1.1150303 -0.4960022q0.4711914 -0.43403625 0.5619583 -1.0274811q0.10226059 -0.6040497 -0.23849297 -1.4585571q-0.20953178 -0.55052185 -1.1577702 -2.226303q-0.9367466 -1.6863556 -1.1459541 -2.5133362q-0.27692986 -1.0620117 -0.053382874 -1.9264832q0.23413086 -0.85298157 0.92367935 -1.4881439q0.75850105 -0.69866943 1.8051624 -0.87677q1.0687389 -0.17718506 2.153452 0.3319397q1.1067886 0.5100403 2.0381432 1.5215759q1.0266075 1.1149902 1.4535255 2.2937622q0.42691803 1.1787872 0.13863373 2.2728271q-0.26620102 1.0949554 -1.1193695 1.9445648l-1.256134 -1.1797333q0.8471298 -0.97151184 0.77946854 -2.013855q-0.045585632 -1.0414276 -1.1039429 -2.1909027q-1.1006908 -1.1954498 -2.0569077 -1.3343353q-0.94472504 -0.14949036 -1.5653172 0.42216492q-0.54014397 0.49754333 -0.5250778 1.2059479q0.0044841766 0.6968994 1.1184254 2.6449127q1.1245232 1.9595184 1.3990498 2.8113098q0.40211487 1.2441101 0.1625309 2.2295685q-0.21750832 0.98635864 -1.0219803 1.7273865q-0.80447197 0.7410126 -1.9403458 0.93756104q-1.124382 0.18595886 -2.3088932 -0.31622314q-1.1739273 -0.49067688 -2.1581974 -1.5596924q-1.2488613 -1.3563843 -1.7048035 -2.6358795q-0.44444847 -1.2900848 -0.1383133 -2.549286q0.31671906 -1.2476959 1.3068886 -2.2022552zm9.0551605 14.079239l-0.9330292 1.1780853q-0.57969284 -0.4219818 -0.960701 -0.8358002q-0.6138458 -0.666687 -0.74565697 -1.2250671q-0.12031746 -0.5689697 0.07537842 -1.0253906q0.20718575 -0.4670105 1.3219547 -1.493866l4.160267 -3.832138l-0.83610153 -0.90808105l0.96536636 -0.88923645l0.83610153 0.90808105l1.7928238 -1.651413l1.8573723 0.54093933l-2.5283394 2.3289185l1.1430244 1.2414398l-0.96536255 0.8892212l-1.1430283 -1.2414246l-4.2292213 3.8956604q-0.5286522 0.48695374 -0.6251354 0.6820526q-0.08590126 0.20657349 -0.040254593 0.44070435q0.045646667 0.2341156 0.2996521 0.5099945q0.1799202 0.19540405 0.5548897 0.48731995zm5.187912 6.049774q-1.2211304 -0.14979553 -2.044567 -0.55970764q-0.81194305 -0.42048645 -1.4787102 -1.1446533q-1.090107 -1.18396 -1.1081619 -2.356964q-0.006565094 -1.1835938 0.90133667 -2.0198822q0.5401459 -0.4975586 1.1991158 -0.658432q0.65896606 -0.16087341 1.2831345 -0.013534546q0.6241684 0.14733887 1.2171707 0.5145874q0.44210815 0.2725525 1.1893196 0.9226227q1.559742 1.3249359 2.4466782 1.8038025q0.25283432 -0.2328949 0.3217888 -0.29640198q0.7470093 -0.6880951 0.7397995 -1.3187561q-0.020198822 -0.8523865 -0.8774643 -1.7834625q-0.79376984 -0.8621063 -1.4735794 -1.0006714q-0.6798134 -0.13858032 -1.6412201 0.38586426l-0.93888855 -1.3657379q0.92874527 -0.53685 1.7386131 -0.6030426q0.820446 -0.05470276 1.7188797 0.41358948q0.9205055 0.4691925 1.7883606 1.4117584q0.8572655 0.93107605 1.168087 1.7069397q0.31082153 0.7758789 0.23154831 1.3587494q-0.07927704 0.5828705 -0.4896927 1.1520996q-0.24679565 0.35479736 -1.0627594 1.1063995l-1.6434212 1.5138092q-1.7123756 1.5773163 -2.10857 2.0697327q-0.37412262 0.49331665 -0.5655937 1.115799l-1.18536 -1.2874146q0.19932938 -0.54473877 0.6741562 -1.0670929zm2.6399536 -2.6229248q-0.8781738 -0.42321777 -2.3118248 -1.58815q-0.80194473 -0.66337585 -1.2256126 -0.84669495q-0.4236641 -0.18333435 -0.84674454 -0.11227417q-0.42308044 0.07106018 -0.74486923 0.36747742q-0.49417496 0.4552002 -0.48878098 1.1300201q0.027469635 0.6757355 0.683651 1.3884125q0.6561775 0.712677 1.4744873 0.9785919q0.82979965 0.25534058 1.6018753 0.03276062q0.6051407 -0.1962738 1.4096107 -0.93730164l0.44820786 -0.4128418zm-0.879406 6.3343353l7.2517395 -6.6797943l1.0160217 1.1035004l-1.1032753 1.0162659q1.1615868 -0.28396606 1.7310181 -0.14993286q0.580925 0.1234436 0.9831009 0.5602417q0.5715103 0.6207123 0.76195526 1.6349335l-1.5293465 0.6227112q-0.14842987 -0.69177246 -0.5717735 -1.1515656q-0.37042618 -0.40231323 -0.90810776 -0.5018616q-0.5270958 -0.08804321 -1.079319 0.16569519q-0.8455734 0.39649963 -1.6270599 1.1163483l-3.792511 3.493393l-1.1324425 -1.2299347zm7.7985573 6.255432l-0.9330292 1.1781006q-0.57969284 -0.4219818 -0.960701 -0.8358002q-0.6138458 -0.666687 -0.74565506 -1.2250671q-0.12031937 -0.5689697 0.07537842 -1.0253906q0.20718765 -0.46702576 1.3219528 -1.493866l4.1602707 -3.832138l-0.83610153 -0.9080963l0.96536255 -0.8892212l0.83610153 0.90808105l1.7928238 -1.651413l1.8573761 0.5409241l-2.5283394 2.3289337l1.1430244 1.2414246l-0.96536636 0.88923645l-1.1430244 -1.2414398l-4.2292213 3.8956604q-0.528656 0.486969 -0.6251373 0.6820526q-0.08590317 0.20658875 -0.0402565 0.44070435q0.045646667 0.23413086 0.2996521 0.5099945q0.1799202 0.19541931 0.5548897 0.48731995z" fill-rule="nonzero"></path><path fill="#000000" fill-opacity="0.0" d="m268.88095 466.23917l0 0c0 -13.167847 10.674652 -23.842499 23.84253 -23.842499l0 0c6.3234253 0 12.387848 2.511963 16.859192 6.983307c4.471344 4.471344 6.983307 10.535767 6.983307 16.859192l0 0c0 13.167877 -10.674652 23.84253 -23.842499 23.84253l0 0c-13.167877 0 -23.84253 -10.674652 -23.84253 -23.84253z" fill-rule="nonzero"></path><path stroke="#000000" stroke-width="2.0" stroke-linejoin="round" stroke-linecap="butt" d="m268.88095 466.23917l0 0c0 -13.167847 10.674652 -23.842499 23.84253 -23.842499l0 0c6.3234253 0 12.387848 2.511963 16.859192 6.983307c4.471344 4.471344 6.983307 10.535767 6.983307 16.859192l0 0c0 13.167877 -10.674652 23.84253 -23.842499 23.84253l0 0c-13.167877 0 -23.84253 -10.674652 -23.84253 -23.84253z" fill-rule="nonzero"></path><path fill="#000000" fill-opacity="0.0" d="m52.524933 293.99503c7.8114624 24.51181 10.774281 117.44095 46.868767 147.07089c36.09449 29.629913 141.41513 25.590546 169.69815 30.708649" fill-rule="nonzero"></path><path stroke="#000000" stroke-width="2.0" stroke-linejoin="round" stroke-linecap="butt" d="m52.524933 293.99503c7.8114624 24.51181 10.774281 117.44095 46.868767 147.07089c18.047249 14.814941 53.401024 21.212585 87.77837 24.546234c17.188675 1.6668396 34.133255 2.567688 48.54834 3.371704c7.207535 0.40197754 13.7827 0.77978516 19.43985 1.2170105l2.0149384 0.16186523" fill-rule="evenodd"></path><path fill="#000000" stroke="#000000" stroke-width="2.0" stroke-linecap="butt" d="m256.78656 473.64328l9.401794 -2.2127075l-8.624481 -4.348358z" fill-rule="evenodd"></path><path fill="#000000" fill-opacity="0.0" d="m173.73734 348.94516c0.26945496 11.852142 -14.679367 53.065613 1.6167908 71.112885c16.296143 18.047241 80.13342 30.975494 96.160095 37.170593" fill-rule="nonzero"></path><path stroke="#000000" stroke-width="2.0" stroke-linejoin="round" stroke-linecap="butt" d="m173.73734 348.94516c0.26945496 11.852173 -14.679352 53.065613 1.6167908 71.112885c8.148087 9.023621 28.181427 16.767487 48.181107 23.029846c9.999832 3.131195 19.991257 5.891968 28.484375 8.257172c2.1232758 0.5912781 4.152939 1.157898 6.065628 1.6993408l1.9870605 0.5673218" fill-rule="evenodd"></path><path fill="#000000" stroke="#000000" stroke-width="2.0" stroke-linecap="butt" d="m259.0766 456.76157l9.649811 -0.41418457l-7.6584167 -5.885498z" fill-rule="evenodd"></path><path fill="#000000" fill-opacity="0.0" d="m265.04987 272.17847c-3.5017395 10.529327 -22.761597 33.546387 -21.010498 63.175873c1.7510986 29.629486 26.264221 95.500854 31.51706 114.60104" fill-rule="nonzero"></path><path stroke="#000000" stroke-width="2.0" stroke-linejoin="round" stroke-linecap="butt" d="m265.04987 272.17847c-3.5017395 10.529327 -22.761581 33.546387 -21.010498 63.175873c0.87553406 14.814697 7.4416046 38.68994 14.445374 61.248993c3.501892 11.279541 7.1131897 22.230011 10.177338 31.554382c0.76605225 2.3310852 1.4978943 4.560547 2.1852722 6.6681213c0.34368896 1.053772 0.67626953 2.0770874 0.99642944 3.0673828l0.18988037 0.59088135" fill-rule="evenodd"></path><path fill="#000000" stroke="#000000" stroke-width="2.0" stroke-linecap="butt" d="m268.87576 439.4539l5.822357 7.7065125l0.49346924 -9.646057z" fill-rule="evenodd"></path><path fill="#000000" fill-opacity="0.0" d="m484.89764 290.08923c-2.7016602 16.702118 12.080933 72.870514 -16.209991 100.212616c-28.290894 27.342072 -127.9462 53.19989 -153.53543 63.839874" fill-rule="nonzero"></path><path stroke="#000000" stroke-width="2.0" stroke-linejoin="round" stroke-linecap="butt" d="m484.89764 290.08923c-2.7016602 16.702118 12.080902 72.870544 -16.209991 100.212616c-14.145416 13.67099 -46.131958 26.971008 -77.78082 38.183228c-15.824432 5.606079 -31.564423 10.690277 -44.94763 15.037933c-6.6915894 2.1737976 -12.794037 4.163513 -18.023193 5.9421997l-1.5257874 0.52230835" fill-rule="evenodd"></path><path fill="#000000" stroke="#000000" stroke-width="2.0" stroke-linecap="butt" d="m325.26663 446.88834l-7.371399 6.241211l9.6586 -0.042816162z" fill-rule="evenodd"></path><path fill="#000000" fill-opacity="0.0" d="m427.4908 120.34646c15.6203 0.6828537 83.08487 -47.76422 93.72177 4.0971146c10.636963 51.86133 4.1741333 249.15836 -29.900238 307.07086c-34.07437 57.912506 -145.45496 33.670166 -174.54593 40.404205" fill-rule="nonzero"></path><path stroke="#000000" stroke-width="2.0" stroke-linejoin="round" stroke-linecap="butt" d="m427.4908 120.34646c15.62027 0.6828537 83.08484 -47.764214 93.72177 4.0971146c10.636963 51.861313 4.1740723 249.15833 -29.900238 307.07086c-17.03717 28.956299 -53.40094 37.37381 -89.141754 39.394043c-17.870392 1.0101013 -35.585052 0.42086792 -50.65033 3.0517578E-5c-7.5326233 -0.2104187 -14.402924 -0.37878418 -20.299103 -0.28408813c-0.73706055 0.011871338 -1.4588623 0.027801514 -2.1648254 0.04827881l-0.35357666 0.011566162" fill-rule="evenodd"></path><path fill="#000000" stroke="#000000" stroke-width="2.0" stroke-linecap="butt" d="m328.36295 467.39832l-8.688232 4.219574l9.367859 2.352295z" fill-rule="evenodd"></path><path fill="#000000" fill-opacity="0.0" d="m292.4252 110.07087c0.5389404 -12.525375 -38.264664 -71.89108 3.2335815 -75.15224c41.49826 -3.261156 210.31848 -17.921698 245.75589 55.5853c35.4375 73.507 4.9833984 320.00174 -33.131195 385.4567c-38.114624 65.454956 -162.96371 6.060791 -195.55646 7.272949" fill-rule="nonzero"></path><path stroke="#000000" stroke-width="2.0" stroke-linejoin="round" stroke-linecap="butt" d="m292.4252 110.07087c0.5389404 -12.525375 -38.264664 -71.89108 3.2335815 -75.15224c41.49826 -3.261156 210.31845 -17.921698 245.75589 55.5853c35.4375 73.507 4.9833984 320.00177 -33.131195 385.4567c-19.057343 32.727448 -59.79825 34.242645 -99.84894 27.72754c-20.02533 -3.2575989 -39.878143 -8.522736 -56.761627 -12.897736c-8.441742 -2.1875 -16.141174 -4.152466 -22.748688 -5.5326843c-0.82592773 -0.17254639 -1.6348267 -0.33590698 -2.4259338 -0.48947144c-0.39556885 -0.07675171 -0.78671265 -0.15106201 -1.1733093 -0.22283936l-0.65737915 -0.11904907" fill-rule="evenodd"></path><path fill="#000000" stroke="#000000" stroke-width="2.0" stroke-linecap="butt" d="m324.99597 481.13928l-9.359619 2.3849487l8.702881 4.18927z" fill-rule="evenodd"></path><path fill="#000000" fill-opacity="0.0" d="m151.91956 222.22314c-21.144806 -8.215668 -102.49169 -72.72835 -126.868774 -49.293976c-24.377079 23.434387 -20.875328 137.77908 -19.393702 189.90027c1.4816275 52.121185 -16.295713 103.29834 28.283464 122.82678c44.57918 19.528412 199.32632 -4.7134705 239.19159 -5.656189" fill-rule="nonzero"></path><path stroke="#000000" stroke-width="2.0" stroke-linejoin="round" stroke-linecap="butt" d="m151.91954 222.22314c-21.144775 -8.215668 -102.49168 -72.72835 -126.86876 -49.293976c-24.377077 23.434387 -20.875326 137.77911 -19.3937 189.90027c1.481627 52.121185 -16.295713 103.29834 28.283463 122.82678c22.289589 9.764221 72.12117 8.585815 121.36351 4.848572c24.62117 -1.8686218 49.09503 -4.376953 69.9052 -6.4770813c10.40506 -1.0500488 19.89421 -1.9980469 28.027878 -2.7129822c2.0334167 -0.17874146 3.982132 -0.34295654 5.839218 -0.49050903l2.0742493 -0.15927124" fill-rule="evenodd"></path><path fill="#000000" stroke="#000000" stroke-width="2.0" stroke-linecap="butt" d="m261.33362 483.96332l8.879211 -3.8012695l-9.24527 -2.7955017z" fill-rule="evenodd"></path><path fill="#000000" fill-opacity="0.0" d="m395.96063 252.92914c-1.7510986 14.9496765 5.2510986 57.779083 -10.506561 89.69815c-15.75766 31.919067 -70.03281 84.84689 -84.03937 101.816284" fill-rule="nonzero"></path><path stroke="#000000" stroke-width="2.0" stroke-linejoin="round" stroke-linecap="butt" d="m395.96063 252.92914c-1.7510986 14.949707 5.2510986 57.779083 -10.506561 89.69815c-7.878845 15.959564 -25.387054 37.171265 -42.67636 56.514282c-8.644653 9.671509 -17.234589 18.875854 -24.538757 26.7229c-1.8260498 1.961731 -3.5717468 3.8386536 -5.2178345 5.6168823c-0.82302856 0.8890381 -1.6211853 1.753479 -2.3920288 2.5914917c-0.385437 0.4189453 -0.76400757 0.83135986 -1.135498 1.236908l-0.13092041 0.14328003" fill-rule="evenodd"></path><path fill="#000000" stroke="#000000" stroke-width="2.0" stroke-linecap="butt" d="m306.8877 433.26505l-3.5364685 8.987976l8.48645 -4.611969z" fill-rule="evenodd"></path><path fill="#000000" fill-opacity="0.0" d="m288.72348 -4.03937l143.99997 0l0 48.000004l-143.99997 0z" fill-rule="nonzero"></path><path fill="#000000" d="m333.93405 26.124693l0 -1.90625l1.90625 0l0 1.90625l-1.90625 0zm5.1520386 0l0 -1.90625l1.90625 0l0 1.90625q0 1.046875 -0.375 1.6875q-0.375 0.65625 -1.171875 1.0l-0.46875 -0.71875q0.53125 -0.21875 0.78125 -0.671875q0.25 -0.453125 0.28125 -1.296875l-0.953125 0zm5.152069 0l0 -8.546875l-1.484375 0l0 -1.3125l1.484375 0l0 -1.046876q0 -0.984375 0.171875 -1.46875q0.234375 -0.65625 0.84375 -1.046875q0.609375 -0.40625 1.703125 -0.40625q0.703125 0 1.5625 0.15625l-0.25 1.46875q-0.515625 -0.09375 -0.984375 -0.09375q-0.765625 0 -1.078125 0.328125q-0.3125 0.3125 -0.3125 1.203125l0 0.90625095l1.921875 0l0 1.3125l-1.921875 0l0 8.546875l-1.65625 0zm5.2145386 0l0 -1.90625l1.90625 0l0 1.90625q0 1.046875 -0.375 1.6875q-0.375 0.65625 -1.171875 1.0l-0.46875 -0.71875q0.53125 -0.21875 0.78125 -0.671875q0.25 -0.453125 0.28125 -1.296875l-0.953125 0zm5.058319 0l0 -13.593751l9.171875 0l0 1.59375l-7.375 0l0 4.218751l6.375 0l0 1.609375l-6.375 0l0 6.171875l-1.796875 0zm11.520966 0l0 -1.90625l1.90625 0l0 1.90625q0 1.046875 -0.375 1.6875q-0.375 0.65625 -1.171875 1.0l-0.46875 -0.71875q0.53125 -0.21875 0.78125 -0.671875q0.25 -0.453125 0.28125 -1.296875l-0.953125 0zm4.714569 0l0 -13.593751l1.671875 0l0 13.593751l-1.671875 0zm4.613556 0l0 -1.90625l1.90625 0l0 1.90625q0 1.046875 -0.375 1.6875q-0.375 0.65625 -1.171875 1.0l-0.46875 -0.71875q0.53125 -0.21875 0.78125 -0.671875q0.25 -0.453125 0.28125 -1.296875l-0.953125 0zm4.886444 0l0 -13.593751l1.796875 0l0 11.984376l6.703125 0l0 1.609375l-8.5 0z" fill-rule="nonzero"></path><path fill="#000000" fill-opacity="0.0" d="m379.71652 68.92913l144.00003 0l0 48.000008l-144.00003 0z" fill-rule="nonzero"></path><path fill="#000000" fill-opacity="0.0" d="m85.30404 282.5315l37.448814 139.05511l-46.362206 12.503937l-37.44882 -139.05511z" fill-rule="nonzero"></path><path fill="#000000" d="m66.08608 315.00592l0.23574829 1.7165833q-1.553894 -0.0016784668 -2.6570206 -0.85317993q-1.0839806 -0.8404846 -1.5309296 -2.5000916q-0.56072235 -2.0820618 0.3924675 -3.649994q0.95318985 -1.5679321 3.2764244 -2.194519q2.398674 -0.6469116 4.0553513 0.21713257q1.6607513 0.8791199 2.1930237 2.8555603q0.51602936 1.9161072 -0.45630646 3.4730225q-0.97234344 1.5569153 -3.3408356 2.1956787q-0.1357727 0.036621094 -0.42647552 0.098846436l-1.9096985 -7.091095q-1.5445557 0.5136719 -2.1589355 1.5370789q-0.6143799 1.023407 -0.29338837 2.215332q0.23566437 0.87506104 0.8548355 1.371582q0.6383209 0.50753784 1.7657394 0.60806274zm1.1836929 -5.9995728l1.4302444 5.3107605q1.163353 -0.42703247 1.6327057 -1.0876465q0.72810364 -1.0217285 0.39492035 -2.2589111q-0.29660797 -1.1013794 -1.2581329 -1.6673889q-0.94236755 -0.5550232 -2.1997375 -0.29681396zm-3.1895218 10.748962l1.8404846 -0.49639893l0.49571228 1.8406677l-1.8404922 0.49639893q-1.0107574 0.272583 -1.726799 0.077301025q-0.7311287 -0.19119263 -1.2702408 -0.8711548l0.57205963 -0.6397705q0.34934998 0.45599365 0.85185623 0.57940674q0.50250244 0.123413086 1.3252678 -0.06613159l-0.24784851 -0.9203186zm1.2991257 4.8239136l13.124786 -3.5397644l2.5598145 9.505096l-1.5387726 0.41500854l-2.092537 -7.77005l-4.027954 1.0863647l1.958458 7.2721252l-1.5387726 0.41500854l-1.958458 -7.2721252l-4.4654465 1.2043152l2.1738129 8.071777l-1.5538559 0.4190979l-2.6410751 -9.806854zm3.2846375 12.196533l1.8404846 -0.49639893l0.49571228 1.8406677l-1.8404922 0.49639893q-1.0107574 0.27261353 -1.726799 0.07733154q-0.7311249 -0.19122314 -1.2702408 -0.8711853l0.57205963 -0.6397705q0.34934998 0.45599365 0.85186005 0.57940674q0.50250244 0.123413086 1.3252716 -0.06613159l-0.24785614 -0.9203186zm1.3397598 4.9747925l8.252022 -2.225586l-0.3860016 -1.4332886l1.2672195 -0.34176636l0.3860016 1.4332886l1.0107651 -0.272583q0.95040894 -0.25634766 1.4627762 -0.2164917q0.6945572 0.055419922 1.2301712 0.54211426q0.5506973 0.48260498 0.83512115 1.5387268q0.18283844 0.6789551 0.25545502 1.5494385l-1.4830856 0.14105225q-0.043571472 -0.52227783 -0.16546631 -0.97491455q-0.19909668 -0.73928833 -0.59716797 -0.9555969q-0.38298035 -0.22036743 -1.2428818 0.0115356445l-0.87498474 0.23599243l0.49977112 1.8557739l-1.2672195 0.34176636l-0.49977112 -1.8557739l-8.252029 2.225586l-0.43069458 -1.5992737zm1.3560104 5.0351562l1.8404922 -0.4963684l0.49570465 1.8406677l-1.8404846 0.4963684q-1.0107574 0.27261353 -1.726799 0.07733154q-0.7311325 -0.19122314 -1.2702408 -0.8711548l0.57205963 -0.639801q0.34934998 0.45602417 0.8518524 0.57943726q0.50250244 0.12338257 1.3252716 -0.06613159l-0.24785614 -0.9203491zm1.3153839 4.8842773l13.124794 -3.5397644l2.385086 8.856354l-1.538765 0.41500854l-1.9178238 -7.121277l-4.0732117 1.0985413l1.6577835 6.15567l-1.5538559 0.4190979l-1.6577835 -6.1557007l-5.958954 1.6071472l-0.4672699 -1.7350769zm2.995964 11.124634l1.8404846 -0.4963684l0.49571228 1.8406677l-1.8404846 0.4963684q-1.0107651 0.27261353 -1.7268066 0.07733154q-0.7311249 -0.19122314 -1.2702408 -0.8711548l0.57205963 -0.639801q0.3493576 0.45602417 0.85186005 0.57943726q0.50250244 0.12338257 1.3252716 -0.06613159l-0.24785614 -0.9203491zm1.2259903 4.552368l13.124794 -3.5397644l0.43476105 1.6143494l-13.124794 3.5397644l-0.43476105 -1.6143494zm1.1997375 4.454834l1.8404846 -0.4963684l0.49570465 1.8406677l-1.8404846 0.4963684q-1.0107574 0.27261353 -1.726799 0.07733154q-0.7311249 -0.19122314 -1.2702408 -0.8711548l0.57205963 -0.639801q0.34934998 0.45602417 0.8518524 0.57943726q0.50250244 0.123413086 1.3252716 -0.06613159l-0.24784851 -0.9203491zm1.2706833 4.7183228l13.124786 -3.5397644l0.4672699 1.7350464l-11.570938 3.120697l1.7431107 6.472534l-1.5538559 0.41906738l-2.210373 -8.207581zm2.7753448 10.30542l1.8404846 -0.4963684l0.49571228 1.8406677l-1.8404922 0.4963684q-1.0107574 0.27261353 -1.726799 0.07733154q-0.7311249 -0.19122314 -1.2702408 -0.8711548l0.57205963 -0.639801q0.34934998 0.45602417 0.85186005 0.57943726q0.50250244 0.12338257 1.3252716 -0.06613159l-0.24785614 -0.9203491zm4.2754593 7.403534l3.590454 -0.9683533l-0.96297455 -3.575714l1.5085983 -0.40689087l0.96297455 3.5757446l3.5753708 -0.96429443l0.41038513 1.5238342l-3.5753708 0.96429443l0.9589081 3.5606384l-1.5085983 0.40686035l-0.9589081 -3.5606384l-3.5904617 0.9683533l-0.4103775 -1.5238342zm-0.09440613 8.121582l1.8404922 -0.4963684l0.49570465 1.8406677l-1.8404846 0.4963684q-1.0107574 0.27261353 -1.726799 0.07733154q-0.7311325 -0.19122314 -1.2702408 -0.8711548l0.57205963 -0.639801q0.34934998 0.45602417 0.8518524 0.57943726q0.50250244 0.12338257 1.3252716 -0.06613159l-0.24785614 -0.9203491zm5.0049667 2.9020386l1.6292877 -0.4394226l1.3327255 4.9486694l-1.6292877 0.4394226l-1.3327255 -4.9486694z" fill-rule="nonzero"></path><path fill="#000000" fill-opacity="0.0" d="m307.94366 487.22534l0 0c4.9575195 8.263245 2.9160156 18.932007 -4.7419434 24.78125c-7.6579895 5.849243 -18.487976 5.011963 -25.155823 -1.9449158c-6.6678467 -6.9568787 -7.045166 -17.812653 -0.8764038 -25.215668l14.542175 12.117615z" fill-rule="nonzero"></path><path fill="#000000" fill-opacity="0.0" d="m307.94366 487.22534l0 0c4.9575195 8.263245 2.9160156 18.932007 -4.7419434 24.78125c-7.6579895 5.849243 -18.487976 5.011963 -25.155823 -1.9449158c-6.6678467 -6.9568787 -7.045166 -17.812653 -0.8764038 -25.215668" fill-rule="nonzero"></path><path stroke="#000000" stroke-width="2.0" stroke-linejoin="round" stroke-linecap="butt" d="m310.60785 495.82193l0.004058838 0.059265137c0.0079956055 0.1416626 0.014434814 0.28326416 0.019256592 0.42486572c0.009643555 0.28326416 0.012939453 0.56640625 0.009887695 0.84924316c-0.012145996 1.1314392 -0.12557983 2.2581177 -0.33755493 3.3659363c-0.8479309 4.4312134 -3.2727966 8.56073 -7.101776 11.485352c-7.6579895 5.849243 -18.487976 5.011963 -25.155823 -1.9449158c-6.6678467 -6.956909 -7.045166 -17.812622 -0.8764343 -25.215668" fill-rule="evenodd"></path><path fill="#000000" stroke="#000000" stroke-width="2.0" stroke-linecap="butt" d="m312.7203 495.16727l-3.9111328 -5.1492004l-0.31375122 6.458557z" fill-rule="evenodd"></path><path fill="#000000" fill-opacity="0.0" d="m219.71167 504.48557l144.0 0l0 47.99997l-144.0 0z" fill-rule="nonzero"></path><path fill="#000000" d="m288.6753 523.5402l0.421875 -1.3125q1.484375 0.515625 2.140625 0.90625q-0.171875 -1.6875 -0.171875 -2.3125l1.34375 0q-0.03125 0.90625 -0.21875 2.296875q0.953125 -0.484375 2.1875 -0.890625l0.421875 1.3125q-1.171875 0.390625 -2.296875 0.53125q0.5625 0.484375 1.59375 1.75l-1.109375 0.78125q-0.546875 -0.734375 -1.28125 -1.984375q-0.6875 1.296875 -1.203125 1.984375l-1.09375 -0.78125q1.078125 -1.328125 1.53125 -1.75q-1.1875 -0.234375 -2.265625 -0.53125z" fill-rule="nonzero"></path><path fill="#000000" fill-opacity="0.0" d="m379.71652 376.46588l144.00003 0l0 48.0l-144.00003 0z" fill-rule="nonzero"></path><path fill="#000000" d="m448.68015 395.52057l0.421875 -1.3125q1.484375 0.515625 2.140625 0.90625q-0.171875 -1.6875 -0.171875 -2.3125l1.34375 0q-0.03125 0.90625 -0.21875 2.296875q0.953125 -0.484375 2.1875 -0.890625l0.421875 1.3125q-1.171875 0.390625 -2.296875 0.53125q0.5625 0.484375 1.59375 1.75l-1.109375 0.78125q-0.546875 -0.734375 -1.28125 -1.984375q-0.6875 1.296875 -1.203125 1.984375l-1.09375 -0.78125q1.078125 -1.328125 1.53125 -1.75q-1.1875 -0.234375 -2.265625 -0.53125z" fill-rule="nonzero"></path><path fill="#000000" fill-opacity="0.0" d="m38.10216 120.34646l129.5748 62.83465l-20.944885 43.18109l-129.5748 -62.83464z" fill-rule="nonzero"></path><path fill="#000000" d="m61.628693 162.8262l1.6229324 -3.3459167l-3.3320198 -1.615799l0.68190384 -1.4058533l3.3320198 1.615799l1.616108 -3.3318634l1.4199753 0.6885834l-1.6161118 3.3318634l3.3179626 1.6089783l-0.68190765 1.4058533l-3.317955 -1.6089783l-1.6229324 3.3459167l-1.4199753 -0.6885834zm6.071991 5.39299l0.83192444 -1.7151337l1.71521 0.8317566l-0.8319168 1.7151337q-0.45687866 0.94192505 -1.0738754 1.3546906q-0.6238251 0.4268341 -1.49086 0.38841248l-0.10809326 -0.85121155q0.5734787 0.034973145 0.99617004 -0.2636261q0.42269897 -0.2986145 0.819046 -1.0441437l-0.857605 -0.4158783zm5.473549 -1.8780518l0.7364578 -1.5183105l4.611397 2.236206l-0.7364578 1.5183105l-4.611397 -2.236206zm4.780388 6.8504944l0.83192444 -1.7151489l1.7152176 0.8317566l-0.83192444 1.7151489q-0.45687866 0.9419098 -1.0738754 1.3546906q-0.62381744 0.4268341 -1.4908524 0.38841248l-0.10810089 -0.8512268q0.5734787 0.034988403 0.9961777 -0.2636261q0.42269897 -0.2986145 0.8190384 -1.0441284l-0.857605 -0.4158783zm4.63575 2.248001l3.730011 -7.6900024l-1.3356247 -0.64767456l0.5727997 -1.1809082l1.3356247 0.64767456l0.45687866 -0.94192505q0.42959595 -0.88568115 0.79563904 -1.2464905q0.49728394 -0.48820496 1.2160645 -0.57377625q0.7256012 -0.099624634 1.7097473 0.37760925q0.6326599 0.3067932 1.3377228 0.8223572l-0.8659363 1.2124176q-0.42303467 -0.30934143 -0.8448105 -0.51387024q-0.6889038 -0.33406067 -1.1132812 -0.17518616q-0.4175644 0.14482117 -0.8062515 0.94615173l-0.39550018 0.8153839l1.7292709 0.8385773l-0.5727997 1.1809235l-1.7292709 -0.8385773l-3.7300186 7.689987l-1.4902649 -0.7226715zm4.6919785 2.2752838l0.83192444 -1.7151337l1.71521 0.8317566l-0.8319168 1.7151337q-0.45687866 0.94192505 -1.0738754 1.3546906q-0.6238251 0.4268341 -1.49086 0.38841248l-0.10809326 -0.85121155q0.57347107 0.034973145 0.99617004 -0.26364136q0.42269897 -0.29859924 0.819046 -1.0441284l-0.857605 -0.4158783zm4.551384 2.2071075l5.932564 -12.230896l8.252724 4.0019836l-0.6955414 1.43396l-6.6359177 -3.2179413l-1.8411407 3.7957916l5.7361298 2.7816162l-0.70236206 1.4480286l-5.7361298 -2.7816162l-2.6935196 5.5531006l-1.616806 -0.7840271zm10.366417 5.0269775l0.8319168 -1.7151489l1.7152176 0.83177185l-0.83192444 1.7151337q-0.45687103 0.9419098 -1.0738754 1.3546906q-0.62381744 0.4268341 -1.4908524 0.38841248l-0.10810089 -0.85121155q0.5734787 0.034973145 0.9961777 -0.26364136q0.42269897 -0.2986145 0.819046 -1.0441284l-0.857605 -0.4158783zm4.2420883 2.0571136l5.932556 -12.230896l1.5043335 0.7294922l-5.932564 12.230896l-1.5043259 -0.7294922zm4.151222 2.0130463l0.83192444 -1.7151337l1.71521 0.8317566l-0.8319168 1.7151337q-0.45687866 0.94192505 -1.0738754 1.3546906q-0.6238251 0.4268341 -1.49086 0.38841248l-0.10809326 -0.85121155q0.57347107 0.034973145 0.99617004 -0.2636261q0.42269897 -0.2986145 0.819046 -1.0441437l-0.857605 -0.4158783zm4.396736 2.1321106l5.932564 -12.230896l1.6167984 0.7840271l-5.2302017 10.782867l6.0313797 2.9248047l-0.70236206 1.4480133l-7.648178 -3.7088165z" fill-rule="nonzero"></path><path fill="#000000" fill-opacity="0.0" d="m197.62709 324.19812l80.50395 119.40158l-36.56694 24.661407l-80.50394 -119.40158z" fill-rule="nonzero"></path><path fill="#000000" d="m186.0833 353.6103l3.0831146 -2.0793152l-2.0701752 -3.0704346l1.2954254 -0.8736572l2.0701752 3.0704346l3.07016 -2.0705566l0.8822174 1.3084717l-3.07016 2.0705872l2.0614471 3.0574646l-1.2954254 0.8736572l-2.0614471 -3.0574646l-3.0830994 2.0793152l-0.88223267 -1.3085022zm2.5433197 7.713135l1.5804291 -1.0658569l1.0656433 1.5805664l-1.5804138 1.0658569q-0.8679352 0.58535767 -1.6086884 0.6326294q-0.75372314 0.055999756 -1.4841919 -0.4125061l0.33384705 -0.79055786q0.47834778 0.31817627 0.9937744 0.27209473q0.51542664 -0.046081543 1.2324371 -0.49194336l-0.5328369 -0.7902832zm5.675995 1.1235657l1.3990631 -0.943573l2.865036 4.2493896l-1.3990479 0.9435425l-2.8650513 -4.249359zm0.6947479 8.325378l1.5804138 -1.0658569l1.0656586 1.5805359l-1.5804291 1.0658569q-0.8679199 0.58535767 -1.6086884 0.6326294q-0.75372314 0.056030273 -1.4841919 -0.4125061l0.33384705 -0.79055786q0.47834778 0.31817627 0.9937744 0.27212524q0.5154419 -0.046081543 1.2324371 -0.49194336l-0.53282166 -0.7902832zm2.8801575 4.2717896l7.0859833 -4.7789l-0.8298187 -1.2307739l1.0881653 -0.7338867l0.82980347 1.2307739l0.8679352 -0.58535767q0.81611633 -0.5503845 1.3137817 -0.67871094q0.67510986 -0.17260742 1.3396301 0.114227295q0.677475 0.2781067 1.2889099 1.1849976q0.3930664 0.5829773 0.74394226 1.382904l-1.3574524 0.61395264q-0.21052551 -0.47994995 -0.47257996 -0.8686218q-0.42800903 -0.63479614 -0.8747406 -0.7104492q-0.43377686 -0.0843811 -1.1721802 0.41360474l-0.7513428 0.50671387l1.0743866 1.5935364l-1.08815 0.7338562l-1.0743866 -1.5935059l-7.0859833 4.7789307l-0.9259033 -1.373291zm2.9151154 4.323639l1.5804138 -1.0658875l1.0656586 1.5805664l-1.5804138 1.0658569q-0.8679352 0.58535767 -1.6087036 0.6326294q-0.7537079 0.055999756 -1.4841766 -0.4125061l0.33384705 -0.79055786q0.47833252 0.31817627 0.9937744 0.27209473q0.51542664 -0.046051025 1.2324219 -0.49194336l-0.53282166 -0.7902527zm2.8277588 4.1940613l11.270203 -7.60083l5.1273804 7.6047974l-1.3213348 0.8911438l-4.122864 -6.1149597l-3.4976501 2.3588867l3.5638275 5.285797l-1.3342743 0.8998718l-3.5638428 -5.285797l-5.116928 3.4509583l-1.0045166 -1.4898682zm6.440613 9.552551l1.5804138 -1.0658569l1.0656586 1.5805664l-1.5804138 1.0658569q-0.8679352 0.58535767 -1.6087036 0.6326294q-0.7537079 0.055999756 -1.4841919 -0.41253662l0.3338623 -0.79052734q0.47833252 0.31817627 0.9937744 0.27209473q0.51542664 -0.046081543 1.2324219 -0.49194336l-0.53282166 -0.7902832zm2.6355896 3.9090576l11.270203 -7.60083l0.93463135 1.3862305l-11.270203 7.60083l-0.93463135 -1.3862305zm2.5791473 3.8253174l1.5804138 -1.0658569l1.0656586 1.5805664l-1.5804291 1.0658569q-0.8679199 0.58535767 -1.6086884 0.6326294q-0.75372314 0.055999756 -1.4841919 -0.41253662l0.33384705 -0.79052734q0.47834778 0.31817627 0.9937744 0.27209473q0.5154419 -0.046081543 1.2324371 -0.49194336l-0.53282166 -0.7902832zm2.7316742 4.0515747l11.270203 -7.6008606l1.0045013 1.4898987l-9.935913 6.7009583l3.7472687 5.5578613l-1.3342743 0.8998718l-4.7517853 -7.0477295zm5.966324 8.849121l1.5804291 -1.0658569l1.0656586 1.5805359l-1.5804291 1.0658875q-0.8679352 0.58532715 -1.6086884 0.6325989q-0.75372314 0.056030273 -1.4841919 -0.4125061l0.33384705 -0.79055786q0.47834778 0.31817627 0.9937744 0.27212524q0.5154419 -0.046081543 1.2324371 -0.49194336l-0.5328369 -0.7902832zm9.056259 7.758148l0.77948 1.5474243q-1.4707184 0.5018616 -2.7904205 0.05380249q-1.2980194 -0.44384766 -2.2588654 -1.868927q-1.2054138 -1.7878418 -0.8118286 -3.579834q0.3935852 -1.7919922 2.3885345 -3.1374512q2.0597382 -1.3890991 3.9072266 -1.108551q1.856247 0.29351807 3.0005188 1.9906921q1.1093292 1.6453247 0.694046 3.4331055q-0.41526794 1.7877808 -2.4490814 3.1594238q-0.11659241 0.0786438 -0.37145996 0.23165894l-4.1053925 -6.08902q-1.2948456 0.9863281 -1.5443726 2.153473q-0.24954224 1.1671448 0.44052124 2.1906433q0.5066223 0.7514038 1.2533875 1.0204773q0.7684479 0.2732849 1.8677063 0.0030822754zm-0.8248596 -6.058777l3.0746765 4.5603027q0.96224976 -0.7808838 1.1921539 -1.5578613q0.35769653 -1.2023926 -0.35856628 -2.26474q-0.63764954 -0.94573975 -1.7308502 -1.1696472q-1.0715027 -0.21966553 -2.177414 0.4319458zm0.46661377 11.201324l1.5804291 -1.0658875l1.0656433 1.5805664l-1.5804138 1.0658569q-0.8679352 0.58535767 -1.6086884 0.6326294q-0.75372314 0.055999756 -1.4841919 -0.4125061l0.33384705 -0.79055786q0.47834778 0.31817627 0.9937744 0.27209473q0.51542664 -0.046081543 1.2324371 -0.49194336l-0.5328369 -0.7902527zm2.7928314 4.1422424l11.270187 -7.60083l5.5029907 8.161896l-1.3213348 0.8911133l-4.498474 -6.6720276l-3.458786 2.332672l4.2102203 6.244507l-1.3213348 0.8911438l-4.2102203 -6.244507l-3.8344574 2.586029l4.673172 6.931122l-1.3342896 0.8998718l-5.6776733 -8.42099zm7.0611877 10.472992l1.5804138 -1.0658875l1.0656586 1.5805664l-1.5804138 1.0658569q-0.8679352 0.58535767 -1.6087036 0.6326294q-0.7537079 0.055999756 -1.4841919 -0.4125061l0.33384705 -0.79055786q0.47834778 0.31817627 0.9937897 0.27209473q0.51542664 -0.046051025 1.2324219 -0.49191284l-0.53282166 -0.7902832zm2.9151 4.3236084l1.5804291 -1.0658569l1.0656586 1.5805664l-1.5804291 1.0658569l-1.0656586 -1.5805664z" fill-rule="nonzero"></path><path fill="#000000" fill-opacity="0.0" d="m271.20255 300.5305l35.8425 139.46457l-46.48819 11.968506l-35.842514 -139.46457z" fill-rule="nonzero"></path><path fill="#000000" d="m256.27368 363.63367l1.8460388 -0.47525024l0.4744873 1.8462524l-1.8460388 0.47525024l-0.4744873 -1.8462524zm1.2824097 4.9898987l1.8460388 -0.47525024l0.4744873 1.8462524l-1.8460388 0.47525024q-1.0138245 0.26101685 -1.7275391 0.057556152q-0.72888184 -0.19958496 -1.2601318 -0.88568115l0.5793762 -0.6332092q0.34407043 0.45999146 0.8451233 0.58917236q0.5010376 0.12915039 1.3259277 -0.050964355l-0.23724365 -0.9231262zm4.189911 7.452118l3.6013184 -0.92715454l-0.9217529 -3.5865784l1.5131531 -0.38955688l0.9217529 3.5865784l3.5861816 -0.9232788l0.39282227 1.5284424l-3.5861816 0.9232788l0.9178772 3.5714417l-1.5131836 0.38955688l-0.9178467 -3.5714417l-3.6013184 0.92718506l-0.39282227 -1.5284729zm-0.1878357 8.120117l1.8460388 -0.47528076l0.4744873 1.8462524l-1.8460388 0.47528076q-1.0138245 0.26098633 -1.7275696 0.057525635q-0.7288513 -0.19958496 -1.2601013 -0.88568115l0.5793762 -0.6331787q0.3440857 0.45999146 0.8451233 0.58914185q0.5010376 0.12915039 1.3259277 -0.050933838l-0.23724365 -0.9231262zm4.971161 2.959198l1.6342163 -0.42074585l1.2756653 4.9637146l-1.6342163 0.42071533l-1.2756653 -4.963684z" fill-rule="nonzero"></path><path fill="#000000" fill-opacity="0.0" d="m315.15222 393.4163l63.212616 -129.35431l43.118103 21.070862l-63.212616 129.35431z" fill-rule="nonzero"></path><path fill="#000000" d="m356.03482 378.44855l-7.679016 -3.7525635l-0.6517029 1.3336487l-1.1792297 -0.5762634l0.6517029 -1.3336487l-0.94055176 -0.45965576q-0.88442993 -0.43218994 -1.2441711 -0.7992859q-0.48669434 -0.49868774 -0.5700989 -1.2177124q-0.09744263 -0.7258606 0.38275146 -1.7085571q0.30871582 -0.63171387 0.826416 -1.3352356l1.2098389 0.8694763q-0.3106079 0.42211914 -0.51641846 0.8432617q-0.33615112 0.6878967 -0.17855835 1.1127319q0.1435852 0.41796875 0.9437561 0.8089905l0.8142395 0.3979187l0.84381104 -1.7267456l1.1792297 0.5762634l-0.84381104 1.7267456l7.679016 3.7525635l-0.72720337 1.4880676zm2.2894897 -4.6850586l-1.712677 -0.8369751l0.8369446 -1.712677l1.7127075 0.8369446q0.94055176 0.45965576 1.3515015 1.0778503q0.42495728 0.6250305 0.38394165 1.4919128l-0.851593 0.10559082q0.036712646 -0.57333374 -0.26062012 -0.9969177q-0.29736328 -0.42355347 -1.0417175 -0.8220825l-0.41848755 0.85635376zm2.2208862 -4.5446777l-12.213409 -5.968445l4.0269775 -8.24057l1.4319153 0.69976807l-3.2380676 6.626129l3.7903748 1.8522644l2.7990112 -5.727661l1.4459534 0.706604l-2.7989807 5.727661l5.545166 2.7098083l-0.7889404 1.6144409zm5.05838 -10.351135l-1.712677 -0.8369751l0.8369446 -1.712677l1.712677 0.8369446q0.9405823 0.45965576 1.3515015 1.0778503q0.4249878 0.6250305 0.38394165 1.4919434l-0.8515625 0.1055603q0.036712646 -0.57333374 -0.26065063 -0.9969177q-0.29733276 -0.42355347 -1.041687 -0.8220825l-0.41848755 0.85635376zm2.0699463 -4.23584l-12.213409 -5.968445l0.7340393 -1.5021057l12.21344 5.968445l-0.7340698 1.5021057zm2.0256348 -4.145111l-1.712677 -0.8369446l0.8369446 -1.7127075l1.712677 0.8369751q0.9405823 0.45962524 1.3515015 1.0778198q0.4249878 0.62506104 0.38394165 1.4919434l-0.8515625 0.10559082q0.036712646 -0.57336426 -0.26065063 -0.9969177q-0.29736328 -0.42358398 -1.0417175 -0.82211304l-0.41845703 0.85635376zm2.1454163 -4.390259l-12.21344 -5.968445l0.7889404 -1.6144104l10.767487 5.261841l2.9430542 -6.0224915l1.4459534 0.706604l-3.7319946 7.636902zm4.6858826 -9.588898l-1.712677 -0.8369446l0.8369446 -1.712677l1.712677 0.8369446q0.9405823 0.45962524 1.3515015 1.0778198q0.4249878 0.62506104 0.38394165 1.4919434l-0.8515625 0.10559082q0.036712646 -0.57336426 -0.26065063 -0.9969177q-0.29733276 -0.42355347 -1.041687 -0.8220825l-0.41848755 0.85632324zm1.6478271 -8.389832l-3.341156 -1.6327515l-1.625885 3.3270874l-1.4038391 -0.68600464l1.625885 -3.327118l-3.327118 -1.625885l0.6929016 -1.4178772l3.3270874 1.625885l1.6190491 -3.3130798l1.4038391 0.68603516l-1.6190186 3.3130798l3.3411255 1.632721l-0.6928711 1.4179077zm5.411438 -6.0558167l-1.712677 -0.8369446l0.8369446 -1.7127075l1.7127075 0.8369751q0.94055176 0.45962524 1.3515015 1.0778198q0.42495728 0.62506104 0.38391113 1.4919434l-0.8515625 0.1055603q0.036712646 -0.57333374 -0.26065063 -0.9968872q-0.29733276 -0.42358398 -1.041687 -0.82211304l-0.41848755 0.85635376zm-1.8616028 -5.478882l-1.5161743 -0.74090576l2.250183 -4.6045837l1.5161438 0.74090576l-2.2501526 4.6045837zm6.865082 -4.7599487l-1.712677 -0.8369446l0.8369446 -1.712677l1.7127075 0.8369446q0.9405823 0.45962524 1.3515015 1.0778198q0.42495728 0.62506104 0.38394165 1.4919434l-0.851593 0.10559082q0.036712646 -0.57336426 -0.26062012 -0.9969177q-0.29736328 -0.42355347 -1.0417175 -0.82211304l-0.41848755 0.85635376zm2.2894897 -4.6850586l-1.712677 -0.8369446l0.8369446 -1.7127075l1.7127075 0.8369751l-0.8369751 1.712677z" fill-rule="nonzero"></path><path fill="#000000" fill-opacity="0.0" d="m416.63516 62.805775l144.00003 0l0 48.000004l-144.00003 0z" fill-rule="nonzero"></path><path fill="#000000" d="m460.47906 90.76671l0 -3.71875l-3.703125 0l0 -1.5625l3.703125 0l0 -3.703125l1.578125 0l0 3.703125l3.6875 0l0 1.5625l-3.6875 0l0 3.71875l-1.578125 0zm7.8168335 2.203125l0 -1.90625l1.90625 0l0 1.90625q0 1.046875 -0.375 1.6875q-0.375 0.65625 -1.171875 1.0l-0.46875 -0.71875q0.53125 -0.21875 0.78125 -0.671875q0.25 -0.453125 0.28125 -1.296875l-0.953125 0zm4.105194 -4.078125l0 -1.6875l5.125 0l0 1.6875l-5.125 0zm7.290802 4.078125l0 -1.90625l1.90625 0l0 1.90625q0 1.046875 -0.375 1.6875q-0.375 0.65625 -1.171875 1.0l-0.46875 -0.71875q0.53125 -0.21875 0.78125 -0.671875q0.25 -0.453125 0.28125 -1.296875l-0.953125 0zm5.2145386 0l0 -1.90625l1.90625 0l0 1.90625l-1.90625 0zm5.152069 0l0 -1.90625l1.90625 0l0 1.90625q0 1.046875 -0.375 1.6875q-0.375 0.65625 -1.171875 1.0l-0.46875 -0.71875q0.53125 -0.21875 0.78125 -0.671875q0.25 -0.453125 0.28125 -1.296875l-0.953125 0zm11.495789 -3.171875l1.71875 0.21875q-0.40625 1.5 -1.515625 2.34375q-1.09375 0.828125 -2.8125 0.828125q-2.15625 0 -3.421875 -1.328125q-1.265625 -1.328125 -1.265625 -3.734375q0 -2.484375 1.265625 -3.859375q1.28125 -1.375 3.328125 -1.375q1.984375 0 3.234375 1.34375q1.25 1.34375 1.25 3.796875q0 0.140625 -0.015625 0.4375l-7.34375 0q0.09375 1.625 0.921875 2.484375q0.828125 0.859375 2.0625 0.859375q0.90625 0 1.546875 -0.46875q0.65625 -0.484375 1.046875 -1.546875zm-5.484375 -2.703125l5.5 0q-0.109375 -1.234375 -0.625 -1.859375q-0.796875 -0.96875 -2.078125 -0.96875q-1.140625 0 -1.9375 0.78125q-0.78125 0.765625 -0.859375 2.046875zm9.547607 5.875l0 -1.90625l1.90625 0l0 1.90625q0 1.046875 -0.375 1.6875q-0.375 0.65625 -1.171875 1.0l-0.46875 -0.71875q0.53125 -0.21875 0.78125 -0.671875q0.25 -0.453125 0.28125 -1.296875l-0.953125 0zm4.9957886 0l0 -13.59375l9.8437805 0l0 1.59375l-8.046875 0l0 4.171875l7.53125 0l0 1.59375l-7.53125 0l0 4.625l8.359375 0l0 1.609375l-10.1562805 0z" fill-rule="nonzero"></path><path fill="#000000" fill-opacity="0.0" d="m219.71167 442.23917l144.0 0l0 48.0l-144.0 0z" fill-rule="nonzero"></path><path fill="#000000" d="m281.1614 468.02823l1.6875 -0.140625q0.125 1.015625 0.5625 1.671875q0.4375 0.65625 1.359375 1.0625q0.9375 0.40625 2.09375 0.40625q1.03125 0 1.8125 -0.3125q0.796875 -0.3125 1.1875 -0.84375q0.390625 -0.53125 0.390625 -1.15625q0 -0.640625 -0.375 -1.109375q-0.375 -0.484375 -1.234375 -0.8125q-0.546875 -0.21875 -2.421875 -0.65625q-1.875 -0.453125 -2.625 -0.859375q-0.96875 -0.515625 -1.453125 -1.265625q-0.46875 -0.75 -0.46875 -1.6875q0 -1.03125 0.578125 -1.921875q0.59375 -0.90625 1.703125 -1.359375q1.125 -0.46875 2.5 -0.46875q1.515625 0 2.671875 0.484375q1.15625 0.484375 1.765625 1.4375q0.625 0.9375 0.671875 2.140625l-1.71875 0.125q-0.140625 -1.28125 -0.953125 -1.9375q-0.796875 -0.671875 -2.359375 -0.671875q-1.625 0 -2.375 0.609375q-0.75 0.59375 -0.75 1.4375q0 0.734375 0.53125 1.203125q0.515625 0.46875 2.703125 0.96875q2.203125 0.5 3.015625 0.875q1.1875 0.546875 1.75 1.390625q0.578125 0.828125 0.578125 1.921875q0 1.09375 -0.625 2.0625q-0.625 0.953125 -1.796875 1.484375q-1.15625 0.53125 -2.609375 0.53125q-1.84375 0 -3.09375 -0.53125q-1.25 -0.546875 -1.96875 -1.625q-0.703125 -1.078125 -0.734375 -2.453125zm12.365448 -2.328125q0 -2.421875 0.5 -3.890625q0.5 -1.46875 1.46875 -2.265625q0.984375 -0.796875 2.46875 -0.796875q1.09375 0 1.921875 0.4375q0.828125 0.4375 1.359375 1.28125q0.546875 0.828125 0.84375 2.015625q0.3125 1.1875 0.3125 3.21875q0 2.390625 -0.5 3.859375q-0.484375 1.46875 -1.46875 2.28125q-0.96875 0.796875 -2.46875 0.796875q-1.96875 0 -3.078125 -1.40625q-1.359375 -1.703125 -1.359375 -5.53125zm1.71875 0q0 3.34375 0.78125 4.453125q0.796875 1.109375 1.9375 1.109375q1.15625 0 1.9375 -1.109375q0.78125 -1.125 0.78125 -4.453125q0 -3.359375 -0.78125 -4.46875q-0.78125 -1.109375 -1.953125 -1.109375q-1.15625 0 -1.828125 0.984375q-0.875 1.234375 -0.875 4.59375z" fill-rule="nonzero"></path><path fill="#000000" fill-opacity="0.0" d="m-4.0140615 252.50427l144.0 0l0 48.0l-144.0 0z" fill-rule="nonzero"></path><path fill="#000000" d="m57.43567 278.29333l1.6875 -0.140625q0.125 1.015625 0.5625 1.671875q0.4375 0.65625 1.359375 1.0625q0.9375 0.40625 2.09375 0.40625q1.03125 0 1.8125 -0.3125q0.796875 -0.3125 1.1875 -0.84375q0.390625 -0.53125 0.390625 -1.15625q0 -0.640625 -0.375 -1.109375q-0.375 -0.484375 -1.234375 -0.8125q-0.546875 -0.21875 -2.421875 -0.65625q-1.875 -0.453125 -2.625 -0.859375q-0.96875 -0.515625 -1.453125 -1.265625q-0.46875 -0.75 -0.46875 -1.6875q0 -1.03125 0.578125 -1.921875q0.59375 -0.90625 1.703125 -1.359375q1.125 -0.46875 2.5 -0.46875q1.515625 0 2.671875 0.484375q1.15625 0.484375 1.765625 1.4375q0.625 0.9375 0.671875 2.140625l-1.71875 0.125q-0.140625 -1.28125 -0.953125 -1.9375q-0.796875 -0.671875 -2.359375 -0.671875q-1.625 0 -2.375 0.609375q-0.75 0.59375 -0.75 1.4375q0 0.734375 0.53125 1.203125q0.515625 0.46875 2.703125 0.96875q2.203125 0.5 3.015625 0.875q1.1875 0.546875 1.75 1.390625q0.578125 0.828125 0.578125 1.921875q0 1.09375 -0.625 2.0625q-0.625 0.953125 -1.796875 1.484375q-1.15625 0.53125 -2.609375 0.53125q-1.84375 0 -3.09375 -0.53125q-1.25 -0.546875 -1.96875 -1.625q-0.703125 -1.078125 -0.734375 -2.453125zm18.662323 4.375l-1.671875 0l0 -10.640625q-0.59375 0.578125 -1.578125 1.15625q-0.984375 0.5625 -1.765625 0.859375l0 -1.625q1.40625 -0.65625 2.453125 -1.59375q1.046875 -0.9375 1.484375 -1.8125l1.078125 0l0 13.65625z" fill-rule="nonzero"></path><path fill="#000000" fill-opacity="0.0" d="m101.68147 204.81923l144.0 0l0 48.0l-144.0 0z" fill-rule="nonzero"></path><path fill="#000000" d="m163.1312 230.60829l1.6875 -0.140625q0.125 1.015625 0.5625 1.671875q0.4375 0.65625 1.359375 1.0625q0.9375 0.40625 2.09375 0.40625q1.03125 0 1.8125 -0.3125q0.796875 -0.3125 1.1875 -0.84375q0.390625 -0.53125 0.390625 -1.15625q0 -0.640625 -0.375 -1.109375q-0.375 -0.484375 -1.234375 -0.8125q-0.546875 -0.21875 -2.421875 -0.65625q-1.875 -0.453125 -2.625 -0.859375q-0.96875 -0.515625 -1.453125 -1.265625q-0.46875 -0.75 -0.46875 -1.6875q0 -1.03125 0.578125 -1.921875q0.59375 -0.90625 1.703125 -1.359375q1.125 -0.46875 2.5 -0.46875q1.515625 0 2.671875 0.484375q1.15625 0.484375 1.765625 1.4375q0.625 0.9375 0.671875 2.140625l-1.71875 0.125q-0.140625 -1.28125 -0.953125 -1.9375q-0.796875 -0.671875 -2.359375 -0.671875q-1.625 0 -2.375 0.609375q-0.75 0.59375 -0.75 1.4375q0 0.734375 0.53125 1.203125q0.515625 0.46875 2.703125 0.96875q2.203125 0.5 3.015625 0.875q1.1875 0.546875 1.75 1.390625q0.578125 0.828125 0.578125 1.921875q0 1.09375 -0.625 2.0625q-0.625 0.953125 -1.796875 1.484375q-1.15625 0.53125 -2.609375 0.53125q-1.84375 0 -3.09375 -0.53125q-1.25 -0.546875 -1.96875 -1.625q-0.703125 -1.078125 -0.734375 -2.453125zm21.146698 2.765625l0 1.609375l-8.984375 0q-0.015625 -0.609375 0.1875 -1.15625q0.34375 -0.921875 1.09375 -1.8125q0.765625 -0.890625 2.1875 -2.0625q2.21875 -1.8125 3.0 -2.875q0.78125 -1.0625 0.78125 -2.015625q0 -0.984375 -0.71875 -1.671875q-0.703125 -0.6875 -1.84375 -0.6875q-1.203125 0 -1.9375 0.734375q-0.71875 0.71875 -0.71875 2.0l-1.71875 -0.171875q0.171875 -1.921875 1.328125 -2.921875q1.15625 -1.015625 3.09375 -1.015625q1.953125 0 3.09375 1.09375q1.140625 1.078125 1.140625 2.6875q0 0.8125 -0.34375 1.609375q-0.328125 0.78125 -1.109375 1.65625q-0.765625 0.859375 -2.5625 2.390625q-1.5 1.265625 -1.9375 1.71875q-0.421875 0.4375 -0.703125 0.890625l6.671875 0z" fill-rule="nonzero"></path><path fill="#000000" fill-opacity="0.0" d="m219.71167 235.11844l144.0 0l0 48.0l-144.0 0z" fill-rule="nonzero"></path><path fill="#000000" d="m281.1614 260.9075l1.6875 -0.140625q0.125 1.015625 0.5625 1.671875q0.4375 0.65625 1.359375 1.0625q0.9375 0.40625 2.09375 0.40625q1.03125 0 1.8125 -0.3125q0.796875 -0.3125 1.1875 -0.84375q0.390625 -0.53125 0.390625 -1.15625q0 -0.640625 -0.375 -1.109375q-0.375 -0.484375 -1.234375 -0.8125q-0.546875 -0.21875 -2.421875 -0.65625q-1.875 -0.453125 -2.625 -0.859375q-0.96875 -0.515625 -1.453125 -1.265625q-0.46875 -0.75 -0.46875 -1.6875q0 -1.03125 0.578125 -1.921875q0.59375 -0.90625 1.703125 -1.359375q1.125 -0.46875 2.5 -0.46875q1.515625 0 2.671875 0.484375q1.15625 0.484375 1.765625 1.4375q0.625 0.9375 0.671875 2.140625l-1.71875 0.125q-0.140625 -1.28125 -0.953125 -1.9375q-0.796875 -0.671875 -2.359375 -0.671875q-1.625 0 -2.375 0.609375q-0.75 0.59375 -0.75 1.4375q0 0.734375 0.53125 1.203125q0.515625 0.46875 2.703125 0.96875q2.203125 0.5 3.015625 0.875q1.1875 0.546875 1.75 1.390625q0.578125 0.828125 0.578125 1.921875q0 1.09375 -0.625 2.0625q-0.625 0.953125 -1.796875 1.484375q-1.15625 0.53125 -2.609375 0.53125q-1.84375 0 -3.09375 -0.53125q-1.25 -0.546875 -1.96875 -1.625q-0.703125 -1.078125 -0.734375 -2.453125zm17.724823 4.375l0 -3.25l-5.90625 0l0 -1.53125l6.21875 -8.8125l1.359375 0l0 8.8125l1.84375 0l0 1.53125l-1.84375 0l0 3.25l-1.671875 0zm0 -4.78125l0 -6.140625l-4.25 6.140625l4.25 0z" fill-rule="nonzero"></path><path fill="#000000" fill-opacity="0.0" d="m101.453094 300.1893l144.0 0l0 48.0l-144.0 0z" fill-rule="nonzero"></path><path fill="#000000" d="m162.90282 325.97836l1.6875 -0.140625q0.125 1.015625 0.5625 1.671875q0.4375 0.65625 1.359375 1.0625q0.9375 0.40625 2.09375 0.40625q1.03125 0 1.8125 -0.3125q0.796875 -0.3125 1.1875 -0.84375q0.390625 -0.53125 0.390625 -1.15625q0 -0.640625 -0.375 -1.109375q-0.375 -0.484375 -1.234375 -0.8125q-0.546875 -0.21875 -2.421875 -0.65625q-1.875 -0.453125 -2.625 -0.859375q-0.96875 -0.515625 -1.453125 -1.265625q-0.46875 -0.75 -0.46875 -1.6875q0 -1.03125 0.578125 -1.921875q0.59375 -0.90625 1.703125 -1.359375q1.125 -0.46875 2.5 -0.46875q1.515625 0 2.671875 0.484375q1.15625 0.484375 1.765625 1.4375q0.625 0.9375 0.671875 2.140625l-1.71875 0.125q-0.140625 -1.28125 -0.953125 -1.9375q-0.796875 -0.671875 -2.359375 -0.671875q-1.625 0 -2.375 0.609375q-0.75 0.59375 -0.75 1.4375q0 0.734375 0.53125 1.203125q0.515625 0.46875 2.703125 0.96875q2.203125 0.5 3.015625 0.875q1.1875 0.546875 1.75 1.390625q0.578125 0.828125 0.578125 1.921875q0 1.09375 -0.625 2.0625q-0.625 0.953125 -1.796875 1.484375q-1.15625 0.53125 -2.609375 0.53125q-1.84375 0 -3.09375 -0.53125q-1.25 -0.546875 -1.96875 -1.625q-0.703125 -1.078125 -0.734375 -2.453125zm12.381073 0.78125l1.671875 -0.21875q0.28125 1.421875 0.96875 2.046875q0.703125 0.625 1.6875 0.625q1.1875 0 2.0 -0.8125q0.8125 -0.828125 0.8125 -2.03125q0 -1.140625 -0.765625 -1.890625q-0.75 -0.75 -1.90625 -0.75q-0.46875 0 -1.171875 0.1875l0.1875 -1.46875q0.15625 0.015625 0.265625 0.015625q1.0625 0 1.90625 -0.546875q0.859375 -0.5625 0.859375 -1.71875q0 -0.921875 -0.625 -1.515625q-0.609375 -0.609375 -1.59375 -0.609375q-0.96875 0 -1.625 0.609375q-0.640625 0.609375 -0.828125 1.84375l-1.671875 -0.296875q0.296875 -1.6875 1.375 -2.609375q1.09375 -0.921875 2.71875 -0.921875q1.109375 0 2.046875 0.484375q0.9375 0.46875 1.421875 1.296875q0.5 0.828125 0.5 1.75q0 0.890625 -0.46875 1.609375q-0.46875 0.71875 -1.40625 1.15625q1.21875 0.265625 1.875 1.15625q0.671875 0.875 0.671875 2.1875q0 1.78125 -1.296875 3.015625q-1.296875 1.234375 -3.28125 1.234375q-1.796875 0 -2.984375 -1.0625q-1.171875 -1.0625 -1.34375 -2.765625z" fill-rule="nonzero"></path><path fill="#000000" fill-opacity="0.0" d="m220.72346 110.107895l143.99998 0l0 48.0l-143.99998 0z" fill-rule="nonzero"></path><path fill="#000000" d="m282.1732 135.89696l1.6875 -0.140625q0.125 1.015625 0.5625 1.671875q0.4375 0.65625 1.359375 1.0625q0.9375 0.40625 2.09375 0.40625q1.03125 0 1.8125 -0.3125q0.796875 -0.3125 1.1875 -0.84375q0.390625 -0.53125 0.390625 -1.15625q0 -0.640625 -0.375 -1.109375q-0.375 -0.484375 -1.234375 -0.8125q-0.546875 -0.21875 -2.421875 -0.65625q-1.875 -0.453125 -2.625 -0.859375q-0.96875 -0.515625 -1.453125 -1.265625q-0.46875 -0.75 -0.46875 -1.6875q0 -1.03125 0.578125 -1.921875q0.59375 -0.90625 1.703125 -1.359375q1.125 -0.46875 2.5 -0.46875q1.515625 0 2.671875 0.484375q1.15625 0.484375 1.765625 1.4375q0.625 0.9375 0.671875 2.140625l-1.71875 0.125q-0.140625 -1.28125 -0.953125 -1.9375q-0.796875 -0.671875 -2.359375 -0.671875q-1.625 0 -2.375 0.609375q-0.75 0.59375 -0.75 1.4375q0 0.734375 0.53125 1.203125q0.515625 0.46875 2.703125 0.96875q2.203125 0.5 3.015625 0.875q1.1875 0.546875 1.75 1.390625q0.578125 0.828125 0.578125 1.921875q0 1.09375 -0.625 2.0625q-0.625 0.953125 -1.796875 1.484375q-1.15625 0.53125 -2.609375 0.53125q-1.84375 0 -3.09375 -0.53125q-1.25 -0.546875 -1.96875 -1.625q-0.703125 -1.078125 -0.734375 -2.453125zm12.365448 0.8125l1.765625 -0.15625q0.1875 1.28125 0.890625 1.9375q0.71875 0.640625 1.71875 0.640625q1.203125 0 2.03125 -0.90625q0.84375 -0.90625 0.84375 -2.421875q0 -1.421875 -0.8125 -2.25q-0.796875 -0.828125 -2.09375 -0.828125q-0.796875 0 -1.453125 0.375q-0.640625 0.359375 -1.015625 0.953125l-1.578125 -0.203125l1.328125 -7.0l6.765625 0l0 1.609375l-5.4375 0l-0.734375 3.640625q1.234375 -0.84375 2.578125 -0.84375q1.78125 0 3.0 1.234375q1.234375 1.234375 1.234375 3.171875q0 1.84375 -1.078125 3.1875q-1.3125 1.65625 -3.578125 1.65625q-1.859375 0 -3.03125 -1.03125q-1.171875 -1.046875 -1.34375 -2.765625z" fill-rule="nonzero"></path><path fill="#000000" fill-opacity="0.0" d="m325.58704 204.81923l144.0 0l0 48.0l-144.0 0z" fill-rule="nonzero"></path><path fill="#000000" d="m387.03674 230.60829l1.6875 -0.140625q0.125 1.015625 0.5625 1.671875q0.4375 0.65625 1.359375 1.0625q0.9375 0.40625 2.09375 0.40625q1.03125 0 1.8125 -0.3125q0.796875 -0.3125 1.1875 -0.84375q0.390625 -0.53125 0.390625 -1.15625q0 -0.640625 -0.375 -1.109375q-0.375 -0.484375 -1.234375 -0.8125q-0.546875 -0.21875 -2.421875 -0.65625q-1.875 -0.453125 -2.625 -0.859375q-0.96875 -0.515625 -1.453125 -1.265625q-0.46875 -0.75 -0.46875 -1.6875q0 -1.03125 0.578125 -1.921875q0.59375 -0.90625 1.703125 -1.359375q1.125 -0.46875 2.5 -0.46875q1.515625 0 2.671875 0.484375q1.15625 0.484375 1.765625 1.4375q0.625 0.9375 0.671875 2.140625l-1.71875 0.125q-0.140625 -1.28125 -0.953125 -1.9375q-0.796875 -0.671875 -2.359375 -0.671875q-1.625 0 -2.375 0.609375q-0.75 0.59375 -0.75 1.4375q0 0.734375 0.53125 1.203125q0.515625 0.46875 2.703125 0.96875q2.203125 0.5 3.015625 0.875q1.1875 0.546875 1.75 1.390625q0.578125 0.828125 0.578125 1.921875q0 1.09375 -0.625 2.0625q-0.625 0.953125 -1.796875 1.484375q-1.15625 0.53125 -2.609375 0.53125q-1.84375 0 -3.09375 -0.53125q-1.25 -0.546875 -1.96875 -1.625q-0.703125 -1.078125 -0.734375 -2.453125zm21.037323 -5.890625l-1.65625 0.125q-0.21875 -0.984375 -0.640625 -1.421875q-0.671875 -0.71875 -1.65625 -0.71875q-0.8125 0 -1.40625 0.4375q-0.796875 0.578125 -1.25 1.6875q-0.453125 1.09375 -0.46875 3.140625q0.609375 -0.921875 1.46875 -1.359375q0.875 -0.453125 1.828125 -0.453125q1.671875 0 2.84375 1.234375q1.171875 1.234375 1.171875 3.171875q0 1.28125 -0.546875 2.390625q-0.546875 1.09375 -1.515625 1.6875q-0.96875 0.578125 -2.1875 0.578125q-2.09375 0 -3.40625 -1.53125q-1.3125 -1.546875 -1.3125 -5.0625q0 -3.953125 1.453125 -5.734375q1.265625 -1.5625 3.421875 -1.5625q1.609375 0 2.625 0.90625q1.03125 0.890625 1.234375 2.484375zm-6.8125 5.859375q0 0.859375 0.359375 1.65625q0.375 0.78125 1.03125 1.203125q0.65625 0.40625 1.375 0.40625q1.0625 0 1.8125 -0.84375q0.765625 -0.859375 0.765625 -2.328125q0 -1.40625 -0.75 -2.21875q-0.75 -0.8125 -1.890625 -0.8125q-1.125 0 -1.921875 0.8125q-0.78125 0.8125 -0.78125 2.125z" fill-rule="nonzero"></path><path fill="#000000" fill-opacity="0.0" d="m325.58704 110.107895l144.0 0l0 48.0l-144.0 0z" fill-rule="nonzero"></path><path fill="#000000" d="m387.03674 135.89696l1.6875 -0.140625q0.125 1.015625 0.5625 1.671875q0.4375 0.65625 1.359375 1.0625q0.9375 0.40625 2.09375 0.40625q1.03125 0 1.8125 -0.3125q0.796875 -0.3125 1.1875 -0.84375q0.390625 -0.53125 0.390625 -1.15625q0 -0.640625 -0.375 -1.109375q-0.375 -0.484375 -1.234375 -0.8125q-0.546875 -0.21875 -2.421875 -0.65625q-1.875 -0.453125 -2.625 -0.859375q-0.96875 -0.515625 -1.453125 -1.265625q-0.46875 -0.75 -0.46875 -1.6875q0 -1.03125 0.578125 -1.921875q0.59375 -0.90625 1.703125 -1.359375q1.125 -0.46875 2.5 -0.46875q1.515625 0 2.671875 0.484375q1.15625 0.484375 1.765625 1.4375q0.625 0.9375 0.671875 2.140625l-1.71875 0.125q-0.140625 -1.28125 -0.953125 -1.9375q-0.796875 -0.671875 -2.359375 -0.671875q-1.625 0 -2.375 0.609375q-0.75 0.59375 -0.75 1.4375q0 0.734375 0.53125 1.203125q0.515625 0.46875 2.703125 0.96875q2.203125 0.5 3.015625 0.875q1.1875 0.546875 1.75 1.390625q0.578125 0.828125 0.578125 1.921875q0 1.09375 -0.625 2.0625q-0.625 0.953125 -1.796875 1.484375q-1.15625 0.53125 -2.609375 0.53125q-1.84375 0 -3.09375 -0.53125q-1.25 -0.546875 -1.96875 -1.625q-0.703125 -1.078125 -0.734375 -2.453125zm12.490448 -7.4375l0 -1.609375l8.796875 0l0 1.296875q-1.296875 1.375 -2.578125 3.671875q-1.265625 2.296875 -1.96875 4.71875q-0.5 1.703125 -0.640625 3.734375l-1.71875 0q0.03125 -1.609375 0.625 -3.875q0.609375 -2.28125 1.734375 -4.390625q1.140625 -2.109375 2.40625 -3.546875l-6.65625 0z" fill-rule="nonzero"></path><path fill="#000000" fill-opacity="0.0" d="m411.74973 235.11844l143.99997 0l0 48.0l-143.99997 0z" fill-rule="nonzero"></path><path fill="#000000" d="m473.19943 260.9075l1.6875 -0.140625q0.125 1.015625 0.5625 1.671875q0.4375 0.65625 1.359375 1.0625q0.9375 0.40625 2.09375 0.40625q1.03125 0 1.8125 -0.3125q0.796875 -0.3125 1.1875 -0.84375q0.390625 -0.53125 0.390625 -1.15625q0 -0.640625 -0.375 -1.109375q-0.375 -0.484375 -1.234375 -0.8125q-0.546875 -0.21875 -2.421875 -0.65625q-1.875 -0.453125 -2.625 -0.859375q-0.96875 -0.515625 -1.453125 -1.265625q-0.46875 -0.75 -0.46875 -1.6875q0 -1.03125 0.578125 -1.921875q0.59375 -0.90625 1.703125 -1.359375q1.125 -0.46875 2.5 -0.46875q1.515625 0 2.671875 0.484375q1.15625 0.484375 1.765625 1.4375q0.625 0.9375 0.671875 2.140625l-1.71875 0.125q-0.140625 -1.28125 -0.953125 -1.9375q-0.796875 -0.671875 -2.359375 -0.671875q-1.625 0 -2.375 0.609375q-0.75 0.59375 -0.75 1.4375q0 0.734375 0.53125 1.203125q0.515625 0.46875 2.703125 0.96875q2.203125 0.5 3.015625 0.875q1.1875 0.546875 1.75 1.390625q0.578125 0.828125 0.578125 1.921875q0 1.09375 -0.625 2.0625q-0.625 0.953125 -1.796875 1.484375q-1.15625 0.53125 -2.609375 0.53125q-1.84375 0 -3.09375 -0.53125q-1.25 -0.546875 -1.96875 -1.625q-0.703125 -1.078125 -0.734375 -2.453125zm14.943573 -3.0q-1.046875 -0.375 -1.546875 -1.078125q-0.5 -0.71875 -0.5 -1.703125q0 -1.484375 1.0625 -2.484375q1.078125 -1.015625 2.84375 -1.015625q1.78125 0 2.859375 1.03125q1.09375 1.03125 1.09375 2.515625q0 0.953125 -0.5 1.65625q-0.484375 0.703125 -1.5 1.078125q1.25 0.40625 1.90625 1.3125q0.65625 0.90625 0.65625 2.171875q0 1.75 -1.234375 2.9375q-1.234375 1.1875 -3.25 1.1875q-2.015625 0 -3.25 -1.1875q-1.234375 -1.203125 -1.234375 -2.984375q0 -1.328125 0.671875 -2.21875q0.671875 -0.890625 1.921875 -1.21875zm-0.328125 -2.828125q0 0.96875 0.609375 1.578125q0.625 0.609375 1.625 0.609375q0.953125 0 1.5625 -0.609375q0.625 -0.609375 0.625 -1.484375q0 -0.921875 -0.640625 -1.546875q-0.625 -0.625 -1.578125 -0.625q-0.953125 0 -1.578125 0.609375q-0.625 0.609375 -0.625 1.46875zm-0.546875 6.28125q0 0.71875 0.328125 1.390625q0.34375 0.65625 1.015625 1.03125q0.671875 0.359375 1.4375 0.359375q1.203125 0 1.984375 -0.765625q0.78125 -0.78125 0.78125 -1.96875q0 -1.203125 -0.8125 -1.984375q-0.796875 -0.796875 -2.0 -0.796875q-1.1875 0 -1.96875 0.78125q-0.765625 0.78125 -0.765625 1.953125z" fill-rule="nonzero"></path></g></svg>

