<?xml version="1.0" standalone="yes"?>

<svg version="1.1" viewBox="0.0 0.0 778.0 288.0" fill="none" stroke="none" stroke-linecap="square" stroke-miterlimit="10" xmlns="http://www.w3.org/2000/svg" xmlns:xlink="http://www.w3.org/1999/xlink"><clipPath id="p.0"><path d="m0 0l778.0 0l0 288.0l-778.0 0l0 -288.0z" clip-rule="nonzero"></path></clipPath><g clip-path="url(#p.0)"><path fill="#000000" fill-opacity="0.0" d="m0 0l778.9475 0l0 288.17322l-778.9475 0z" fill-rule="nonzero"></path><path fill="#000000" fill-opacity="0.0" d="m17.724075 41.669292l49.85827 34.771656" fill-rule="nonzero"></path><path stroke="#000000" stroke-width="2.0" stroke-linejoin="round" stroke-linecap="butt" d="m17.724075 41.669292l40.015522 27.907223" fill-rule="evenodd"></path><path fill="#000000" stroke="#000000" stroke-width="2.0" stroke-linecap="butt" d="m55.8499 72.28611l9.334259 2.482315l-5.554859 -7.9015045z" fill-rule="evenodd"></path><path fill="#000000" fill-opacity="0.0" d="m54.595467 109.69477l0 0c0 -24.335312 19.727676 -44.06299 44.062996 -44.06299l0 0c11.686226 0 22.893822 4.642334 31.157242 12.905754c8.263412 8.263412 12.905746 19.471008 12.905746 31.157234l0 0c0 24.33532 -19.727676 44.062996 -44.06299 44.062996l0 0c-24.33532 0 -44.062996 -19.727676 -44.062996 -44.062996z" fill-rule="nonzero"></path><path stroke="#000000" stroke-width="2.0" stroke-linejoin="round" stroke-linecap="butt" d="m54.595467 109.69477l0 0c0 -24.335312 19.727676 -44.06299 44.062996 -44.06299l0 0c11.686226 0 22.893822 4.642334 31.157242 12.905754c8.263412 8.263412 12.905746 19.471008 12.905746 31.157234l0 0c0 24.33532 -19.727676 44.062996 -44.06299 44.062996l0 0c-24.33532 0 -44.062996 -19.727676 -44.062996 -44.062996z" fill-rule="nonzero"></path><path fill="#000000" fill-opacity="0.0" d="m245.29362 109.69477l0 0c0 -24.335312 19.727676 -44.06299 44.063004 -44.06299l0 0c11.686218 0 22.89383 4.642334 31.157227 12.905754c8.263428 8.263412 12.905762 19.471008 12.905762 31.157234l0 0c0 24.33532 -19.727661 44.062996 -44.06299 44.062996l0 0c-24.335327 0 -44.063004 -19.727676 -44.063004 -44.062996z" fill-rule="nonzero"></path><path stroke="#000000" stroke-width="2.0" stroke-linejoin="round" stroke-linecap="butt" d="m245.29362 109.69477l0 0c0 -24.335312 19.727676 -44.06299 44.063004 -44.06299l0 0c11.686218 0 22.89383 4.642334 31.157227 12.905754c8.263428 8.263412 12.905762 19.471008 12.905762 31.157234l0 0c0 24.33532 -19.727661 44.062996 -44.06299 44.062996l0 0c-24.335327 0 -44.063004 -19.727676 -44.063004 -44.062996z" fill-rule="nonzero"></path><path fill="#000000" fill-opacity="0.0" d="m115.804794 68.17217l0 0c20.056625 -18.384655 46.69156 -27.883976 73.855545 -26.340496c27.16397 1.5434761 52.551437 13.998749 70.39642 34.537l-76.1167 66.13526z" fill-rule="nonzero"></path><path fill="#000000" fill-opacity="0.0" d="m115.804794 68.17217l0 0c20.056625 -18.384655 46.69156 -27.883976 73.855545 -26.340496c27.16397 1.5434761 52.551437 13.998749 70.39642 34.537" fill-rule="nonzero"></path><path stroke="#000000" stroke-width="2.0" stroke-linejoin="round" stroke-linecap="butt" d="m115.80479 68.17217l0 0c20.056633 -18.384651 46.691566 -27.883972 73.85554 -26.340496c13.582001 0.77173615 26.719864 4.2714233 38.692856 10.145462c5.986496 2.9370155 11.681763 6.467621 16.995743 10.547611c2.6569672 2.0399933 5.218628 4.2173386 7.673691 6.526497c0.15344238 0.14432526 0.30647278 0.28916168 0.45907593 0.43450928l0.37487793 0.35931396" fill-rule="evenodd"></path><path fill="#000000" stroke="#000000" stroke-width="2.0" stroke-linecap="butt" d="m252.25354 71.36864l5.7890015 2.8807373l-2.5829315 -5.927864z" fill-rule="evenodd"></path><path fill="#000000" fill-opacity="0.0" d="m453.94193 109.69477l0 0c0 -24.335312 19.727661 -44.06299 44.06299 -44.06299l0 0c11.686249 0 22.89383 4.642334 31.157257 12.905754c8.263428 8.263412 12.905762 19.471008 12.905762 31.157234l0 0c0 24.33532 -19.727722 44.062996 -44.06302 44.062996l0 0c-24.335327 0 -44.06299 -19.727676 -44.06299 -44.062996z" fill-rule="nonzero"></path><path stroke="#000000" stroke-width="2.0" stroke-linejoin="round" stroke-linecap="butt" d="m453.94193 109.69477l0 0c0 -24.335312 19.727661 -44.06299 44.06299 -44.06299l0 0c11.686249 0 22.89383 4.642334 31.157257 12.905754c8.263428 8.263412 12.905762 19.471008 12.905762 31.157234l0 0c0 24.33532 -19.727722 44.062996 -44.06302 44.062996l0 0c-24.335327 0 -44.06299 -19.727676 -44.06299 -44.062996z" fill-rule="nonzero"></path><path fill="#000000" fill-opacity="0.0" d="m317.4741 74.18792l0 0c20.05661 -18.384651 46.69156 -27.883972 73.85553 -26.340496c27.16397 1.5434761 52.551453 13.998749 70.396454 34.537l-76.11673 66.13526z" fill-rule="nonzero"></path><path fill="#000000" fill-opacity="0.0" d="m317.4741 74.18792l0 0c20.05661 -18.384651 46.69156 -27.883972 73.85553 -26.340496c27.16397 1.5434761 52.551453 13.998749 70.396454 34.537" fill-rule="nonzero"></path><path stroke="#000000" stroke-width="2.0" stroke-linejoin="round" stroke-linecap="butt" d="m317.4741 74.18792l0 0c20.05664 -18.384651 46.69156 -27.883976 73.85556 -26.340492c13.58197 0.77173996 26.719818 4.2714195 38.69281 10.145458c5.9864807 2.9370155 11.681763 6.4676247 16.995758 10.547611c2.656952 2.0399933 5.218628 4.2173386 7.6736755 6.526497c1.2275085 1.1545868 2.4284363 2.342125 3.6012573 3.5619202l0.09814453 0.10270691" fill-rule="evenodd"></path><path fill="#000000" stroke="#000000" stroke-width="2.0" stroke-linecap="butt" d="m458.39127 78.73162l-1.6349182 -0.074401855l2.9983826 1.5679092l-1.2890625 -3.128418z" fill-rule="evenodd"></path><path fill="#000000" fill-opacity="0.0" d="m327.91507 131.09126l0 0c22.977509 16.76535 32.488403 46.457 23.528442 73.45261c-8.95993 26.99562 -34.337067 45.107803 -62.779175 44.806793c-28.442108 -0.30101013 -53.430237 -18.946213 -61.816833 -46.125412c-8.386597 -27.1792 1.7505493 -56.662903 25.077744 -72.9382l37.43138 53.649963z" fill-rule="nonzero"></path><path fill="#000000" fill-opacity="0.0" d="m327.91507 131.09126l0 0c22.977509 16.76535 32.488403 46.457 23.528442 73.45261c-8.95993 26.99562 -34.337067 45.107803 -62.779175 44.806793c-28.442108 -0.30101013 -53.430237 -18.946213 -61.816833 -46.125412c-8.386597 -27.1792 1.7505493 -56.662903 25.077744 -72.9382" fill-rule="nonzero"></path><path stroke="#000000" stroke-width="2.0" stroke-linejoin="round" stroke-linecap="butt" d="m331.79782 134.15526l0.26651 0.2271576c1.3296509 1.1450195 2.6054993 2.3367004 3.826294 3.5712585c2.4415894 2.469101 4.662964 5.109665 6.654419 7.8911896c3.9828491 5.563019 7.0458374 11.689835 9.110809 18.136353c4.1299133 12.893051 4.2676086 27.064865 -0.21231079 40.562668c-8.959961 26.995605 -34.337097 45.107788 -62.779205 44.806778c-28.442108 -0.30099487 -53.43022 -18.946213 -61.816833 -46.125412c-8.386612 -27.1792 1.7505493 -56.662903 25.077759 -72.9382" fill-rule="evenodd"></path><path fill="#000000" stroke="#000000" stroke-width="2.0" stroke-linecap="butt" d="m331.79782 134.15526l1.6253357 -0.1915741l-3.21286 -1.0611877l1.7790833 2.8781128z" fill-rule="evenodd"></path><path fill="#000000" fill-opacity="0.0" d="m654.6427 115.915245l0 0c0 -27.77079 22.540894 -50.283463 50.346497 -50.283463l0 0c13.352661 0 26.158508 5.2977066 35.60028 14.727684c9.4418335 9.429977 14.746155 22.21978 14.746155 35.55578l0 0c0 27.77079 -22.540894 50.28347 -50.346436 50.28347l0 0c-27.805603 0 -50.346497 -22.51268 -50.346497 -50.28347z" fill-rule="nonzero"></path><path stroke="#000000" stroke-width="2.0" stroke-linejoin="round" stroke-linecap="butt" d="m654.6427 115.915245l0 0c0 -27.77079 22.540894 -50.283463 50.346497 -50.283463l0 0c13.352661 0 26.158508 5.2977066 35.60028 14.727684c9.4418335 9.429977 14.746155 22.21978 14.746155 35.55578l0 0c0 27.77079 -22.540894 50.28347 -50.346436 50.28347l0 0c-27.805603 0 -50.346497 -22.51268 -50.346497 -50.28347z" fill-rule="nonzero"></path><path fill="#000000" fill-opacity="0.0" d="m524.3342 74.18792l0 0c39.47058 -36.180218 100.3363 -35.20203 138.6239 2.2278595l-70.48865 72.103905z" fill-rule="nonzero"></path><path fill="#000000" fill-opacity="0.0" d="m524.3342 74.18792l0 0c39.47058 -36.180218 100.3363 -35.20203 138.6239 2.2278595" fill-rule="nonzero"></path><path stroke="#000000" stroke-width="2.0" stroke-linejoin="round" stroke-linecap="butt" d="m524.33417 74.18792l0 0c19.73529 -18.09011 44.819397 -26.890614 69.755615 -26.48986c12.46814 0.20037842 24.899292 2.7010689 36.606384 7.4910355c5.8535156 2.394989 11.526062 5.3622856 16.931702 8.900528c2.7028198 1.7691193 5.338867 3.6809769 7.897522 5.7353897c1.2792969 1.0272064 2.5393066 2.0900574 3.7785034 3.18853l0.034851074 0.03125763" fill-rule="evenodd"></path><path fill="#000000" stroke="#000000" stroke-width="2.0" stroke-linecap="butt" d="m659.33875 73.0448l-1.6355591 0.058128357l3.1154175 1.3201447l-1.5380249 -3.0138474z" fill-rule="evenodd"></path><path fill="#000000" fill-opacity="0.0" d="m646.6427 115.915245l0 0c0 -32.189064 26.12262 -58.283463 58.346497 -58.283463l0 0c15.474426 0 30.315063 6.14056 41.25714 17.070831c10.942078 10.930267 17.089294 25.754898 17.089294 41.21263l0 0c0 32.189064 -26.12262 58.28347 -58.346436 58.28347l0 0c-32.223877 0 -58.346497 -26.094406 -58.346497 -58.28347z" fill-rule="nonzero"></path><path stroke="#000000" stroke-width="2.0" stroke-linejoin="round" stroke-linecap="butt" d="m646.6427 115.915245l0 0c0 -32.189064 26.12262 -58.283463 58.346497 -58.283463l0 0c15.474426 0 30.315063 6.14056 41.25714 17.070831c10.942078 10.930267 17.089294 25.754898 17.089294 41.21263l0 0c0 32.189064 -26.12262 58.28347 -58.346436 58.28347l0 0c-32.223877 0 -58.346497 -26.094406 -58.346497 -58.28347z" fill-rule="nonzero"></path><path fill="#000000" fill-opacity="0.0" d="m-2.1117363 -17.366978l120.25197 79.18111l-26.393707 40.09449l-120.25197 -79.18111z" fill-rule="nonzero"></path><path fill="#000000" d="m28.098589 33.40423l1.486721 0.8105736q-0.4540367 0.91706085 -0.44947243 1.7058067q0.0045642853 0.7887459 0.55113983 1.6350517q0.5596256 0.8549042 1.5253258 1.4907799q0.8613014 0.56713104 1.685627 0.7357559q0.83737564 0.17721558 1.4557343 -0.051696777q0.6183548 -0.22891235 0.9620056 -0.7509537q0.35224533 -0.5350914 0.29678726 -1.1328545q-0.046871185 -0.61081314 -0.5842018 -1.3574944q-0.33647156 -0.4834633 -1.6619148 -1.880043q-1.3168526 -1.4096298 -1.7198772 -2.161415q-0.5255852 -0.96344376 -0.5177517 -1.8562737q0.02088356 -0.8842373 0.5363636 -1.6672993q0.56702995 -0.8613682 1.5395832 -1.2873402q0.99419785 -0.43042946 2.169899 -0.19881439q1.1973381 0.2271595 2.3457413 0.9833336q1.2658501 0.83351326 1.9652176 1.87397q0.6993675 1.0404568 0.68424606 2.171692q0.0065231323 1.1267815 -0.61586 2.1574898l-1.5042305 -0.8408127q0.58703613 -1.147522 0.26927185 -2.142496q-0.2961197 -0.9994316 -1.60112 -1.8587227q-1.3572006 -0.8936615 -2.3186646 -0.7971306q-0.9528694 0.08347893 -1.4168015 0.7882347q-0.40379333 0.6133995 -0.21783447 1.2970905q0.1729126 0.6750965 1.724987 2.2957344q1.5651283 1.6292343 2.0375366 2.3892899q0.6911049 1.109848 0.6969719 2.1239471q0.027511597 1.0096436 -0.57388306 1.9232178q-0.60139465 0.9135704 -1.6560555 1.3790207q-1.0460739 0.4523964 -2.3169289 0.2516632q-1.2578049 -0.19213867 -2.4714565 -0.9912796q-1.5398998 -1.0139618 -2.2917938 -2.1451302q-0.7433052 -1.1442184 -0.750803 -2.440014q0.005552292 -1.2872047 0.7354908 -2.4528809zm12.1920185 11.470245l-0.6204262 1.3687439q-0.66456985 -0.26922226 -1.1343727 -0.5785675q-0.7569008 -0.49838638 -1.0198555 -1.0082779q-0.254364 -0.5229454 -0.17486572 -1.013134q0.08808899 -0.5032387 0.92144775 -1.7691879l3.1100655 -4.724476l-1.0309525 -0.67884064l0.7216759 -1.0962868l1.0309486 0.67884064l1.3402481 -2.0359612l1.9331474 0.0755806l-1.8900948 2.8712273l1.4094009 0.92803574l-0.72167206 1.0962868l-1.4094009 -0.92803574l-3.1616135 4.802784q-0.39519882 0.6003456 -0.44163895 0.81297684q-0.03338623 0.22121811 0.0675354 0.43733597q0.100917816 0.21611404 0.41411972 0.4223442q0.22184753 0.14608002 0.6563034 0.3386116zm6.4973564 4.614994q-1.2211609 0.15002823 -2.1193275 -0.048511505q-0.88957596 -0.211586 -1.7117271 -0.75294113q-1.3441505 -0.885067 -1.6453857 -2.0188217q-0.2926407 -1.1468086 0.38607407 -2.1778374q0.40379333 -0.6133995 1.0043144 -0.9288902q0.6005211 -0.3154869 1.2418213 -0.3235016q0.6413002 -0.008014679 1.3055458 0.20486832q0.49492264 0.15751266 1.3772125 0.6075058q1.8339615 0.90826416 2.8104324 1.1583595q0.1890068 -0.28712463 0.24055481 -0.36542892q0.55843735 -0.84832 0.3989029 -1.4584846q-0.22576141 -0.82214737 -1.2828102 -1.5181694q-0.97875214 -0.6444702 -1.6719284 -0.6144867q-0.69317245 0.02998352 -1.4992332 0.77137375l-1.2413826 -1.0980225q0.77136993 -0.74552536 1.5412178 -1.0056458q0.78289413 -0.25152588 1.767952 -0.014480591q1.0067024 0.2325859 2.0768013 0.93720245q1.0570526 0.69602585 1.5463142 1.373642q0.48926544 0.6776161 0.553318 1.2623253q0.06405258 0.58470917 -0.19651794 1.23629q-0.15366745 0.4039383 -0.763649 1.3305588l-1.2285614 1.8662987q-1.2801094 1.9446068 -1.5454636 2.5182037q-0.24371338 0.5691414 -0.27894974 1.219429l-1.4616013 -0.96240234q0.06166458 -0.57676697 0.3960762 -1.1984329zm1.927288 -3.1834831q-0.9545021 -0.19821548 -2.627407 -0.98171616q-0.9386215 -0.4496727 -1.3940659 -0.5250702q-0.45544815 -0.07539749 -0.84879684 0.09588623q-0.3933525 0.1712799 -0.63391113 0.53670883q-0.36942673 0.56119156 -0.20097351 1.2146454q0.19009018 0.64899445 0.9991913 1.1817551q0.8091011 0.5327606 1.667469 0.5928421q0.8669548 0.047031403 1.5623093 -0.35567856q0.53972626 -0.33681107 1.1411209 -1.2503815l0.33506393 -0.50899124zm0.67873764 6.358677l5.421131 -8.235207l1.2528 0.82492065l-0.82476807 1.2528992q1.0584717 -0.5564804 1.6434402 -0.56417465q0.59355927 -0.020740509 1.0894585 0.30578995q0.70470047 0.46401596 1.1348038 1.4020042l-1.3333931 0.9741173q-0.31134796 -0.6352997 -0.83335114 -0.97901535q-0.45674896 -0.30075073 -1.0025673 -0.26728058q-0.53276825 0.042064667 -1.0072479 0.42183685q-0.72460556 0.5892372 -1.308815 1.4767075l-2.8351402 4.306843l-1.3963509 -0.9194412zm9.080349 4.1830673l-0.62043 1.3687439q-0.66456985 -0.26922226 -1.1343689 -0.5785675q-0.7569008 -0.49838638 -1.0198593 -1.0082779q-0.254364 -0.5229416 -0.17486572 -1.0131302q0.088092804 -0.5032387 0.92145157 -1.7691917l3.1100616 -4.724476l-1.0309486 -0.6788368l0.72167206 -1.0962868l1.0309486 0.6788368l1.3402481 -2.0359612l1.9331474 0.0755806l-1.8900948 2.871231l1.4094009 0.9280319l-0.72167206 1.0962868l-1.4094009 -0.9280319l-3.1616096 4.80278q-0.39520264 0.6003494 -0.44163895 0.81297684q-0.033390045 0.22122192 0.067531586 0.43733597q0.100917816 0.21611786 0.41411972 0.42234802q0.22184753 0.1460762 0.6563072 0.3386078z" fill-rule="nonzero"></path><path fill="#000000" fill-opacity="0.0" d="m26.658459 85.69477l144.0 0l0 48.000008l-144.0 0z" fill-rule="nonzero"></path><path fill="#000000" d="m88.10819 111.48383l1.6875 -0.140625q0.125 1.015625 0.5625 1.671875q0.4375 0.65625 1.359375 1.0625q0.9375 0.40625 2.09375 0.40625q1.03125 0 1.8125 -0.3125q0.796875 -0.3125 1.1875 -0.84375q0.390625 -0.53125 0.390625 -1.15625q0 -0.640625 -0.375 -1.109375q-0.375 -0.484375 -1.234375 -0.8125q-0.546875 -0.21875 -2.421875 -0.65625q-1.875 -0.453125 -2.625 -0.859375q-0.96875 -0.515625 -1.453125 -1.265625q-0.46875 -0.75 -0.46875 -1.6875q0 -1.03125 0.578125 -1.921875q0.59375 -0.90625 1.703125 -1.359375q1.125 -0.46875 2.5 -0.46875q1.515625 0 2.671875 0.484375q1.15625 0.484375 1.765625 1.4375q0.625 0.9375 0.671875 2.140625l-1.71875 0.125q-0.140625 -1.28125 -0.953125 -1.9375q-0.796875 -0.671875 -2.359375 -0.671875q-1.625 0 -2.375 0.609375q-0.75 0.59375 -0.75 1.4375q0 0.734375 0.53125 1.203125q0.515625 0.46875 2.703125 0.96875q2.203125 0.5 3.015625 0.875q1.1875 0.546875 1.75 1.390625q0.578125 0.828125 0.578125 1.921875q0 1.09375 -0.625 2.0625q-0.625 0.953125 -1.796875 1.484375q-1.15625 0.53125 -2.609375 0.53125q-1.84375 0 -3.09375 -0.53125q-1.25 -0.546875 -1.96875 -1.625q-0.703125 -1.078125 -0.734375 -2.453125zm12.365448 -2.328125q0 -2.421875 0.5 -3.890625q0.5 -1.46875 1.46875 -2.265625q0.984375 -0.796875 2.46875 -0.796875q1.09375 0 1.921875 0.4375q0.828125 0.4375 1.359375 1.28125q0.546875 0.828125 0.84375 2.015625q0.3125 1.1875 0.3125 3.21875q0 2.390625 -0.5 3.859375q-0.484375 1.46875 -1.46875 2.28125q-0.96875 0.796875 -2.46875 0.796875q-1.96875 0 -3.078125 -1.40625q-1.359375 -1.703125 -1.359375 -5.53125zm1.71875 0q0 3.34375 0.78125 4.453125q0.796875 1.109375 1.9375 1.109375q1.15625 0 1.9375 -1.109375q0.78125 -1.125 0.78125 -4.453125q0 -3.359375 -0.78125 -4.46875q-0.78125 -1.109375 -1.953125 -1.109375q-1.15625 0 -1.828125 0.984375q-0.875 1.234375 -0.875 4.59375z" fill-rule="nonzero"></path><path fill="#000000" fill-opacity="0.0" d="m217.35663 85.69477l144.0 0l0 48.000008l-144.0 0z" fill-rule="nonzero"></path><path fill="#000000" d="m278.80637 111.48383l1.6875 -0.140625q0.125 1.015625 0.5625 1.671875q0.4375 0.65625 1.359375 1.0625q0.9375 0.40625 2.09375 0.40625q1.03125 0 1.8125 -0.3125q0.796875 -0.3125 1.1875 -0.84375q0.390625 -0.53125 0.390625 -1.15625q0 -0.640625 -0.375 -1.109375q-0.375 -0.484375 -1.234375 -0.8125q-0.546875 -0.21875 -2.421875 -0.65625q-1.875 -0.453125 -2.625 -0.859375q-0.96875 -0.515625 -1.453125 -1.265625q-0.46875 -0.75 -0.46875 -1.6875q0 -1.03125 0.578125 -1.921875q0.59375 -0.90625 1.703125 -1.359375q1.125 -0.46875 2.5 -0.46875q1.515625 0 2.671875 0.484375q1.15625 0.484375 1.765625 1.4375q0.625 0.9375 0.671875 2.140625l-1.71875 0.125q-0.140625 -1.28125 -0.953125 -1.9375q-0.796875 -0.671875 -2.359375 -0.671875q-1.625 0 -2.375 0.609375q-0.75 0.59375 -0.75 1.4375q0 0.734375 0.53125 1.203125q0.515625 0.46875 2.703125 0.96875q2.203125 0.5 3.015625 0.875q1.1875 0.546875 1.75 1.390625q0.578125 0.828125 0.578125 1.921875q0 1.09375 -0.625 2.0625q-0.625 0.953125 -1.796875 1.484375q-1.15625 0.53125 -2.609375 0.53125q-1.84375 0 -3.09375 -0.53125q-1.25 -0.546875 -1.96875 -1.625q-0.703125 -1.078125 -0.734375 -2.453125zm18.662323 4.375l-1.671875 0l0 -10.640625q-0.59375 0.578125 -1.578125 1.15625q-0.984375 0.5625 -1.765625 0.859375l0 -1.625q1.40625 -0.65625 2.453125 -1.59375q1.046875 -0.9375 1.484375 -1.8125l1.078125 0l0 13.65625z" fill-rule="nonzero"></path><path fill="#000000" fill-opacity="0.0" d="m426.0049 85.69477l144.00003 0l0 48.000008l-144.00003 0z" fill-rule="nonzero"></path><path fill="#000000" d="m487.45465 111.48383l1.6875 -0.140625q0.125 1.015625 0.5625 1.671875q0.4375 0.65625 1.359375 1.0625q0.9375 0.40625 2.09375 0.40625q1.03125 0 1.8125 -0.3125q0.796875 -0.3125 1.1875 -0.84375q0.390625 -0.53125 0.390625 -1.15625q0 -0.640625 -0.375 -1.109375q-0.375 -0.484375 -1.234375 -0.8125q-0.546875 -0.21875 -2.421875 -0.65625q-1.875 -0.453125 -2.625 -0.859375q-0.96875 -0.515625 -1.453125 -1.265625q-0.46875 -0.75 -0.46875 -1.6875q0 -1.03125 0.578125 -1.921875q0.59375 -0.90625 1.703125 -1.359375q1.125 -0.46875 2.5 -0.46875q1.515625 0 2.671875 0.484375q1.15625 0.484375 1.765625 1.4375q0.625 0.9375 0.671875 2.140625l-1.71875 0.125q-0.140625 -1.28125 -0.953125 -1.9375q-0.796875 -0.671875 -2.359375 -0.671875q-1.625 0 -2.375 0.609375q-0.75 0.59375 -0.75 1.4375q0 0.734375 0.53125 1.203125q0.515625 0.46875 2.703125 0.96875q2.203125 0.5 3.015625 0.875q1.1875 0.546875 1.75 1.390625q0.578125 0.828125 0.578125 1.921875q0 1.09375 -0.625 2.0625q-0.625 0.953125 -1.796875 1.484375q-1.15625 0.53125 -2.609375 0.53125q-1.84375 0 -3.09375 -0.53125q-1.25 -0.546875 -1.96875 -1.625q-0.703125 -1.078125 -0.734375 -2.453125zm21.146698 2.765625l0 1.609375l-8.984375 0q-0.015625 -0.609375 0.1875 -1.15625q0.34375 -0.921875 1.09375 -1.8125q0.765625 -0.890625 2.1875 -2.0625q2.21875 -1.8125 3.0 -2.875q0.78125 -1.0625 0.78125 -2.015625q0 -0.984375 -0.71875 -1.671875q-0.703125 -0.6875 -1.84375 -0.6875q-1.203125 0 -1.9375 0.734375q-0.71875 0.71875 -0.71875 2.0l-1.71875 -0.171875q0.171875 -1.921875 1.328125 -2.921875q1.15625 -1.015625 3.09375 -1.015625q1.953125 0 3.09375 1.09375q1.140625 1.078125 1.140625 2.6875q0 0.8125 -0.34375 1.609375q-0.328125 0.78125 -1.109375 1.65625q-0.765625 0.859375 -2.5625 2.390625q-1.5 1.265625 -1.9375 1.71875q-0.421875 0.4375 -0.703125 0.890625l6.671875 0z" fill-rule="nonzero"></path><path fill="#000000" fill-opacity="0.0" d="m628.4039 91.915245l144.0 0l0 48.000008l-144.0 0z" fill-rule="nonzero"></path><path fill="#000000" d="m689.8536 117.70431l1.6875 -0.140625q0.125 1.015625 0.5625 1.671875q0.4375 0.65625 1.359375 1.0625q0.9375 0.40625 2.09375 0.40625q1.03125 0 1.8125 -0.3125q0.796875 -0.3125 1.1875 -0.84375q0.390625 -0.53125 0.390625 -1.15625q0 -0.640625 -0.375 -1.109375q-0.375 -0.484375 -1.234375 -0.8125q-0.546875 -0.21875 -2.421875 -0.65625q-1.875 -0.453125 -2.625 -0.859375q-0.96875 -0.515625 -1.453125 -1.265625q-0.46875 -0.75 -0.46875 -1.6875q0 -1.03125 0.578125 -1.921875q0.59375 -0.90625 1.703125 -1.359375q1.125 -0.46875 2.5 -0.46875q1.515625 0 2.671875 0.484375q1.15625 0.484375 1.765625 1.4375q0.625 0.9375 0.671875 2.140625l-1.71875 0.125q-0.140625 -1.28125 -0.953125 -1.9375q-0.796875 -0.671875 -2.359375 -0.671875q-1.625 0 -2.375 0.609375q-0.75 0.59375 -0.75 1.4375q0 0.734375 0.53125 1.203125q0.515625 0.46875 2.703125 0.96875q2.203125 0.5 3.015625 0.875q1.1875 0.546875 1.75 1.390625q0.578125 0.828125 0.578125 1.921875q0 1.09375 -0.625 2.0625q-0.625 0.953125 -1.796875 1.484375q-1.15625 0.53125 -2.609375 0.53125q-1.84375 0 -3.09375 -0.53125q-1.25 -0.546875 -1.96875 -1.625q-0.703125 -1.078125 -0.734375 -2.453125zm12.3811035 0.78125l1.671875 -0.21875q0.28125 1.421875 0.96875 2.046875q0.703125 0.625 1.6875 0.625q1.1875 0 2.0 -0.8125q0.8125 -0.828125 0.8125 -2.03125q0 -1.140625 -0.765625 -1.890625q-0.75 -0.75 -1.90625 -0.75q-0.46875 0 -1.171875 0.1875l0.1875 -1.46875q0.15625 0.015625 0.265625 0.015625q1.0625 0 1.90625 -0.546875q0.859375 -0.5625 0.859375 -1.71875q0 -0.921875 -0.625 -1.515625q-0.609375 -0.609375 -1.59375 -0.609375q-0.96875 0 -1.625 0.609375q-0.640625 0.609375 -0.828125 1.84375l-1.671875 -0.296875q0.296875 -1.6875 1.375 -2.609375q1.09375 -0.921875 2.71875 -0.921875q1.109375 0 2.046875 0.484375q0.9375 0.46875 1.421875 1.296875q0.5 0.828125 0.5 1.75q0 0.890625 -0.46875 1.609375q-0.46875 0.71875 -1.40625 1.15625q1.21875 0.265625 1.875 1.15625q0.671875 0.875 0.671875 2.1875q0 1.78125 -1.296875 3.015625q-1.296875 1.234375 -3.28125 1.234375q-1.796875 0 -2.984375 -1.0625q-1.171875 -1.0625 -1.34375 -2.765625z" fill-rule="nonzero"></path><path fill="#000000" fill-opacity="0.0" d="m743.5476 159.22173l0 0c22.784546 16.624573 32.348633 45.98076 23.729614 72.836395c-8.619019 26.855637 -33.480286 45.163406 -61.6839 45.423904c-28.203674 0.26046753 -53.398804 -17.585022 -62.51233 -44.276886c-9.113586 -26.691864 -0.09338379 -56.219696 22.38031 -73.26224l39.527893 52.124573z" fill-rule="nonzero"></path><path fill="#000000" fill-opacity="0.0" d="m743.5476 159.22173l0 0c22.784546 16.624573 32.348633 45.98076 23.729614 72.836395c-8.619019 26.855637 -33.480286 45.163406 -61.6839 45.423904c-28.203674 0.26046753 -53.398804 -17.585022 -62.51233 -44.276886c-9.113586 -26.691864 -0.09338379 -56.219696 22.38031 -73.26224" fill-rule="nonzero"></path><path stroke="#000000" stroke-width="2.0" stroke-linejoin="round" stroke-linecap="butt" d="m747.4303 162.28574l0.23327637 0.19857788c1.319519 1.1347961 2.5861816 2.3155823 3.7988892 3.5386658c2.425171 2.4461975 4.6341553 5.061554 6.6171875 7.8163605c3.9660645 5.5095825 7.0282593 11.576889 9.10907 17.963928c4.161743 12.774078 4.3980713 26.827026 0.08850098 40.254837c-8.619019 26.855652 -33.480286 45.16342 -61.6839 45.42392c-28.203613 0.26046753 -53.398804 -17.585022 -62.51239 -44.276886c-9.113525 -26.69188 -0.09326172 -56.219696 22.380371 -73.26224" fill-rule="evenodd"></path><path fill="#000000" stroke="#000000" stroke-width="2.0" stroke-linecap="butt" d="m747.4303 162.28575l1.6253662 -0.19155884l-3.2128906 -1.0612183l1.7791138 2.878128z" fill-rule="evenodd"></path><path fill="#000000" fill-opacity="0.0" d="m113.81923 0l144.00002 0l0 48.0l-144.00002 0z" fill-rule="nonzero"></path><path fill="#000000" d="m187.7095 30.164062l-1.671875 0l0 -10.640625q-0.59375 0.578125 -1.578125 1.15625q-0.984375 0.5625 -1.765625 0.859375l0 -1.625q1.40625 -0.65625 2.453125 -1.59375q1.046875 -0.9375 1.484375 -1.8125l1.078125 0l0 13.65625z" fill-rule="nonzero"></path><path fill="#000000" fill-opacity="0.0" d="m217.35663 210.23885l144.0 0l0 47.999985l-144.0 0z" fill-rule="nonzero"></path><path fill="#000000" d="m277.1705 233.69978q0 -2.421875 0.5 -3.890625q0.5 -1.46875 1.46875 -2.265625q0.984375 -0.796875 2.46875 -0.796875q1.09375 0 1.921875 0.4375q0.828125 0.4375 1.359375 1.28125q0.546875 0.828125 0.84375 2.015625q0.3125 1.1875 0.3125 3.21875q0 2.390625 -0.5 3.859375q-0.484375 1.46875 -1.46875 2.28125q-0.96875 0.796875 -2.46875 0.796875q-1.96875 0 -3.078125 -1.40625q-1.359375 -1.703125 -1.359375 -5.53125zm1.71875 0q0 3.34375 0.78125 4.453125q0.796875 1.109375 1.9375 1.109375q1.15625 0 1.9375 -1.109375q0.78125 -1.125 0.78125 -4.453125q0 -3.359375 -0.78125 -4.46875q-0.78125 -1.109375 -1.953125 -1.109375q-1.15625 0 -1.828125 0.984375q-0.875 1.234375 -0.875 4.59375zm9.563232 6.703125l0 -1.90625l1.90625 0l0 1.90625q0 1.046875 -0.375 1.6875q-0.375 0.65625 -1.171875 1.0l-0.46875 -0.71875q0.53125 -0.21875 0.78125 -0.671875q0.25 -0.453125 0.28125 -1.296875l-0.953125 0zm10.573914 0l-1.671875 0l0 -10.640625q-0.59375 0.578125 -1.578125 1.15625q-0.984375 0.5625 -1.765625 0.859375l0 -1.625q1.40625 -0.65625 2.453125 -1.59375q1.046875 -0.9375 1.484375 -1.8125l1.078125 0l0 13.65625z" fill-rule="nonzero"></path><path fill="#000000" fill-opacity="0.0" d="m313.60934 9.631783l144.0 0l0 48.0l-144.0 0z" fill-rule="nonzero"></path><path fill="#000000" d="m381.20276 33.09272q0 -2.421875 0.5 -3.890625q0.5 -1.46875 1.46875 -2.265625q0.984375 -0.796875 2.46875 -0.796875q1.09375 0 1.921875 0.4375q0.828125 0.4375 1.359375 1.28125q0.546875 0.828125 0.84375 2.015625q0.3125 1.1875 0.3125 3.21875q0 2.390625 -0.5 3.859375q-0.484375 1.46875 -1.46875 2.28125q-0.96875 0.796875 -2.46875 0.796875q-1.96875 0 -3.078125 -1.40625q-1.359375 -1.703125 -1.359375 -5.53125zm1.71875 0q0 3.34375 0.78125 4.453125q0.796875 1.109375 1.9375 1.109375q1.15625 0 1.9375 -1.109375q0.78125 -1.125 0.78125 -4.453125q0 -3.359375 -0.78125 -4.46875q-0.78125 -1.109375 -1.953125 -1.109375q-1.15625 0 -1.828125 0.984375q-0.875 1.234375 -0.875 4.59375z" fill-rule="nonzero"></path><path fill="#000000" fill-opacity="0.0" d="m527.1178 7.8391314l144.0 0l0 48.0l-144.0 0z" fill-rule="nonzero"></path><path fill="#000000" d="m594.7112 31.300068q0 -2.421875 0.5 -3.890625q0.5 -1.46875 1.46875 -2.265625q0.984375 -0.796875 2.46875 -0.796875q1.09375 0 1.921875 0.4375q0.828125 0.4375 1.359375 1.28125q0.546875 0.828125 0.84375 2.015625q0.3125 1.1875 0.3125 3.21875q0 2.390625 -0.5 3.859375q-0.484375 1.46875 -1.46875 2.28125q-0.96875 0.796875 -2.46875 0.796875q-1.96875 0 -3.078125 -1.40625q-1.359375 -1.703125 -1.359375 -5.53125zm1.71875 0q0 3.34375 0.78125 4.453125q0.796875 1.109375 1.9375 1.109375q1.15625 0 1.9375 -1.109375q0.78125 -1.125 0.78125 -4.453125q0 -3.359375 -0.78125 -4.46875q-0.78125 -1.109375 -1.953125 -1.109375q-1.15625 0 -1.828125 0.984375q-0.875 1.234375 -0.875 4.59375z" fill-rule="nonzero"></path><path fill="#000000" fill-opacity="0.0" d="m632.9892 237.06223l144.0 0l0 48.0l-144.0 0z" fill-rule="nonzero"></path><path fill="#000000" d="m692.80304 260.52316q0 -2.421875 0.5 -3.890625q0.5 -1.46875 1.46875 -2.265625q0.984375 -0.796875 2.46875 -0.796875q1.09375 0 1.921875 0.4375q0.828125 0.4375 1.359375 1.28125q0.546875 0.828125 0.84375 2.015625q0.3125 1.1875 0.3125 3.21875q0 2.390625 -0.5 3.859375q-0.484375 1.46875 -1.46875 2.28125q-0.96875 0.796875 -2.46875 0.796875q-1.96875 0 -3.078125 -1.40625q-1.359375 -1.703125 -1.359375 -5.53125zm1.71875 0q0 3.34375 0.78125 4.453125q0.796875 1.109375 1.9375 1.109375q1.15625 0 1.9375 -1.109375q0.78125 -1.125 0.78125 -4.453125q0 -3.359375 -0.78125 -4.46875q-0.78125 -1.109375 -1.953125 -1.109375q-1.15625 0 -1.828125 0.984375q-0.875 1.234375 -0.875 4.59375zm9.563232 6.703125l0 -1.90625l1.90625 0l0 1.90625q0 1.046875 -0.375 1.6875q-0.375 0.65625 -1.171875 1.0l-0.46875 -0.71875q0.53125 -0.21875 0.78125 -0.671875q0.25 -0.453125 0.28125 -1.296875l-0.953125 0zm10.573914 0l-1.671875 0l0 -10.640625q-0.59375 0.578125 -1.578125 1.15625q-0.984375 0.5625 -1.765625 0.859375l0 -1.625q1.40625 -0.65625 2.453125 -1.59375q1.046875 -0.9375 1.484375 -1.8125l1.078125 0l0 13.65625z" fill-rule="nonzero"></path></g></svg>

