<?xml version="1.0" standalone="yes"?>

<svg version="1.1" viewBox="0.0 0.0 304.0 377.0" fill="none" stroke="none" stroke-linecap="square" stroke-miterlimit="10" xmlns="http://www.w3.org/2000/svg" xmlns:xlink="http://www.w3.org/1999/xlink"><clipPath id="p.0"><path d="m0 0l304.0 0l0 377.0l-304.0 0l0 -377.0z" clip-rule="nonzero"></path></clipPath><g clip-path="url(#p.0)"><path fill="#000000" fill-opacity="0.0" d="m0 0l304.61154 0l0 377.8399l-304.61154 0z" fill-rule="nonzero"></path><path fill="#000000" fill-opacity="0.0" d="m29.569553 56.64042l46.11024 0l0 23.968506l-46.11024 0z" fill-rule="nonzero"></path><path fill="#000000" d="m42.0744 70.413734l1.6875 -0.140625q0.125 1.015625 0.5625 1.671875q0.4375 0.65625 1.359375 1.0625q0.9375 0.40625 2.09375 0.40625q1.03125 0 1.8125 -0.3125q0.796875 -0.3125 1.1875 -0.84375q0.390625 -0.53125 0.390625 -1.15625q0 -0.640625 -0.375 -1.109375q-0.375 -0.484375 -1.234375 -0.8125q-0.546875 -0.21875 -2.421875 -0.65625q-1.875 -0.453125 -2.625 -0.859375q-0.96875 -0.515625 -1.453125 -1.265625q-0.46875 -0.75 -0.46875 -1.6875q0 -1.03125 0.578125 -1.921875q0.59375 -0.90625 1.703125 -1.359375q1.125 -0.46875 2.5 -0.46875q1.515625 0 2.671875 0.484375q1.15625 0.484375 1.765625 1.4375q0.625 0.9375 0.671875 2.140625l-1.71875 0.125q-0.140625 -1.28125 -0.953125 -1.9375q-0.796875 -0.671875 -2.359375 -0.671875q-1.625 0 -2.375 0.609375q-0.75 0.59375 -0.75 1.4375q0 0.734375 0.53125 1.203125q0.515625 0.46875 2.703125 0.96875q2.203125 0.5 3.015625 0.875q1.1875 0.546875 1.75 1.390625q0.578125 0.828125 0.578125 1.921875q0 1.09375 -0.625 2.0625q-0.625 0.953125 -1.796875 1.484375q-1.15625 0.53125 -2.609375 0.53125q-1.84375 0 -3.09375 -0.53125q-1.25 -0.546875 -1.96875 -1.625q-0.703125 -1.078125 -0.734375 -2.453125zm12.365448 -2.328125q0 -2.421875 0.5 -3.890625q0.5 -1.46875 1.46875 -2.265625q0.984375 -0.796875 2.46875 -0.796875q1.09375 0 1.921875 0.4375q0.828125 0.4375 1.359375 1.28125q0.546875 0.828125 0.84375 2.015625q0.3125 1.1875 0.3125 3.21875q0 2.390625 -0.5 3.859375q-0.484375 1.46875 -1.46875 2.28125q-0.96875 0.796875 -2.46875 0.796875q-1.96875 0 -3.078125 -1.40625q-1.359375 -1.703125 -1.359375 -5.53125zm1.71875 0q0 3.34375 0.78125 4.453125q0.796875 1.109375 1.9375 1.109375q1.15625 0 1.9375 -1.109375q0.78125 -1.125 0.78125 -4.453125q0 -3.359375 -0.78125 -4.46875q-0.78125 -1.109375 -1.953125 -1.109375q-1.15625 0 -1.828125 0.984375q-0.875 1.234375 -0.875 4.59375z" fill-rule="nonzero"></path><path fill="#000000" fill-opacity="0.0" d="m23.380577 75.53018l58.48819 0l0 16.598427l-58.48819 0z" fill-rule="nonzero"></path><path fill="#000000" d="m34.60514 84.08721q0.3125 -0.015625 0.5 -0.15625q0.1875 -0.15625 0.25 -0.421875q0.0625 -0.28125 0.0625 -0.921875q0 -0.65625 0.03125 -0.875q0.03125 -0.328125 0.125 -0.515625q0.09375 -0.203125 0.234375 -0.3125q0.140625 -0.125 0.359375 -0.1875q0.15625 -0.046875 0.484375 -0.046875l0.21875 0l0 0.609375l-0.125 0q-0.40625 0 -0.546875 0.15625q-0.125 0.140625 -0.125 0.65625q0 1.015625 -0.03125 1.28125q-0.078125 0.421875 -0.25 0.65625q-0.171875 0.21875 -0.53125 0.390625q0.4375 0.1875 0.625 0.5625q0.1875 0.359375 0.1875 1.203125q0 0.765625 0.015625 0.90625q0.03125 0.265625 0.15625 0.375q0.140625 0.109375 0.5 0.109375l0.125 0l0 0.609375l-0.21875 0q-0.375 0 -0.546875 -0.0625q-0.25 -0.09375 -0.421875 -0.296875q-0.15625 -0.203125 -0.21875 -0.515625q-0.046875 -0.296875 -0.046875 -1.0q0 -0.703125 -0.0625 -0.96875q-0.0625 -0.28125 -0.25 -0.4375q-0.1875 -0.15625 -0.5 -0.15625l0 -0.640625zm5.4375 2.390625l-0.703125 0l0 -4.484375q-0.25 0.25 -0.671875 0.5q-0.40625 0.234375 -0.734375 0.34375l0 -0.671875q0.59375 -0.28125 1.03125 -0.671875q0.4375 -0.390625 0.625 -0.765625l0.453125 0l0 5.75zm2.1835938 0l0 -0.796875l0.796875 0l0 0.796875q0 0.4375 -0.15625 0.703125q-0.15625 0.28125 -0.5 0.4375l-0.1875 -0.3125q0.21875 -0.09375 0.3125 -0.28125q0.109375 -0.1875 0.125 -0.546875l-0.390625 0zm7.7578125 -0.671875l0 0.671875l-3.78125 0q-0.015625 -0.25 0.078125 -0.484375q0.140625 -0.390625 0.453125 -0.765625q0.328125 -0.375 0.921875 -0.875q0.9375 -0.765625 1.265625 -1.203125q0.328125 -0.453125 0.328125 -0.84375q0 -0.421875 -0.296875 -0.703125q-0.296875 -0.296875 -0.78125 -0.296875q-0.5 0 -0.8125 0.3125q-0.296875 0.296875 -0.3125 0.84375l-0.71875 -0.078125q0.078125 -0.8125 0.5625 -1.234375q0.484375 -0.421875 1.296875 -0.421875q0.828125 0 1.296875 0.453125q0.484375 0.453125 0.484375 1.140625q0 0.34375 -0.140625 0.671875q-0.140625 0.328125 -0.46875 0.703125q-0.3125 0.359375 -1.078125 1.0q-0.625 0.53125 -0.8125 0.71875q-0.171875 0.1875 -0.296875 0.390625l2.8125 0zm1.1367188 0.671875l0 -0.796875l0.796875 0l0 0.796875q0 0.4375 -0.15625 0.703125q-0.15625 0.28125 -0.5 0.4375l-0.1875 -0.3125q0.21875 -0.09375 0.3125 -0.28125q0.109375 -0.1875 0.125 -0.546875l-0.390625 0zm6.3203125 0l0 -1.375l-2.484375 0l0 -0.640625l2.609375 -3.71875l0.578125 0l0 3.71875l0.765625 0l0 0.640625l-0.765625 0l0 1.375l-0.703125 0zm0 -2.015625l0 -2.578125l-1.796875 2.578125l1.796875 0zm2.5742188 2.015625l0 -0.796875l0.796875 0l0 0.796875q0 0.4375 -0.15625 0.703125q-0.15625 0.28125 -0.5 0.4375l-0.1875 -0.3125q0.21875 -0.09375 0.3125 -0.28125q0.109375 -0.1875 0.125 -0.546875l-0.390625 0zm4.0546875 -1.5l0.75 -0.0625q0.078125 0.53125 0.375 0.8125q0.296875 0.265625 0.71875 0.265625q0.515625 0 0.859375 -0.375q0.359375 -0.390625 0.359375 -1.015625q0 -0.609375 -0.34375 -0.953125q-0.34375 -0.34375 -0.890625 -0.34375q-0.328125 0 -0.609375 0.15625q-0.265625 0.140625 -0.421875 0.390625l-0.671875 -0.078125l0.5625 -2.953125l2.84375 0l0 0.671875l-2.28125 0l-0.3125 1.546875q0.515625 -0.359375 1.078125 -0.359375q0.75 0 1.265625 0.515625q0.515625 0.515625 0.515625 1.34375q0 0.765625 -0.453125 1.34375q-0.546875 0.6875 -1.5 0.6875q-0.78125 0 -1.28125 -0.4375q-0.484375 -0.4375 -0.5625 -1.15625zm6.5742188 -0.890625l0 0.640625q-0.3125 0 -0.5 0.15625q-0.1875 0.15625 -0.25 0.421875q-0.0625 0.265625 -0.0625 0.921875q0 0.65625 -0.03125 0.859375q-0.03125 0.34375 -0.125 0.53125q-0.09375 0.203125 -0.234375 0.3125q-0.140625 0.125 -0.359375 0.1875q-0.15625 0.046875 -0.484375 0.046875l-0.21875 0l0 -0.609375l0.125 0q0.40625 0 0.53125 -0.15625q0.140625 -0.140625 0.140625 -0.65625q0 -0.984375 0.03125 -1.234375q0.0625 -0.4375 0.25 -0.6875q0.1875 -0.265625 0.53125 -0.421875q-0.453125 -0.203125 -0.640625 -0.5625q-0.171875 -0.359375 -0.171875 -1.1875q0 -0.765625 -0.03125 -0.921875q-0.015625 -0.25 -0.15625 -0.359375q-0.125 -0.109375 -0.484375 -0.109375l-0.125 0l0 -0.609375l0.21875 0q0.375 0 0.546875 0.0625q0.25 0.09375 0.40625 0.296875q0.171875 0.203125 0.21875 0.515625q0.0625 0.296875 0.0625 1.0q0 0.703125 0.0625 0.96875q0.0625 0.265625 0.25 0.421875q0.1875 0.15625 0.5 0.171875z" fill-rule="nonzero"></path><path fill="#000000" fill-opacity="0.0" d="m24.624672 68.62467l0 0c0 -15.463974 12.536026 -28.0 28.0 -28.0l0 0c7.4260635 0 14.547974 2.9499931 19.798988 8.201012c5.2510223 5.2510185 8.201012 12.372925 8.201012 19.798988l0 0c0 15.463974 -12.536026 28.0 -28.0 28.0l0 0c-15.463974 0 -28.0 -12.536026 -28.0 -28.0z" fill-rule="nonzero"></path><path stroke="#000000" stroke-width="2.0" stroke-linejoin="round" stroke-linecap="butt" d="m24.624672 68.62467l0 0c0 -15.463974 12.536026 -28.0 28.0 -28.0l0 0c7.4260635 0 14.547974 2.9499931 19.798988 8.201012c5.2510223 5.2510185 8.201012 12.372925 8.201012 19.798988l0 0c0 15.463974 -12.536026 28.0 -28.0 28.0l0 0c-15.463974 0 -28.0 -12.536026 -28.0 -28.0z" fill-rule="nonzero"></path><path fill="#000000" fill-opacity="0.0" d="m118.40048 135.61308l46.110245 0l0 23.968506l-46.110245 0z" fill-rule="nonzero"></path><path fill="#000000" d="m130.90533 149.3864l1.6875 -0.140625q0.125 1.015625 0.5625 1.671875q0.4375 0.65625 1.359375 1.0625q0.9375 0.40625 2.09375 0.40625q1.03125 0 1.8125 -0.3125q0.796875 -0.3125 1.1875 -0.84375q0.390625 -0.53125 0.390625 -1.15625q0 -0.640625 -0.375 -1.109375q-0.375 -0.484375 -1.234375 -0.8125q-0.546875 -0.21875 -2.421875 -0.65625q-1.875 -0.453125 -2.625 -0.859375q-0.96875 -0.515625 -1.453125 -1.265625q-0.46875 -0.75 -0.46875 -1.6875q0 -1.03125 0.578125 -1.921875q0.59375 -0.90625 1.703125 -1.359375q1.125 -0.46875 2.5 -0.46875q1.515625 0 2.671875 0.484375q1.15625 0.484375 1.765625 1.4375q0.625 0.9375 0.671875 2.140625l-1.71875 0.125q-0.140625 -1.28125 -0.953125 -1.9375q-0.796875 -0.671875 -2.359375 -0.671875q-1.625 0 -2.375 0.609375q-0.75 0.59375 -0.75 1.4375q0 0.734375 0.53125 1.203125q0.515625 0.46875 2.703125 0.96875q2.203125 0.5 3.015625 0.875q1.1875 0.546875 1.75 1.390625q0.578125 0.828125 0.578125 1.921875q0 1.09375 -0.625 2.0625q-0.625 0.953125 -1.796875 1.484375q-1.15625 0.53125 -2.609375 0.53125q-1.84375 0 -3.09375 -0.53125q-1.25 -0.546875 -1.96875 -1.625q-0.703125 -1.078125 -0.734375 -2.453125zm18.662323 4.375l-1.671875 0l0 -10.640625q-0.59375 0.578125 -1.578125 1.15625q-0.984375 0.5625 -1.765625 0.859375l0 -1.625q1.40625 -0.65625 2.453125 -1.59375q1.046875 -0.9375 1.484375 -1.8125l1.078125 0l0 13.65625z" fill-rule="nonzero"></path><path fill="#000000" fill-opacity="0.0" d="m112.21151 154.50284l58.488182 0l0 16.598434l-58.488182 0z" fill-rule="nonzero"></path><path fill="#000000" d="m132.3306 163.05988q0.3125 -0.015625 0.5 -0.15625q0.1875 -0.15625 0.25 -0.421875q0.0625 -0.28125 0.0625 -0.921875q0 -0.65625 0.03125 -0.875q0.03125 -0.328125 0.125 -0.515625q0.09375 -0.203125 0.234375 -0.3125q0.140625 -0.125 0.359375 -0.1875q0.15625 -0.046875 0.484375 -0.046875l0.21875 0l0 0.609375l-0.125 0q-0.40625 0 -0.546875 0.15625q-0.125 0.140625 -0.125 0.65625q0 1.015625 -0.03125 1.28125q-0.078125 0.421875 -0.25 0.65625q-0.171875 0.21875 -0.53125 0.390625q0.4375 0.1875 0.625 0.5625q0.1875 0.359375 0.1875 1.203125q0 0.765625 0.015625 0.90625q0.03125 0.265625 0.15625 0.375q0.140625 0.109375 0.5 0.109375l0.125 0l0 0.609375l-0.21875 0q-0.375 0 -0.546875 -0.0625q-0.25 -0.09375 -0.421875 -0.296875q-0.15625 -0.203125 -0.21875 -0.515625q-0.046875 -0.296875 -0.046875 -1.0q0 -0.703125 -0.0625 -0.96875q-0.0625 -0.28125 -0.25 -0.4375q-0.1875 -0.15625 -0.5 -0.15625l0 -0.640625zm6.484375 1.71875l0 0.671875l-3.78125 0q-0.015625 -0.25 0.078125 -0.484375q0.140625 -0.390625 0.453125 -0.765625q0.328125 -0.375 0.921875 -0.875q0.9375 -0.765625 1.265625 -1.203125q0.328125 -0.453125 0.328125 -0.84375q0 -0.421875 -0.296875 -0.703125q-0.296875 -0.296875 -0.78125 -0.296875q-0.5 0 -0.8125 0.3125q-0.296875 0.296875 -0.3125 0.84375l-0.71875 -0.078125q0.078125 -0.8125 0.5625 -1.234375q0.484375 -0.421875 1.296875 -0.421875q0.828125 0 1.296875 0.453125q0.484375 0.453125 0.484375 1.140625q0 0.34375 -0.140625 0.671875q-0.140625 0.328125 -0.46875 0.703125q-0.3125 0.359375 -1.078125 1.0q-0.625 0.53125 -0.8125 0.71875q-0.171875 0.1875 -0.296875 0.390625l2.8125 0zm1.1367188 0.671875l0 -0.796875l0.796875 0l0 0.796875q0 0.4375 -0.15625 0.703125q-0.15625 0.28125 -0.5 0.4375l-0.1875 -0.3125q0.21875 -0.09375 0.3125 -0.28125q0.109375 -0.1875 0.125 -0.546875l-0.390625 0zm4.0703125 -1.515625l0.703125 -0.09375q0.109375 0.59375 0.40625 0.859375q0.296875 0.265625 0.703125 0.265625q0.5 0 0.84375 -0.34375q0.34375 -0.34375 0.34375 -0.84375q0 -0.484375 -0.328125 -0.796875q-0.3125 -0.328125 -0.796875 -0.328125q-0.203125 0 -0.5 0.078125l0.078125 -0.609375q0.078125 0 0.125 0q0.4375 0 0.796875 -0.234375q0.359375 -0.234375 0.359375 -0.71875q0 -0.390625 -0.265625 -0.640625q-0.25 -0.25 -0.671875 -0.25q-0.40625 0 -0.6875 0.265625q-0.265625 0.25 -0.34375 0.765625l-0.703125 -0.125q0.125 -0.703125 0.578125 -1.09375q0.46875 -0.390625 1.140625 -0.390625q0.46875 0 0.859375 0.203125q0.40625 0.203125 0.609375 0.546875q0.21875 0.34375 0.21875 0.734375q0 0.375 -0.203125 0.6875q-0.203125 0.296875 -0.59375 0.46875q0.515625 0.125 0.796875 0.5q0.28125 0.359375 0.28125 0.921875q0 0.75 -0.546875 1.28125q-0.546875 0.515625 -1.390625 0.515625q-0.75 0 -1.25 -0.453125q-0.5 -0.453125 -0.5625 -1.171875zm6.5585938 -0.875l0 0.640625q-0.3125 0 -0.5 0.15625q-0.1875 0.15625 -0.25 0.421875q-0.0625 0.265625 -0.0625 0.921875q0 0.65625 -0.03125 0.859375q-0.03125 0.34375 -0.125 0.53125q-0.09375 0.203125 -0.234375 0.3125q-0.140625 0.125 -0.359375 0.1875q-0.15625 0.046875 -0.484375 0.046875l-0.21875 0l0 -0.609375l0.125 0q0.40625 0 0.53125 -0.15625q0.140625 -0.140625 0.140625 -0.65625q0 -0.984375 0.03125 -1.234375q0.0625 -0.4375 0.25 -0.6875q0.1875 -0.265625 0.53125 -0.421875q-0.453125 -0.203125 -0.640625 -0.5625q-0.171875 -0.359375 -0.171875 -1.1875q0 -0.765625 -0.03125 -0.921875q-0.015625 -0.25 -0.15625 -0.359375q-0.125 -0.109375 -0.484375 -0.109375l-0.125 0l0 -0.609375l0.21875 0q0.375 0 0.546875 0.0625q0.25 0.09375 0.40625 0.296875q0.171875 0.203125 0.21875 0.515625q0.0625 0.296875 0.0625 1.0q0 0.703125 0.0625 0.96875q0.0625 0.265625 0.25 0.421875q0.1875 0.15625 0.5 0.171875z" fill-rule="nonzero"></path><path fill="#000000" fill-opacity="0.0" d="m113.455605 147.59734l0 0c0 -15.463974 12.536026 -28.0 27.999992 -28.0l0 0c7.426071 0 14.547974 2.9499893 19.798996 8.201004c5.2510223 5.2510223 8.201004 12.372925 8.201004 19.798996l0 0c0 15.463974 -12.536026 28.0 -28.0 28.0l0 0c-15.463966 0 -27.999992 -12.536026 -27.999992 -28.0z" fill-rule="nonzero"></path><path stroke="#000000" stroke-width="2.0" stroke-linejoin="round" stroke-linecap="butt" d="m113.455605 147.59734l0 0c0 -15.463974 12.536026 -28.0 27.999992 -28.0l0 0c7.426071 0 14.547974 2.9499893 19.798996 8.201004c5.2510223 5.2510223 8.201004 12.372925 8.201004 19.798996l0 0c0 15.463974 -12.536026 28.0 -28.0 28.0l0 0c-15.463966 0 -27.999992 -12.536026 -27.999992 -28.0z" fill-rule="nonzero"></path><path fill="#000000" fill-opacity="0.0" d="m176.88867 55.412075l46.110245 0l0 23.968502l-46.110245 0z" fill-rule="nonzero"></path><path fill="#000000" d="m189.39352 69.18539l1.6875 -0.140625q0.125 1.015625 0.5625 1.671875q0.4375 0.65625 1.359375 1.0625q0.9375 0.40625 2.09375 0.40625q1.03125 0 1.8125 -0.3125q0.796875 -0.3125 1.1875 -0.84375q0.390625 -0.53125 0.390625 -1.15625q0 -0.640625 -0.375 -1.109375q-0.375 -0.484375 -1.234375 -0.8125q-0.546875 -0.21875 -2.421875 -0.65625q-1.875 -0.453125 -2.625 -0.859375q-0.96875 -0.515625 -1.453125 -1.265625q-0.46875 -0.75 -0.46875 -1.6875q0 -1.03125 0.578125 -1.921875q0.59375 -0.90625 1.703125 -1.359375q1.125 -0.46875 2.5 -0.46875q1.515625 0 2.671875 0.484375q1.15625 0.484375 1.765625 1.4375q0.625 0.9375 0.671875 2.140625l-1.71875 0.125q-0.140625 -1.28125 -0.953125 -1.9375q-0.796875 -0.671875 -2.359375 -0.671875q-1.625 0 -2.375 0.609375q-0.75 0.59375 -0.75 1.4375q0 0.734375 0.53125 1.203125q0.515625 0.46875 2.703125 0.96875q2.203125 0.5 3.015625 0.875q1.1875 0.546875 1.75 1.390625q0.578125 0.828125 0.578125 1.921875q0 1.09375 -0.625 2.0625q-0.625 0.953125 -1.796875 1.484375q-1.15625 0.53125 -2.609375 0.53125q-1.84375 0 -3.09375 -0.53125q-1.25 -0.546875 -1.96875 -1.625q-0.703125 -1.078125 -0.734375 -2.453125zm21.146698 2.765625l0 1.609375l-8.984375 0q-0.015625 -0.609375 0.1875 -1.15625q0.34375 -0.921875 1.09375 -1.8125q0.765625 -0.890625 2.1875 -2.0625q2.21875 -1.8125 3.0 -2.875q0.78125 -1.0625 0.78125 -2.015625q0 -0.984375 -0.71875 -1.671875q-0.703125 -0.6875 -1.84375 -0.6875q-1.203125 0 -1.9375 0.734375q-0.71875 0.71875 -0.71875 2.0l-1.71875 -0.171875q0.171875 -1.921875 1.328125 -2.921875q1.15625 -1.015625 3.09375 -1.015625q1.953125 0 3.09375 1.09375q1.140625 1.078125 1.140625 2.6875q0 0.8125 -0.34375 1.609375q-0.328125 0.78125 -1.109375 1.65625q-0.765625 0.859375 -2.5625 2.390625q-1.5 1.265625 -1.9375 1.71875q-0.421875 0.4375 -0.703125 0.890625l6.671875 0z" fill-rule="nonzero"></path><path fill="#000000" fill-opacity="0.0" d="m170.6997 74.301834l58.48819 0l0 16.598427l-58.48819 0z" fill-rule="nonzero"></path><path fill="#000000" d="m195.26607 82.858864q0.3125 -0.015625 0.5 -0.15625q0.1875 -0.15625 0.25 -0.421875q0.0625 -0.28125 0.0625 -0.921875q0 -0.65625 0.03125 -0.875q0.03125 -0.328125 0.125 -0.515625q0.09375 -0.203125 0.234375 -0.3125q0.140625 -0.125 0.359375 -0.1875q0.15625 -0.046875 0.484375 -0.046875l0.21875 0l0 0.609375l-0.125 0q-0.40625 0 -0.546875 0.15625q-0.125 0.140625 -0.125 0.65625q0 1.015625 -0.03125 1.28125q-0.078125 0.421875 -0.25 0.65625q-0.171875 0.21875 -0.53125 0.390625q0.4375 0.1875 0.625 0.5625q0.1875 0.359375 0.1875 1.203125q0 0.765625 0.015625 0.90625q0.03125 0.265625 0.15625 0.375q0.140625 0.109375 0.5 0.109375l0.125 0l0 0.609375l-0.21875 0q-0.375 0 -0.546875 -0.0625q-0.25 -0.09375 -0.421875 -0.296875q-0.15625 -0.203125 -0.21875 -0.515625q-0.046875 -0.296875 -0.046875 -1.0q0 -0.703125 -0.0625 -0.96875q-0.0625 -0.28125 -0.25 -0.4375q-0.1875 -0.15625 -0.5 -0.15625l0 -0.640625zm6.484375 1.71875l0 0.671875l-3.78125 0q-0.015625 -0.25 0.078125 -0.484375q0.140625 -0.390625 0.453125 -0.765625q0.328125 -0.375 0.921875 -0.875q0.9375 -0.765625 1.265625 -1.203125q0.328125 -0.453125 0.328125 -0.84375q0 -0.421875 -0.296875 -0.703125q-0.296875 -0.296875 -0.78125 -0.296875q-0.5 0 -0.8125 0.3125q-0.296875 0.296875 -0.3125 0.84375l-0.71875 -0.078125q0.078125 -0.8125 0.5625 -1.234375q0.484375 -0.421875 1.296875 -0.421875q0.828125 0 1.296875 0.453125q0.484375 0.453125 0.484375 1.140625q0 0.34375 -0.140625 0.671875q-0.140625 0.328125 -0.46875 0.703125q-0.3125 0.359375 -1.078125 1.0q-0.625 0.53125 -0.8125 0.71875q-0.171875 0.1875 -0.296875 0.390625l2.8125 0zm2.8710938 -1.71875l0 0.640625q-0.3125 0 -0.5 0.15625q-0.1875 0.15625 -0.25 0.421875q-0.0625 0.265625 -0.0625 0.921875q0 0.65625 -0.03125 0.859375q-0.03125 0.34375 -0.125 0.53125q-0.09375 0.203125 -0.234375 0.3125q-0.140625 0.125 -0.359375 0.1875q-0.15625 0.046875 -0.484375 0.046875l-0.21875 0l0 -0.609375l0.125 0q0.40625 0 0.53125 -0.15625q0.140625 -0.140625 0.140625 -0.65625q0 -0.984375 0.03125 -1.234375q0.0625 -0.4375 0.25 -0.6875q0.1875 -0.265625 0.53125 -0.421875q-0.453125 -0.203125 -0.640625 -0.5625q-0.171875 -0.359375 -0.171875 -1.1875q0 -0.765625 -0.03125 -0.921875q-0.015625 -0.25 -0.15625 -0.359375q-0.125 -0.109375 -0.484375 -0.109375l-0.125 0l0 -0.609375l0.21875 0q0.375 0 0.546875 0.0625q0.25 0.09375 0.40625 0.296875q0.171875 0.203125 0.21875 0.515625q0.0625 0.296875 0.0625 1.0q0 0.703125 0.0625 0.96875q0.0625 0.265625 0.25 0.421875q0.1875 0.15625 0.5 0.171875z" fill-rule="nonzero"></path><path fill="#000000" fill-opacity="0.0" d="m171.9438 67.396324l0 0c0 -15.46397 12.536026 -28.0 28.0 -28.0l0 0c7.426056 0 14.547958 2.9499931 19.79898 8.201012c5.2510223 5.2510185 8.201019 12.372929 8.201019 19.798988l0 0c0 15.463974 -12.536041 28.0 -28.0 28.0l0 0c-15.463974 0 -28.0 -12.536026 -28.0 -28.0z" fill-rule="nonzero"></path><path stroke="#000000" stroke-width="2.0" stroke-linejoin="round" stroke-linecap="butt" d="m171.9438 67.396324l0 0c0 -15.46397 12.536026 -28.0 28.0 -28.0l0 0c7.426056 0 14.547958 2.9499931 19.79898 8.201012c5.2510223 5.2510185 8.201019 12.372929 8.201019 19.798988l0 0c0 15.463974 -12.536041 28.0 -28.0 28.0l0 0c-15.463974 0 -28.0 -12.536026 -28.0 -28.0z" fill-rule="nonzero"></path><path fill="#000000" fill-opacity="0.0" d="m29.863865 246.16536l46.11024 0l0 23.96849l-46.11024 0z" fill-rule="nonzero"></path><path fill="#000000" d="m42.368713 259.93866l1.6875 -0.140625q0.125 1.015625 0.5625 1.671875q0.4375 0.65625 1.359375 1.0625q0.9375 0.40625 2.09375 0.40625q1.03125 0 1.8125 -0.3125q0.796875 -0.3125 1.1875 -0.84375q0.390625 -0.53125 0.390625 -1.15625q0 -0.640625 -0.375 -1.109375q-0.375 -0.484375 -1.234375 -0.8125q-0.546875 -0.21875 -2.421875 -0.65625q-1.875 -0.453125 -2.625 -0.859375q-0.96875 -0.515625 -1.453125 -1.2656097q-0.46875 -0.75 -0.46875 -1.6875q0 -1.03125 0.578125 -1.921875q0.59375 -0.90625 1.703125 -1.359375q1.125 -0.46875 2.5 -0.46875q1.515625 0 2.671875 0.484375q1.15625 0.484375 1.765625 1.4375q0.625 0.9375 0.671875 2.140625l-1.71875 0.125q-0.140625 -1.28125 -0.953125 -1.9375q-0.796875 -0.671875 -2.359375 -0.671875q-1.625 0 -2.375 0.609375q-0.75 0.59375 -0.75 1.4375q0 0.734375 0.53125 1.203125q0.515625 0.46875 2.703125 0.96873474q2.203125 0.5 3.015625 0.875q1.1875 0.546875 1.75 1.390625q0.578125 0.828125 0.578125 1.921875q0 1.09375 -0.625 2.0625q-0.625 0.953125 -1.796875 1.484375q-1.15625 0.53125 -2.609375 0.53125q-1.84375 0 -3.09375 -0.53125q-1.25 -0.546875 -1.96875 -1.625q-0.703125 -1.078125 -0.734375 -2.453125zm12.381073 0.78125l1.671875 -0.21875q0.28125 1.421875 0.96875 2.046875q0.703125 0.625 1.6875 0.625q1.1875 0 2.0 -0.8125q0.8125 -0.828125 0.8125 -2.03125q0 -1.140625 -0.765625 -1.890625q-0.75 -0.75 -1.90625 -0.75q-0.46875 0 -1.171875 0.1875l0.1875 -1.46875q0.15625 0.015625 0.265625 0.015625q1.0625 0 1.90625 -0.54685974q0.859375 -0.5625 0.859375 -1.71875q0 -0.921875 -0.625 -1.515625q-0.609375 -0.609375 -1.59375 -0.609375q-0.96875 0 -1.625 0.609375q-0.640625 0.609375 -0.828125 1.84375l-1.671875 -0.296875q0.296875 -1.6875 1.375 -2.609375q1.09375 -0.921875 2.71875 -0.921875q1.109375 0 2.046875 0.484375q0.9375 0.46875 1.421875 1.296875q0.5 0.828125 0.5 1.75q0 0.890625 -0.46875 1.609375q-0.46875 0.71873474 -1.40625 1.1562347q1.21875 0.265625 1.875 1.15625q0.671875 0.875 0.671875 2.1875q0 1.78125 -1.296875 3.015625q-1.296875 1.234375 -3.28125 1.234375q-1.796875 0 -2.984375 -1.0625q-1.171875 -1.0625 -1.34375 -2.765625z" fill-rule="nonzero"></path><path fill="#000000" fill-opacity="0.0" d="m23.674889 265.0551l58.48819 0l0 16.59842l-58.48819 0z" fill-rule="nonzero"></path><path fill="#000000" d="m39.346718 273.61215q0.3125 -0.015625 0.5 -0.15625q0.1875 -0.15625 0.25 -0.421875q0.0625 -0.28125 0.0625 -0.921875q0 -0.65625 0.03125 -0.875q0.03125 -0.328125 0.125 -0.515625q0.09375 -0.203125 0.234375 -0.3125q0.140625 -0.125 0.359375 -0.1875q0.15625 -0.046875 0.484375 -0.046875l0.21875 0l0 0.609375l-0.125 0q-0.40625 0 -0.546875 0.15625q-0.125 0.140625 -0.125 0.65625q0 1.015625 -0.03125 1.28125q-0.078125 0.421875 -0.25 0.65625q-0.171875 0.21875 -0.53125 0.390625q0.4375 0.1875 0.625 0.5625q0.1875 0.359375 0.1875 1.203125q0 0.765625 0.015625 0.90625q0.03125 0.265625 0.15625 0.375q0.140625 0.109375 0.5 0.109375l0.125 0l0 0.609375l-0.21875 0q-0.375 0 -0.546875 -0.0625q-0.25 -0.09375 -0.421875 -0.296875q-0.15625 -0.203125 -0.21875 -0.515625q-0.046875 -0.296875 -0.046875 -1.0q0 -0.703125 -0.0625 -0.96875q-0.0625 -0.28125 -0.25 -0.4375q-0.1875 -0.15625 -0.5 -0.15625l0 -0.640625zm6.484375 1.71875l0 0.671875l-3.78125 0q-0.015625 -0.25 0.078125 -0.484375q0.140625 -0.390625 0.453125 -0.765625q0.328125 -0.375 0.921875 -0.875q0.9375 -0.765625 1.265625 -1.203125q0.328125 -0.453125 0.328125 -0.84375q0 -0.421875 -0.296875 -0.703125q-0.296875 -0.296875 -0.78125 -0.296875q-0.5 0 -0.8125 0.3125q-0.296875 0.296875 -0.3125 0.84375l-0.71875 -0.078125q0.078125 -0.8125 0.5625 -1.234375q0.484375 -0.421875 1.296875 -0.421875q0.828125 0 1.296875 0.453125q0.484375 0.453125 0.484375 1.140625q0 0.34375 -0.140625 0.671875q-0.140625 0.328125 -0.46875 0.703125q-0.3125 0.359375 -1.078125 1.0q-0.625 0.53125 -0.8125 0.71875q-0.171875 0.1875 -0.296875 0.390625l2.8125 0zm1.1367188 0.671875l0 -0.796875l0.796875 0l0 0.796875q0 0.4375 -0.15625 0.703125q-0.15625 0.28125 -0.5 0.4375l-0.1875 -0.3125q0.21875 -0.09375 0.3125 -0.28125q0.109375 -0.1875 0.125 -0.546875l-0.390625 0zm4.0703125 -1.515625l0.703125 -0.09375q0.109375 0.59375 0.40625 0.859375q0.296875 0.265625 0.703125 0.265625q0.5 0 0.84375 -0.34375q0.34375 -0.34375 0.34375 -0.84375q0 -0.484375 -0.328125 -0.796875q-0.3125 -0.328125 -0.796875 -0.328125q-0.203125 0 -0.5 0.078125l0.078125 -0.609375q0.078125 0 0.125 0q0.4375 0 0.796875 -0.234375q0.359375 -0.234375 0.359375 -0.71875q0 -0.390625 -0.265625 -0.640625q-0.25 -0.25 -0.671875 -0.25q-0.40625 0 -0.6875 0.265625q-0.265625 0.25 -0.34375 0.765625l-0.703125 -0.125q0.125 -0.703125 0.578125 -1.09375q0.46875 -0.390625 1.140625 -0.390625q0.46875 0 0.859375 0.203125q0.40625 0.203125 0.609375 0.546875q0.21875 0.34375 0.21875 0.734375q0 0.375 -0.203125 0.6875q-0.203125 0.296875 -0.59375 0.46875q0.515625 0.125 0.796875 0.5q0.28125 0.359375 0.28125 0.921875q0 0.75 -0.546875 1.28125q-0.546875 0.515625 -1.390625 0.515625q-0.75 0 -1.25 -0.453125q-0.5 -0.453125 -0.5625 -1.171875zm4.8242188 1.515625l0 -0.796875l0.796875 0l0 0.796875q0 0.4375 -0.15625 0.703125q-0.15625 0.28125 -0.5 0.4375l-0.1875 -0.3125q0.21875 -0.09375 0.3125 -0.28125q0.109375 -0.1875 0.125 -0.546875l-0.390625 0zm4.0546875 -1.5l0.75 -0.0625q0.078125 0.53125 0.375 0.8125q0.296875 0.265625 0.71875 0.265625q0.515625 0 0.859375 -0.375q0.359375 -0.390625 0.359375 -1.015625q0 -0.609375 -0.34375 -0.953125q-0.34375 -0.34375 -0.890625 -0.34375q-0.328125 0 -0.609375 0.15625q-0.265625 0.140625 -0.421875 0.390625l-0.671875 -0.078125l0.5625 -2.953125l2.84375 0l0 0.671875l-2.28125 0l-0.3125 1.546875q0.515625 -0.359375 1.078125 -0.359375q0.75 0 1.265625 0.515625q0.515625 0.515625 0.515625 1.34375q0 0.765625 -0.453125 1.34375q-0.546875 0.6875 -1.5 0.6875q-0.78125 0 -1.28125 -0.4375q-0.484375 -0.4375 -0.5625 -1.15625zm6.5742188 -0.890625l0 0.640625q-0.3125 0 -0.5 0.15625q-0.1875 0.15625 -0.25 0.421875q-0.0625 0.265625 -0.0625 0.921875q0 0.65625 -0.03125 0.859375q-0.03125 0.34375 -0.125 0.53125q-0.09375 0.203125 -0.234375 0.3125q-0.140625 0.125 -0.359375 0.1875q-0.15625 0.046875 -0.484375 0.046875l-0.21875 0l0 -0.609375l0.125 0q0.40625 0 0.53125 -0.15625q0.140625 -0.140625 0.140625 -0.65625q0 -0.984375 0.03125 -1.234375q0.0625 -0.4375 0.25 -0.6875q0.1875 -0.265625 0.53125 -0.421875q-0.453125 -0.203125 -0.640625 -0.5625q-0.171875 -0.359375 -0.171875 -1.1875q0 -0.765625 -0.03125 -0.921875q-0.015625 -0.25 -0.15625 -0.359375q-0.125 -0.109375 -0.484375 -0.109375l-0.125 0l0 -0.609375l0.21875 0q0.375 0 0.546875 0.0625q0.25 0.09375 0.40625 0.296875q0.171875 0.203125 0.21875 0.515625q0.0625 0.296875 0.0625 1.0q0 0.703125 0.0625 0.96875q0.0625 0.265625 0.25 0.421875q0.1875 0.15625 0.5 0.171875z" fill-rule="nonzero"></path><path fill="#000000" fill-opacity="0.0" d="m24.918983 258.1496l0 0c0 -15.463959 12.536026 -27.999985 28.0 -27.999985l0 0c7.4260635 0 14.547974 2.9499817 19.798988 8.201004c5.2510223 5.2510223 8.201012 12.372925 8.201012 19.79898l0 0c0 15.463989 -12.536026 28.0 -28.0 28.0l0 0c-15.463974 0 -28.0 -12.536011 -28.0 -28.0z" fill-rule="nonzero"></path><path stroke="#000000" stroke-width="2.0" stroke-linejoin="round" stroke-linecap="butt" d="m24.918983 258.1496l0 0c0 -15.463959 12.536026 -27.999985 28.0 -27.999985l0 0c7.4260635 0 14.547974 2.9499817 19.798988 8.201004c5.2510223 5.2510223 8.201012 12.372925 8.201012 19.79898l0 0c0 15.463989 -12.536026 28.0 -28.0 28.0l0 0c-15.463974 0 -28.0 -12.536011 -28.0 -28.0z" fill-rule="nonzero"></path><path fill="#000000" fill-opacity="0.0" d="m247.68396 329.24146l46.11023 0l0 23.968506l-46.11023 0z" fill-rule="nonzero"></path><path fill="#000000" d="m260.1888 343.01477l1.6875 -0.140625q0.125 1.015625 0.5625 1.671875q0.4375 0.65625 1.359375 1.0625q0.9375 0.40625 2.09375 0.40625q1.03125 0 1.8125 -0.3125q0.796875 -0.3125 1.1875 -0.84375q0.390625 -0.53125 0.390625 -1.15625q0 -0.640625 -0.375 -1.109375q-0.375 -0.484375 -1.234375 -0.8125q-0.546875 -0.21875 -2.421875 -0.65625q-1.875 -0.453125 -2.625 -0.859375q-0.96875 -0.515625 -1.453125 -1.265625q-0.46875 -0.75 -0.46875 -1.6875q0 -1.03125 0.578125 -1.921875q0.59375 -0.90625 1.703125 -1.359375q1.125 -0.46875 2.5 -0.46875q1.515625 0 2.671875 0.484375q1.15625 0.484375 1.765625 1.4375q0.625 0.9375 0.671875 2.140625l-1.71875 0.125q-0.140625 -1.28125 -0.953125 -1.9375q-0.796875 -0.671875 -2.359375 -0.671875q-1.625 0 -2.375 0.609375q-0.75 0.59375 -0.75 1.4375q0 0.734375 0.53125 1.203125q0.515625 0.46875 2.703125 0.96875q2.203125 0.5 3.015625 0.875q1.1875 0.546875 1.75 1.390625q0.578125 0.828125 0.578125 1.921875q0 1.09375 -0.625 2.0625q-0.625 0.953125 -1.796875 1.484375q-1.15625 0.53125 -2.609375 0.53125q-1.84375 0 -3.09375 -0.53125q-1.25 -0.546875 -1.96875 -1.625q-0.703125 -1.078125 -0.734375 -2.453125zm17.724823 4.375l0 -3.25l-5.90625 0l0 -1.53125l6.21875 -8.8125l1.359375 0l0 8.8125l1.84375 0l0 1.53125l-1.84375 0l0 3.25l-1.671875 0zm0 -4.78125l0 -6.140625l-4.25 6.140625l4.25 0z" fill-rule="nonzero"></path><path fill="#000000" fill-opacity="0.0" d="m241.49498 348.13123l58.488174 0l0 16.59842l-58.488174 0z" fill-rule="nonzero"></path><path fill="#000000" d="m261.61407 356.68826q0.3125 -0.015625 0.5 -0.15625q0.1875 -0.15625 0.25 -0.421875q0.0625 -0.28125 0.0625 -0.921875q0 -0.65625 0.03125 -0.875q0.03125 -0.328125 0.125 -0.515625q0.09375 -0.203125 0.234375 -0.3125q0.140625 -0.125 0.359375 -0.1875q0.15625 -0.046875 0.484375 -0.046875l0.21875 0l0 0.609375l-0.125 0q-0.40625 0 -0.546875 0.15625q-0.125 0.140625 -0.125 0.65625q0 1.015625 -0.03125 1.28125q-0.078125 0.421875 -0.25 0.65625q-0.171875 0.21875 -0.53125 0.390625q0.4375 0.1875 0.625 0.5625q0.1875 0.359375 0.1875 1.203125q0 0.765625 0.015625 0.90625q0.03125 0.265625 0.15625 0.375q0.140625 0.109375 0.5 0.109375l0.125 0l0 0.609375l-0.21875 0q-0.375 0 -0.546875 -0.0625q-0.25 -0.09375 -0.421875 -0.296875q-0.15625 -0.203125 -0.21875 -0.515625q-0.046875 -0.296875 -0.046875 -1.0q0 -0.703125 -0.0625 -0.96875q-0.0625 -0.28125 -0.25 -0.4375q-0.1875 -0.15625 -0.5 -0.15625l0 -0.640625zm6.484375 1.71875l0 0.671875l-3.78125 0q-0.015625 -0.25 0.078125 -0.484375q0.140625 -0.390625 0.453125 -0.765625q0.328125 -0.375 0.921875 -0.875q0.9375 -0.765625 1.265625 -1.203125q0.328125 -0.453125 0.328125 -0.84375q0 -0.421875 -0.296875 -0.703125q-0.296875 -0.296875 -0.78125 -0.296875q-0.5 0 -0.8125 0.3125q-0.296875 0.296875 -0.3125 0.84375l-0.71875 -0.078125q0.078125 -0.8125 0.5625 -1.234375q0.484375 -0.421875 1.296875 -0.421875q0.828125 0 1.296875 0.453125q0.484375 0.453125 0.484375 1.140625q0 0.34375 -0.140625 0.671875q-0.140625 0.328125 -0.46875 0.703125q-0.3125 0.359375 -1.078125 1.0q-0.625 0.53125 -0.8125 0.71875q-0.171875 0.1875 -0.296875 0.390625l2.8125 0zm1.1367188 0.671875l0 -0.796875l0.796875 0l0 0.796875q0 0.4375 -0.15625 0.703125q-0.15625 0.28125 -0.5 0.4375l-0.1875 -0.3125q0.21875 -0.09375 0.3125 -0.28125q0.109375 -0.1875 0.125 -0.546875l-0.390625 0zm4.0546875 -1.5l0.75 -0.0625q0.078125 0.53125 0.375 0.8125q0.296875 0.265625 0.71875 0.265625q0.515625 0 0.859375 -0.375q0.359375 -0.390625 0.359375 -1.015625q0 -0.609375 -0.34375 -0.953125q-0.34375 -0.34375 -0.890625 -0.34375q-0.328125 0 -0.609375 0.15625q-0.265625 0.140625 -0.421875 0.390625l-0.671875 -0.078125l0.5625 -2.953125l2.84375 0l0 0.671875l-2.28125 0l-0.3125 1.546875q0.515625 -0.359375 1.078125 -0.359375q0.75 0 1.265625 0.515625q0.515625 0.515625 0.515625 1.34375q0 0.765625 -0.453125 1.34375q-0.546875 0.6875 -1.5 0.6875q-0.78125 0 -1.28125 -0.4375q-0.484375 -0.4375 -0.5625 -1.15625zm6.5742188 -0.890625l0 0.640625q-0.3125 0 -0.5 0.15625q-0.1875 0.15625 -0.25 0.421875q-0.0625 0.265625 -0.0625 0.921875q0 0.65625 -0.03125 0.859375q-0.03125 0.34375 -0.125 0.53125q-0.09375 0.203125 -0.234375 0.3125q-0.140625 0.125 -0.359375 0.1875q-0.15625 0.046875 -0.484375 0.046875l-0.21875 0l0 -0.609375l0.125 0q0.40625 0 0.53125 -0.15625q0.140625 -0.140625 0.140625 -0.65625q0 -0.984375 0.03125 -1.234375q0.0625 -0.4375 0.25 -0.6875q0.1875 -0.265625 0.53125 -0.421875q-0.453125 -0.203125 -0.640625 -0.5625q-0.171875 -0.359375 -0.171875 -1.1875q0 -0.765625 -0.03125 -0.921875q-0.015625 -0.25 -0.15625 -0.359375q-0.125 -0.109375 -0.484375 -0.109375l-0.125 0l0 -0.609375l0.21875 0q0.375 0 0.546875 0.0625q0.25 0.09375 0.40625 0.296875q0.171875 0.203125 0.21875 0.515625q0.0625 0.296875 0.0625 1.0q0 0.703125 0.0625 0.96875q0.0625 0.265625 0.25 0.421875q0.1875 0.15625 0.5 0.171875z" fill-rule="nonzero"></path><path fill="#000000" fill-opacity="0.0" d="m242.73907 341.2257l0 0c0 -15.463959 12.536026 -28.0 28.0 -28.0l0 0c7.426056 0 14.547974 2.9500122 19.79898 8.201019c5.2510376 5.2510376 8.201019 12.372925 8.201019 19.79898l0 0c0 15.463989 -12.536041 28.0 -28.0 28.0l0 0c-15.463974 0 -28.0 -12.536011 -28.0 -28.0z" fill-rule="nonzero"></path><path stroke="#000000" stroke-width="2.0" stroke-linejoin="round" stroke-linecap="butt" d="m242.73907 341.2257l0 0c0 -15.463959 12.536026 -28.0 28.0 -28.0l0 0c7.426056 0 14.547974 2.9500122 19.79898 8.201019c5.2510376 5.2510376 8.201019 12.372925 8.201019 19.79898l0 0c0 15.463989 -12.536041 28.0 -28.0 28.0l0 0c-15.463974 0 -28.0 -12.536011 -28.0 -28.0z" fill-rule="nonzero"></path><path fill="#000000" fill-opacity="0.0" d="m130.6015 233.96434l46.11023 0l0 23.968521l-46.11023 0z" fill-rule="nonzero"></path><path fill="#000000" d="m143.10634 247.73766l1.6875 -0.140625q0.125 1.015625 0.5625 1.671875q0.4375 0.65625 1.359375 1.0625q0.9375 0.40625 2.09375 0.40625q1.03125 0 1.8125 -0.3125q0.796875 -0.3125 1.1875 -0.84375q0.390625 -0.53125 0.390625 -1.15625q0 -0.640625 -0.375 -1.109375q-0.375 -0.484375 -1.234375 -0.8125q-0.546875 -0.21875 -2.421875 -0.65625q-1.875 -0.453125 -2.625 -0.859375q-0.96875 -0.515625 -1.453125 -1.265625q-0.46875 -0.75 -0.46875 -1.6875q0 -1.03125 0.578125 -1.921875q0.59375 -0.90625 1.703125 -1.359375q1.125 -0.46875 2.5 -0.46875q1.515625 0 2.671875 0.484375q1.15625 0.484375 1.765625 1.4375q0.625 0.9375 0.671875 2.140625l-1.71875 0.125q-0.140625 -1.28125 -0.953125 -1.9375q-0.796875 -0.671875 -2.359375 -0.671875q-1.625 0 -2.375 0.609375q-0.75 0.59375 -0.75 1.4375q0 0.734375 0.53125 1.203125q0.515625 0.46875 2.703125 0.96875q2.203125 0.5 3.015625 0.875q1.1875 0.546875 1.75 1.390625q0.578125 0.828125 0.578125 1.921875q0 1.09375 -0.625 2.0625q-0.625 0.953125 -1.796875 1.484375q-1.15625 0.53125 -2.609375 0.53125q-1.84375 0 -3.09375 -0.53125q-1.25 -0.546875 -1.96875 -1.625q-0.703125 -1.078125 -0.734375 -2.453125zm12.365448 0.8125l1.765625 -0.15625q0.1875 1.28125 0.890625 1.9375q0.71875 0.640625 1.71875 0.640625q1.203125 0 2.03125 -0.90625q0.84375 -0.90625 0.84375 -2.421875q0 -1.421875 -0.8125 -2.25q-0.796875 -0.828125 -2.09375 -0.828125q-0.796875 0 -1.453125 0.375q-0.640625 0.359375 -1.015625 0.953125l-1.578125 -0.203125l1.328125 -7.0l6.765625 0l0 1.609375l-5.4375 0l-0.734375 3.640625q1.234375 -0.84375 2.578125 -0.84375q1.78125 0 3.0 1.234375q1.234375 1.234375 1.234375 3.171875q0 1.84375 -1.078125 3.1875q-1.3125 1.65625 -3.578125 1.65625q-1.859375 0 -3.03125 -1.03125q-1.171875 -1.046875 -1.34375 -2.765625z" fill-rule="nonzero"></path><path fill="#000000" fill-opacity="0.0" d="m124.41252 252.85411l58.48819 0l0 16.598434l-58.48819 0z" fill-rule="nonzero"></path><path fill="#000000" d="m144.53162 261.41113q0.3125 -0.015625 0.5 -0.15625q0.1875 -0.15625 0.25 -0.421875q0.0625 -0.28125 0.0625 -0.921875q0 -0.65625 0.03125 -0.875q0.03125 -0.328125 0.125 -0.515625q0.09375 -0.203125 0.234375 -0.3125q0.140625 -0.125 0.359375 -0.1875q0.15625 -0.046875 0.484375 -0.046875l0.21875 0l0 0.609375l-0.125 0q-0.40625 0 -0.546875 0.15625q-0.125 0.140625 -0.125 0.65625q0 1.015625 -0.03125 1.28125q-0.078125 0.421875 -0.25 0.65625q-0.171875 0.21875 -0.53125 0.390625q0.4375 0.1875 0.625 0.5625q0.1875 0.359375 0.1875 1.203125q0 0.765625 0.015625 0.90625q0.03125 0.265625 0.15625 0.375q0.140625 0.109375 0.5 0.109375l0.125 0l0 0.609375l-0.21875 0q-0.375 0 -0.546875 -0.0625q-0.25 -0.09375 -0.421875 -0.296875q-0.15625 -0.203125 -0.21875 -0.515625q-0.046875 -0.296875 -0.046875 -1.0q0 -0.703125 -0.0625 -0.96875q-0.0625 -0.28125 -0.25 -0.4375q-0.1875 -0.15625 -0.5 -0.15625l0 -0.640625zm2.796875 0.875l0.703125 -0.09375q0.109375 0.59375 0.40625 0.859375q0.296875 0.265625 0.703125 0.265625q0.5 0 0.84375 -0.34375q0.34375 -0.34375 0.34375 -0.84375q0 -0.484375 -0.328125 -0.796875q-0.3125 -0.328125 -0.796875 -0.328125q-0.203125 0 -0.5 0.078125l0.078125 -0.609375q0.078125 0 0.125 0q0.4375 0 0.796875 -0.234375q0.359375 -0.234375 0.359375 -0.71875q0 -0.390625 -0.265625 -0.640625q-0.25 -0.25 -0.671875 -0.25q-0.40625 0 -0.6875 0.265625q-0.265625 0.25 -0.34375 0.765625l-0.703125 -0.125q0.125 -0.703125 0.578125 -1.09375q0.46875 -0.390625 1.140625 -0.390625q0.46875 0 0.859375 0.203125q0.40625 0.203125 0.609375 0.546875q0.21875 0.34375 0.21875 0.734375q0 0.375 -0.203125 0.6875q-0.203125 0.296875 -0.59375 0.46875q0.515625 0.125 0.796875 0.5q0.28125 0.359375 0.28125 0.921875q0 0.75 -0.546875 1.28125q-0.546875 0.515625 -1.390625 0.515625q-0.75 0 -1.25 -0.453125q-0.5 -0.453125 -0.5625 -1.171875zm4.8242188 1.515625l0 -0.796875l0.796875 0l0 0.796875q0 0.4375 -0.15625 0.703125q-0.15625 0.28125 -0.5 0.4375l-0.1875 -0.3125q0.21875 -0.09375 0.3125 -0.28125q0.109375 -0.1875 0.125 -0.546875l-0.390625 0zm7.7109375 -4.328125l-0.703125 0.0625q-0.09375 -0.421875 -0.265625 -0.609375q-0.28125 -0.296875 -0.703125 -0.296875q-0.328125 0 -0.59375 0.1875q-0.328125 0.234375 -0.515625 0.703125q-0.1875 0.46875 -0.203125 1.328125q0.25 -0.390625 0.609375 -0.578125q0.375 -0.1875 0.78125 -0.1875q0.703125 0 1.1875 0.515625q0.5 0.515625 0.5 1.34375q0 0.53125 -0.234375 1.0q-0.21875 0.46875 -0.625 0.71875q-0.40625 0.234375 -0.921875 0.234375q-0.890625 0 -1.453125 -0.640625q-0.546875 -0.65625 -0.546875 -2.140625q0 -1.65625 0.625 -2.40625q0.53125 -0.65625 1.4375 -0.65625q0.671875 0 1.09375 0.375q0.4375 0.375 0.53125 1.046875zm-2.875 2.46875q0 0.359375 0.15625 0.703125q0.15625 0.328125 0.421875 0.5q0.28125 0.171875 0.59375 0.171875q0.4375 0 0.75 -0.359375q0.328125 -0.359375 0.328125 -0.96875q0 -0.59375 -0.3125 -0.9375q-0.3125 -0.34375 -0.796875 -0.34375q-0.46875 0 -0.8125 0.34375q-0.328125 0.34375 -0.328125 0.890625zm5.7929688 -0.53125l0 0.640625q-0.3125 0 -0.5 0.15625q-0.1875 0.15625 -0.25 0.421875q-0.0625 0.265625 -0.0625 0.921875q0 0.65625 -0.03125 0.859375q-0.03125 0.34375 -0.125 0.53125q-0.09375 0.203125 -0.234375 0.3125q-0.140625 0.125 -0.359375 0.1875q-0.15625 0.046875 -0.484375 0.046875l-0.21875 0l0 -0.609375l0.125 0q0.40625 0 0.53125 -0.15625q0.140625 -0.140625 0.140625 -0.65625q0 -0.984375 0.03125 -1.234375q0.0625 -0.4375 0.25 -0.6875q0.1875 -0.265625 0.53125 -0.421875q-0.453125 -0.203125 -0.640625 -0.5625q-0.171875 -0.359375 -0.171875 -1.1875q0 -0.765625 -0.03125 -0.921875q-0.015625 -0.25 -0.15625 -0.359375q-0.125 -0.109375 -0.484375 -0.109375l-0.125 0l0 -0.609375l0.21875 0q0.375 0 0.546875 0.0625q0.25 0.09375 0.40625 0.296875q0.171875 0.203125 0.21875 0.515625q0.0625 0.296875 0.0625 1.0q0 0.703125 0.0625 0.96875q0.0625 0.265625 0.25 0.421875q0.1875 0.15625 0.5 0.171875z" fill-rule="nonzero"></path><path fill="#000000" fill-opacity="0.0" d="m125.65662 245.9486l0 0c0 -15.463974 12.536026 -28.0 28.0 -28.0l0 0c7.426056 0 14.547974 2.949997 19.79898 8.201019c5.2510223 5.251007 8.201019 12.372925 8.201019 19.79898l0 0c0 15.463974 -12.536026 28.000015 -28.0 28.000015l0 0c-15.463974 0 -28.0 -12.536041 -28.0 -28.000015z" fill-rule="nonzero"></path><path stroke="#000000" stroke-width="2.0" stroke-linejoin="round" stroke-linecap="butt" d="m125.65662 245.9486l0 0c0 -15.463974 12.536026 -28.0 28.0 -28.0l0 0c7.426056 0 14.547974 2.949997 19.79898 8.201019c5.2510223 5.251007 8.201019 12.372925 8.201019 19.79898l0 0c0 15.463974 -12.536026 28.000015 -28.0 28.000015l0 0c-15.463974 0 -28.0 -12.536041 -28.0 -28.000015z" fill-rule="nonzero"></path><path fill="#000000" fill-opacity="0.0" d="m121.65662 245.9486l0 0c0 -17.673111 14.326889 -32.0 32.0 -32.0l0 0c8.486923 0 16.626251 3.3714142 22.62741 9.372589c6.0011597 6.0011597 9.372589 14.140488 9.372589 22.62741l0 0c0 17.673111 -14.326889 32.000015 -32.0 32.000015l0 0c-17.673111 0 -32.0 -14.326904 -32.0 -32.000015z" fill-rule="nonzero"></path><path stroke="#000000" stroke-width="2.0" stroke-linejoin="round" stroke-linecap="butt" d="m121.65662 245.9486l0 0c0 -17.673111 14.326889 -32.0 32.0 -32.0l0 0c8.486923 0 16.626251 3.3714142 22.62741 9.372589c6.0011597 6.0011597 9.372589 14.140488 9.372589 22.62741l0 0c0 17.673111 -14.326889 32.000015 -32.0 32.000015l0 0c-17.673111 0 -32.0 -14.326904 -32.0 -32.000015z" fill-rule="nonzero"></path><path fill="#000000" fill-opacity="0.0" d="m9.235131 24.60521l23.590553 24.22047" fill-rule="nonzero"></path><path stroke="#000000" stroke-width="2.0" stroke-linejoin="round" stroke-linecap="butt" d="m9.235131 24.60521l15.217792 15.624138" fill-rule="evenodd"></path><path fill="#000000" stroke="#000000" stroke-width="2.0" stroke-linecap="butt" d="m22.08645 42.534275l8.699205 4.196907l-3.966261 -8.806759z" fill-rule="evenodd"></path><path fill="#000000" fill-opacity="0.0" d="m72.42827 88.42826l49.22834 39.37008" fill-rule="nonzero"></path><path stroke="#000000" stroke-width="2.0" stroke-linejoin="round" stroke-linecap="butt" d="m72.42827 88.42826l39.856743 31.875206" fill-rule="evenodd"></path><path fill="#000000" stroke="#000000" stroke-width="2.0" stroke-linecap="butt" d="m110.221756 122.883354l9.151459 3.0888596l-5.024948 -8.248642z" fill-rule="evenodd"></path><path fill="#000000" fill-opacity="0.0" d="m39.609634 42.963028l0 0c-3.1774254 -6.3514633 -1.4241638 -14.063044 4.187042 -18.416376c5.61121 -4.3533306 13.516571 -4.1351814 18.879166 0.5209713c5.362587 4.6561527 6.6879044 12.452686 3.1650467 18.619255l-12.921909 -7.3820724z" fill-rule="nonzero"></path><path fill="#000000" fill-opacity="0.0" d="m39.609634 42.963028l0 0c-3.1774254 -6.3514633 -1.4241638 -14.063044 4.187042 -18.416376c5.61121 -4.3533306 13.516571 -4.1351814 18.879166 0.5209713c5.362587 4.6561527 6.6879044 12.452686 3.1650467 18.619255" fill-rule="nonzero"></path><path stroke="#000000" stroke-width="2.0" stroke-linejoin="round" stroke-linecap="butt" d="m38.20606 34.073147l0.021595001 -0.14294815c0.016735077 -0.10335922 0.0345459 -0.20653534 0.05344391 -0.30950165c0.03779602 -0.20593262 0.07991028 -0.41102982 0.12631989 -0.61515427c0.74253845 -3.265997 2.5836563 -6.2822247 5.3892593 -8.458891c5.61121 -4.3533306 13.516571 -4.1351814 18.879166 0.5209713c5.362587 4.6561527 6.6879044 12.452686 3.165039 18.619255" fill-rule="evenodd"></path><path fill="#000000" stroke="#000000" stroke-width="2.0" stroke-linecap="butt" d="m36.021564 34.418045l3.1320953 5.656952l1.2368927 -6.3467484z" fill-rule="evenodd"></path><path fill="#000000" fill-opacity="0.0" d="m-19.375328 -11.6797905l144.0 0l0 48.0l-144.0 0z" fill-rule="nonzero"></path><path fill="#000000" d="m55.124313 17.265522q-0.9375 0.796875 -1.796875 1.125q-0.859375 0.3125 -1.84375 0.3125q-1.609375 0 -2.484375 -0.78125q-0.875 -0.796875 -0.875 -2.03125q0 -0.734375 0.328125 -1.328125q0.328125 -0.59375 0.859375 -0.953125q0.53125 -0.359375 1.203125 -0.546875q0.5 -0.140625 1.484375 -0.25q2.03125 -0.25 2.984375 -0.578125q0 -0.34375 0 -0.4375q0 -1.015625 -0.46875 -1.4375q-0.640625 -0.5625 -1.90625 -0.5625q-1.171875 0 -1.734375 0.40625q-0.5625 0.40625 -0.828125 1.46875l-1.640625 -0.234375q0.234375 -1.046875 0.734375 -1.6875q0.515625 -0.640625 1.46875 -0.984375q0.96875 -0.359375 2.25 -0.359375q1.265625 0 2.046875 0.296875q0.78125 0.296875 1.15625 0.75q0.375 0.453125 0.515625 1.140625q0.09375 0.421875 0.09375 1.53125l0 2.234375q0 2.328125 0.09375 2.953125q0.109375 0.609375 0.4375 1.171875l-1.75 0q-0.265625 -0.515625 -0.328125 -1.21875zm-0.140625 -3.71875q-0.90625 0.359375 -2.734375 0.625q-1.03125 0.140625 -1.453125 0.328125q-0.421875 0.1875 -0.65625 0.546875q-0.234375 0.359375 -0.234375 0.796875q0 0.671875 0.5 1.125q0.515625 0.4375 1.484375 0.4375q0.96875 0 1.71875 -0.421875q0.75 -0.4375 1.109375 -1.15625q0.265625 -0.578125 0.265625 -1.671875l0 -0.609375z" fill-rule="nonzero"></path><path fill="#000000" fill-opacity="0.0" d="m44.113308 24.60521l116.724396 84.31496l-28.094482 38.897644l-116.7244 -84.314964z" fill-rule="nonzero"></path><path fill="#000000" d="m82.880905 89.808426l-1.253952 -0.9057846l7.959343 -11.019936l1.3426056 0.96982574l-2.8360825 3.9266434q1.6389313 -0.45450592 2.9688797 0.5061722q0.7346344 0.5306549 1.173706 1.3104172q0.4482193 0.7670975 0.47280884 1.6136856q0.046409607 0.843071 -0.26185608 1.7769012q-0.3082657 0.93383026 -0.93037415 1.7951584q-1.4820786 2.0519943 -3.3096008 2.4473724q-1.8183746 0.38272095 -3.2369843 -0.6419983q-1.4186096 -1.0247192 -1.3657532 -2.7791214l-0.7227402 1.0006638zm2.9149017 -4.062462q-1.0337982 1.4313278 -1.1203918 2.351799q-0.10421753 1.5052795 0.9850693 2.2921143q0.8866272 0.6404495 2.08152 0.3470688q1.2040482 -0.30604553 2.3110352 -1.838707q1.1252823 -1.557991 1.0444107 -2.7536316q-0.08086395 -1.1956482 -0.95482635 -1.8269501q-0.8866348 -0.6404495 -2.0906754 -0.33439636q-1.2040405 0.30604553 -2.2561417 1.762703z" fill-rule="nonzero"></path><path fill="#000000" fill-opacity="0.0" d="m80.6367 68.62467l91.30708 -1.2283478" fill-rule="nonzero"></path><path stroke="#000000" stroke-width="2.0" stroke-linejoin="round" stroke-linecap="butt" d="m80.6367 68.62467l79.30818 -1.066925" fill-rule="evenodd"></path><path fill="#000000" stroke="#000000" stroke-width="2.0" stroke-linecap="butt" d="m159.98932 70.86091l9.03093 -3.4252548l-9.119797 -3.181076z" fill-rule="evenodd"></path><path fill="#000000" fill-opacity="0.0" d="m27.943792 32.614174l144.0 0l0 48.0l-144.0 0z" fill-rule="nonzero"></path><path fill="#000000" d="m102.39656 62.778236l0 -1.25q-0.9375 1.46875 -2.75 1.46875q-1.171875 0 -2.171875 -0.640625q-0.984375 -0.65625 -1.53125 -1.8125q-0.53125 -1.171875 -0.53125 -2.6875q0 -1.46875 0.484375 -2.671875q0.5 -1.203125 1.46875 -1.84375q0.984375 -0.640625 2.203125 -0.640625q0.890625 0 1.578125 0.375q0.703125 0.375 1.140625 0.984375l0 -4.875l1.65625 0l0 13.59375l-1.546875 0zm-5.28125 -4.921875q0 1.890625 0.796875 2.828125q0.8125 0.9375 1.890625 0.9375q1.09375 0 1.859375 -0.890625q0.765625 -0.890625 0.765625 -2.734375q0 -2.015625 -0.78125 -2.953125q-0.78125 -0.953125 -1.921875 -0.953125q-1.109375 0 -1.859375 0.90625q-0.75 0.90625 -0.75 2.859375z" fill-rule="nonzero"></path><path fill="#000000" fill-opacity="0.0" d="m52.63552 96.637794l0.28346252 133.51181" fill-rule="nonzero"></path><path stroke="#000000" stroke-width="2.0" stroke-linejoin="round" stroke-linecap="butt" d="m52.63552 96.637794l0.25798416 121.51183" fill-rule="evenodd"></path><path fill="#000000" stroke="#000000" stroke-width="2.0" stroke-linecap="butt" d="m49.59005 218.15665l3.3227272 9.069168l3.2841873 -9.083191z" fill-rule="evenodd"></path><path fill="#000000" fill-opacity="0.0" d="m86.037094 40.624672l0 144.0l-48.0 0l0 -144.0z" fill-rule="nonzero"></path><path fill="#000000" d="m59.044907 115.43681l-0.21875 1.71875q-1.5 -0.40625 -2.34375 -1.515625q-0.828125 -1.09375 -0.828125 -2.8125q0 -2.15625 1.328125 -3.421875q1.328125 -1.265625 3.734375 -1.265625q2.484375 0 3.859375 1.265625q1.375 1.28125 1.375 3.328125q0 1.984375 -1.34375 3.234375q-1.34375 1.25 -3.796875 1.25q-0.140625 0 -0.4375 -0.015625l0 -7.34375q-1.625 0.09375 -2.484375 0.921875q-0.859375 0.828125 -0.859375 2.0625q0 0.90625 0.46875 1.546875q0.484375 0.65625 1.546875 1.046875zm2.703125 -5.484375l0 5.5q1.234375 -0.109375 1.859375 -0.625q0.96875 -0.796875 0.96875 -2.078125q0 -1.140625 -0.78125 -1.9375q-0.765625 -0.78125 -2.046875 -0.859375z" fill-rule="nonzero"></path><path fill="#000000" fill-opacity="0.0" d="m180.15224 87.19991l-18.897644 40.598427" fill-rule="nonzero"></path><path stroke="#000000" stroke-width="2.0" stroke-linejoin="round" stroke-linecap="butt" d="m180.15224 87.19991l-13.833649 29.719276" fill-rule="evenodd"></path><path fill="#000000" stroke="#000000" stroke-width="2.0" stroke-linecap="butt" d="m163.32368 115.52513l-0.83525085 9.622498l6.825058 -6.834381z" fill-rule="evenodd"></path><path fill="#000000" fill-opacity="0.0" d="m108.5346 148.35205l68.00001 -126.92913l42.29921 22.677164l-68.0 126.92914z" fill-rule="nonzero"></path><path fill="#000000" d="m167.9877 101.24615l-0.730484 1.363533l-11.980637 -6.4229736l0.782135 -1.4599457l4.2689667 2.2886505q-0.66877747 -1.5641022 0.10598755 -3.0102692q0.42796326 -0.79883575 1.1421509 -1.3378448q0.70040894 -0.54639435 1.5360565 -0.6834488q0.82925415 -0.15820312 1.7957001 0.023071289q0.9664459 0.18127441 1.9028625 0.68330383q2.2308655 1.1959991 2.8661804 2.9549026q0.62153625 1.7515259 -0.2048645 3.294098q-0.826416 1.5425797 -2.5719604 1.7236862l1.0879059 0.5832367zm-4.4140472 -2.3487015q1.5561066 0.8342514 2.479782 0.7975769q1.5055084 -0.09703827 2.1400757 -1.281517q0.51651 -0.9641113 0.0665741 -2.109497q-0.4637146 -1.152771 -2.1299896 -2.0460815q-1.6938171 -0.90808105 -2.8678436 -0.66877747q-1.1740417 0.23929596 -1.6831665 1.1896362q-0.51649475 0.9641113 -0.05279541 2.1168823q0.4637146 1.1527634 2.0473633 2.0017776z" fill-rule="nonzero"></path><path fill="#000000" fill-opacity="0.0" d="m219.73491 87.19051l70.80315 234.23624" fill-rule="nonzero"></path><path stroke="#000000" stroke-width="2.0" stroke-linejoin="round" stroke-linecap="butt" d="m219.73491 87.19051l67.33104 222.74951" fill-rule="evenodd"></path><path fill="#000000" stroke="#000000" stroke-width="2.0" stroke-linecap="butt" d="m283.90378 310.89587l5.7882996 7.7321167l0.53604126 -9.643799z" fill-rule="evenodd"></path><path fill="#000000" fill-opacity="0.0" d="m233.80754 27.49736l43.401566 137.32283l-45.76378 14.48819l-43.401566 -137.32283z" fill-rule="nonzero"></path><path fill="#000000" d="m230.62126 106.98738l0.30941772 1.7048721q-1.552475 0.06536865 -2.691208 -0.7377701q-1.1191101 -0.7929535 -1.637085 -2.4318008q-0.6498108 -2.0560074 0.2349701 -3.6636505q0.8847809 -1.6076431 3.1788177 -2.3339005q2.368515 -0.7498398 4.060791 0.04193878q1.6970062 0.8066788 2.3138428 2.7584q0.59802246 1.8921204 -0.30636597 3.4895782q-0.90437317 1.5974655 -3.243103 2.3378677q-0.13406372 0.04244232 -0.4217987 0.11714935l-2.2131195 -7.0023346q-1.5209656 0.57984924 -2.0906982 1.6288528q-0.56973267 1.0490036 -0.19773865 2.2259903q0.2731018 0.8641205 0.9130554 1.3334808q0.6595459 0.47955322 1.7902222 0.5313263zm0.9242859 -6.045265l1.657486 5.244301q1.1438446 -0.47685242 1.5843048 -1.1571426q0.6834259 -1.0522156 0.29730225 -2.273903q-0.34373474 -1.0876007 -1.3286896 -1.6116257q-0.96536255 -0.51384735 -2.2104034 -0.20162964z" fill-rule="nonzero"></path><path fill="#000000" fill-opacity="0.0" d="m242.73372 341.22418l-170.01575 -63.275604" fill-rule="nonzero"></path><path stroke="#000000" stroke-width="2.0" stroke-linejoin="round" stroke-linecap="butt" d="m242.73372 341.22418l-158.76938 -59.089966" fill-rule="evenodd"></path><path fill="#000000" stroke="#000000" stroke-width="2.0" stroke-linecap="butt" d="m85.11659 279.0382l-9.65844 -0.0697937l7.3539352 6.26178z" fill-rule="evenodd"></path><path fill="#000000" fill-opacity="0.0" d="m160.97923 273.98163l134.96062 50.236206l-16.724396 45.007904l-134.96063 -50.236237z" fill-rule="nonzero"></path><path fill="#000000" d="m221.6906 325.3895l1.5345764 0.80462646q-0.90319824 1.2643433 -2.236786 1.6682434q-1.3134918 0.39471436 -2.9242706 -0.2048645q-2.0207977 -0.75219727 -2.7442932 -2.4386597q-0.72351074 -1.6864624 0.11462402 -3.9420166q0.86535645 -2.3287964 2.5304108 -3.176178q1.6797028 -0.84191895 3.597992 -0.12789917q1.8597107 0.69226074 2.5631409 2.387909q0.7034149 1.6956482 -0.15104675 3.9951477q-0.048980713 0.13183594 -0.16703796 0.4046631l-6.882416 -2.5618286q-0.4781494 1.5559387 -0.0013885498 2.6503906q0.47676086 1.0944214 1.633606 1.5250244q0.84931946 0.3161621 1.6129761 0.100250244q0.7837372 -0.22512817 1.5199127 -1.0848083zm-4.198303 -4.447052l5.1544952 1.9186401q0.3274536 -1.195221 0.061904907 -1.960968q-0.40937805 -1.1860657 -1.6101379 -1.6330261q-1.0689697 -0.39788818 -2.087906 0.05645752q-0.9988556 0.4451294 -1.5183563 1.6188965z" fill-rule="nonzero"></path><path fill="#000000" fill-opacity="0.0" d="m270.74695 313.23514l-101.291336 -165.6378" fill-rule="nonzero"></path><path stroke="#000000" stroke-width="2.0" stroke-linejoin="round" stroke-linecap="butt" d="m270.74695 313.23514l-95.03087 -155.4003" fill-rule="evenodd"></path><path fill="#000000" stroke="#000000" stroke-width="2.0" stroke-linecap="butt" d="m178.53435 156.1114l-7.5533752 -6.019699l1.9168396 9.466568z" fill-rule="evenodd"></path><path fill="#000000" fill-opacity="0.0" d="m247.15901 219.85294l80.755905 119.212616l-39.748016 26.929108l-80.75592 -119.212585z" fill-rule="nonzero"></path><path fill="#000000" d="m261.2188 294.40164l-0.8675537 -1.2807007l11.25412 -7.624634l0.92892456 1.3712463l-4.0101013 2.7168274q1.6954346 0.1347351 2.61557 1.493042q0.50827026 0.7503052 0.6535034 1.6333313q0.15814209 0.87423706 -0.10891724 1.678009q-0.24533081 0.80792236 -0.85498047 1.5795288q-0.60964966 0.77163696 -1.4892883 1.3675842q-2.095581 1.4197388 -3.947937 1.1648254q-1.839386 -0.26367188 -2.8208618 -1.7125244q-0.98147583 -1.4488525 -0.3305359 -3.078888l-1.0219421 0.6923523zm4.130707 -2.8174133q-1.4617615 0.9903259 -1.8585815 1.8253784q-0.61380005 1.3783875 0.13983154 2.4909058q0.6134033 0.9055481 1.8364868 1.0394592q1.2359924 0.12515259 2.801239 -0.9352722q1.591095 -1.0779724 1.9248962 -2.2289124q0.3338318 -1.1509705 -0.2708435 -2.0435486q-0.6134033 -0.9055481 -1.8494263 -1.0307007q-1.2359924 -0.12515259 -2.7236023 0.8826904z" fill-rule="nonzero"></path><path fill="#000000" fill-opacity="0.0" d="m46.174442 286.4334c-4.3803635 10.006531 -15.391916 15.336578 -25.957634 12.564575c-10.565718 -2.7720032 -17.542332 -12.821411 -16.446035 -23.689575c1.0962958 -10.868134 9.939356 -19.321777 20.845827 -19.927841l1.2311153 22.1548z" fill-rule="nonzero"></path><path fill="#000000" fill-opacity="0.0" d="m46.174442 286.4334c-4.3803635 10.006531 -15.391916 15.336578 -25.957634 12.564575c-10.565718 -2.7720032 -17.542332 -12.821411 -16.446035 -23.689575c1.0962958 -10.868134 9.939356 -19.321777 20.845827 -19.927841" fill-rule="nonzero"></path><path stroke="#000000" stroke-width="2.0" stroke-linejoin="round" stroke-linecap="butt" d="m40.96967 293.77576l-0.26463318 0.24359131c-0.12021637 0.10824585 -0.241539 0.21511841 -0.3639412 0.32058716c-0.48960876 0.42181396 -0.99648285 0.8211975 -1.5188904 1.1972961c-1.0448189 0.75216675 -2.151783 1.4112244 -3.3070717 1.9704285c-4.621147 2.2368164 -10.015467 2.8763123 -15.298325 1.4903259c-10.565718 -2.7720032 -17.542332 -12.821411 -16.446035 -23.689575c1.0962956 -10.868134 9.939356 -19.321777 20.845827 -19.927826" fill-rule="evenodd"></path><path fill="#000000" stroke="#000000" stroke-width="2.0" stroke-linecap="butt" d="m42.773895 295.05472l1.7096863 -6.236023l-5.318138 3.6781006z" fill-rule="evenodd"></path><path fill="#000000" fill-opacity="0.0" d="m-50.969597 285.58716l144.0 0l0 48.0l-144.0 0z" fill-rule="nonzero"></path><path fill="#000000" d="m23.842546 312.57935l1.71875 0.21875q-0.40625 1.5 -1.515625 2.34375q-1.09375 0.828125 -2.8125 0.828125q-2.15625 0 -3.421875 -1.328125q-1.265625 -1.328125 -1.265625 -3.734375q0 -2.484375 1.265625 -3.859375q1.28125 -1.375 3.328125 -1.375q1.984375 0 3.234375 1.34375q1.25 1.34375 1.25 3.796875q0 0.140625 -0.015625 0.4375l-7.34375 0q0.09375 1.625 0.921875 2.484375q0.828125 0.859375 2.0625 0.859375q0.90625 0 1.546875 -0.46875q0.65625 -0.484375 1.046875 -1.546875zm-5.484375 -2.703125l5.5 0q-0.109375 -1.234375 -0.625 -1.859375q-0.796875 -0.96875 -2.078125 -0.96875q-1.140625 0 -1.9375 0.78125q-0.78125 0.765625 -0.859375 2.046875z" fill-rule="nonzero"></path><path fill="#000000" fill-opacity="0.0" d="m80.932205 258.13757l40.72441 -12.18898" fill-rule="nonzero"></path><path stroke="#000000" stroke-width="2.0" stroke-linejoin="round" stroke-linecap="butt" d="m80.932205 258.13757l29.228287 -8.748138" fill-rule="evenodd"></path><path fill="#000000" stroke="#000000" stroke-width="2.0" stroke-linecap="butt" d="m111.10772 252.55418l7.747856 -5.767227l-9.642303 -0.5622864z" fill-rule="evenodd"></path><path fill="#000000" fill-opacity="0.0" d="m12.695984 239.60837l139.2126 -36.7874l12.251968 46.393707l-139.2126 36.7874z" fill-rule="nonzero"></path><path fill="#000000" d="m92.00366 246.10909l1.6420364 -0.20765686q0.17406464 1.6994324 -0.65114594 2.9194946q-0.8291931 1.2049713 -2.400261 1.6201324q-1.9487381 0.5149536 -3.477272 -0.43867493q-1.5174179 -0.97273254 -2.1477737 -3.3596497q-0.40693665 -1.5409241 -0.21163177 -2.8208008q0.20642853 -1.2989655 1.097168 -2.1484833q0.90185547 -0.86860657 2.1254807 -1.1919556q1.5559616 -0.41116333 2.745346 0.1149292q1.1893768 0.5260925 1.8593979 1.9005127l-1.5072403 0.6568756q-0.48192596 -0.90696716 -1.1836395 -1.2387085q-0.70171356 -0.33172607 -1.5023575 -0.120147705q-1.2236252 0.32333374 -1.7626572 1.4031372q-0.5239258 1.0758057 -0.025230408 2.964203q0.50668335 1.9185944 1.4782944 2.5991974q0.96762085 0.6654968 2.1459274 0.35412598q0.95170593 -0.25149536 1.4345703 -0.9932251q0.47888184 -0.75683594 0.34098816 -2.0133057z" fill-rule="nonzero"></path><path fill="#000000" fill-opacity="0.0" d="m185.23701 252.91867l0 0c8.148254 0.9062195 14.438263 7.585449 14.854233 15.773376c0.41596985 8.187958 -5.1647644 15.470245 -13.179245 17.19757c-8.014481 1.7272949 -16.099457 -2.6096497 -19.09317 -10.242035l15.56955 -6.1069946z" fill-rule="nonzero"></path><path fill="#000000" fill-opacity="0.0" d="m185.23701 252.91867l0 0c8.148254 0.9062195 14.438263 7.585449 14.854233 15.773376c0.41596985 8.187958 -5.1647644 15.470245 -13.179245 17.19757c-8.014481 1.7272949 -16.099457 -2.6096497 -19.09317 -10.242035" fill-rule="nonzero"></path><path stroke="#000000" stroke-width="2.0" stroke-linejoin="round" stroke-linecap="butt" d="m185.23701 252.91867l0 0c8.148254 0.9062195 14.438263 7.585449 14.854233 15.773376c0.41596985 8.187958 -5.1647644 15.470245 -13.17923 17.19754c-4.007248 0.863678 -8.03212 0.21124268 -11.429382 -1.6111145c-0.4246521 -0.2277832 -0.83950806 -0.47387695 -1.2433014 -0.7375488c-0.20188904 -0.13183594 -0.40101624 -0.2680664 -0.59721375 -0.40863037c-0.098098755 -0.07028198 -0.19548035 -0.14163208 -0.292099 -0.21408081l-0.111465454 -0.08547974" fill-rule="evenodd"></path><path fill="#000000" stroke="#000000" stroke-width="2.0" stroke-linecap="butt" d="m175.00415 281.50098l-5.4246216 -3.519165l1.8934174 6.1827087z" fill-rule="evenodd"></path><path fill="#000000" fill-opacity="0.0" d="m150.3808 226.00781l131.21259 59.3071l-19.77951 43.748016l-131.2126 -59.3071z" fill-rule="nonzero"></path><path fill="#000000" d="m207.79996 281.10846l1.4048767 0.87506104q-0.93725586 1.4282532 -2.3472595 1.8540344q-1.4035645 0.41156006 -2.8843384 -0.25772095q-1.8367157 -0.8302002 -2.420807 -2.534546q-0.5634308 -1.7121582 0.45362854 -3.96167q0.6565857 -1.4522095 1.6156616 -2.3218994q0.9797516 -0.8774719 2.206787 -0.97442627q1.2477264 -0.104766846 2.4010162 0.4165039q1.4665222 0.6628418 2.0572815 1.8215027q0.590744 1.1586609 0.24330139 2.6477356l-1.5837555 -0.4414978q0.19841003 -1.007721 -0.13665771 -1.7078857q-0.33506775 -0.7001343 -1.0896912 -1.0412292q-1.1532898 -0.52127075 -2.252777 -0.023712158q-1.0852661 0.5039978 -1.8898926 2.283661q-0.81752014 1.8081665 -0.49319458 2.9492798q0.3307495 1.1268616 1.44133 1.6288452q0.8970032 0.40542603 1.7396088 0.13470459q0.84906006 -0.28497314 1.5348816 -1.3467407z" fill-rule="nonzero"></path><path fill="#000000" fill-opacity="0.0" d="m72.71173 238.35695l48.944878 -70.96062" fill-rule="nonzero"></path><path stroke="#000000" stroke-width="2.0" stroke-linejoin="round" stroke-linecap="butt" d="m72.71173 238.35695l42.131462 -61.08249" fill-rule="evenodd"></path><path fill="#000000" stroke="#000000" stroke-width="2.0" stroke-linecap="butt" d="m117.56254 179.15012l2.4339828 -9.346985l-7.872658 5.5956726z" fill-rule="evenodd"></path><path fill="#000000" fill-opacity="0.0" d="m13.556876 256.29584l87.90551 -114.04726l38.015747 29.291336l-87.90551 114.04724z" fill-rule="nonzero"></path><path fill="#000000" d="m79.94063 219.5738l-0.94433594 1.225174l-10.768097 -8.296875l1.0111084 -1.3117981l3.8369064 2.9563599q-0.40341187 -1.6521454 0.5981598 -2.9515686q0.55324554 -0.7177887 1.3463135 -1.132431q0.78069305 -0.42417908 1.6276855 -0.4225006q0.844162 -0.020217896 1.7680206 0.31684875q0.9238663 0.33706665 1.7655106 0.9855499q2.0050964 1.5449371 2.3435593 3.383728q0.32608032 1.8292694 -0.7422638 3.2153168q-1.0683441 1.3860626 -2.8203583 1.2788086l0.97779083 0.75338745zm-3.9702148 -3.0393524q1.398613 1.077652 2.3160095 1.192749q1.5014038 0.15086365 2.3217392 -0.9134369q0.667717 -0.866272 0.4115677 -2.0696259q-0.2685318 -1.2128906 -1.766159 -2.3668213q-1.5223846 -1.1730042 -2.7200394 -1.1292725q-1.1976471 0.04374695 -1.8558273 0.89764404q-0.667717 0.86628723 -0.39918518 2.0791779q0.26852417 1.2128754 1.6918945 2.3095856z" fill-rule="nonzero"></path><path fill="#000000" fill-opacity="0.0" d="m132.53651 120.023155l0 0c-0.81134033 -4.7074738 1.506012 -9.40097 5.73674 -11.61898c4.230713 -2.21801 9.409103 -1.4542542 12.819351 1.8907089c3.4102478 3.3449554 4.273941 8.507622 2.1381073 12.780418l-9.846268 -4.9218216z" fill-rule="nonzero"></path><path fill="#000000" fill-opacity="0.0" d="m132.53651 120.023155l0 0c-0.81134033 -4.7074738 1.506012 -9.40097 5.73674 -11.61898c4.230713 -2.21801 9.409103 -1.4542542 12.819351 1.8907089c3.4102478 3.3449554 4.273941 8.507622 2.1381073 12.780418" fill-rule="nonzero"></path><path stroke="#000000" stroke-width="2.0" stroke-linejoin="round" stroke-linecap="butt" d="m134.76671 111.30385l0.0028686523 -0.003692627c0.044448853 -0.055908203 0.08944702 -0.11139679 0.13502502 -0.16647339c0.18225098 -0.22029877 0.37347412 -0.43392944 0.573349 -0.64030457c0.79953 -0.82547 1.7376251 -1.5346985 2.7953033 -2.0891953c4.230713 -2.2180176 9.409103 -1.4542694 12.819351 1.8906937c3.4102478 3.3449707 4.273941 8.507629 2.1381073 12.780426" fill-rule="evenodd"></path><path fill="#000000" stroke="#000000" stroke-width="2.0" stroke-linecap="butt" d="m132.62413 110.75583l0.63690186 6.4347076l3.6482544 -5.338669z" fill-rule="evenodd"></path><path fill="#000000" fill-opacity="0.0" d="m71.38446 75.073494l144.0 0l0 48.0l-144.0 0z" fill-rule="nonzero"></path><path fill="#000000" d="m140.99347 105.23756l-1.546875 0l0 -13.59375l1.65625 0l0 4.84375q1.0625 -1.328125 2.703125 -1.328125q0.90625 0 1.71875 0.375q0.8125 0.359375 1.328125 1.03125q0.53125 0.65625 0.828125 1.59375q0.296875 0.9375 0.296875 2.0q0 2.53125 -1.25 3.921875q-1.25 1.375 -3.0 1.375q-1.75 0 -2.734375 -1.453125l0 1.234375zm-0.015625 -5.0q0 1.765625 0.46875 2.5625q0.796875 1.28125 2.140625 1.28125q1.09375 0 1.890625 -0.9375q0.796875 -0.953125 0.796875 -2.84375q0 -1.921875 -0.765625 -2.84375q-0.765625 -0.921875 -1.84375 -0.921875q-1.09375 0 -1.890625 0.953125q-0.796875 0.953125 -0.796875 2.75z" fill-rule="nonzero"></path><path fill="#000000" fill-opacity="0.0" d="m161.23929 167.41098l89.70079 154.01575" fill-rule="nonzero"></path><path stroke="#000000" stroke-width="2.0" stroke-linejoin="round" stroke-linecap="butt" d="m161.23929 167.41098l83.66145 143.64624" fill-rule="evenodd"></path><path fill="#000000" stroke="#000000" stroke-width="2.0" stroke-linecap="butt" d="m242.04613 312.7198l7.422455 6.18042l-1.7132416 -9.505524z" fill-rule="evenodd"></path><path fill="#000000" fill-opacity="0.0" d="m156.46349 120.22179l70.3622 125.63779l-41.88977 23.464584l-70.3622 -125.6378z" fill-rule="nonzero"></path><path fill="#000000" d="m169.46326 198.68883l0.6489868 1.6065063q-1.5071716 0.37860107 -2.7853851 -0.17697144q-1.2569275 -0.54959106 -2.0967712 -2.049179q-1.0536041 -1.8813171 -0.51330566 -3.634613q0.54029846 -1.7533112 2.6396332 -2.929245q2.1674957 -1.2141266 3.9855347 -0.7818451q1.8256836 0.4459076 2.8258514 2.2317963q0.96961975 1.7313385 0.40805054 3.478653q-0.5615692 1.7473145 -2.7017975 2.9461517q-0.122680664 0.068725586 -0.389328 0.20018005l-3.588379 -6.4073486q-1.3719177 0.8759308 -1.717041 2.0184479q-0.34510803 1.1425018 0.25804138 2.2194824q0.44282532 0.7906952 1.1648102 1.1205597q0.7432556 0.3358612 1.8610992 0.15742493zm-0.32148743 -6.1060944l2.6874695 4.798706q1.0234833 -0.69866943 1.3168182 -1.4539948q0.45581055 -1.1687012 -0.17024231 -2.2865753q-0.5573425 -0.9951782 -1.6283264 -1.3086548q-1.0497131 -0.3074646 -2.205719 0.2505188z" fill-rule="nonzero"></path><path fill="#000000" fill-opacity="0.0" d="m141.46764 175.5864l12.18898 38.362198" fill-rule="nonzero"></path><path stroke="#000000" stroke-width="2.0" stroke-linejoin="round" stroke-linecap="butt" d="m141.46764 175.5864l8.555176 26.925598" fill-rule="evenodd"></path><path fill="#000000" stroke="#000000" stroke-width="2.0" stroke-linecap="butt" d="m146.87445 203.51234l5.8967896 7.649719l0.39993286 -9.650406z" fill-rule="evenodd"></path><path fill="#000000" fill-opacity="0.0" d="m129.50166 116.09055l61.102356 130.3937l-43.464554 20.37796l-61.10237 -130.3937z" fill-rule="nonzero"></path><path fill="#000000" d="m137.29039 195.2986l0.49809265 1.578476q-1.640625 0.47581482 -2.9884949 -0.117507935q-1.3337097 -0.59994507 -2.0232391 -2.0713959q-0.8552704 -1.82518 -0.19067383 -3.5000763q0.685379 -1.6673737 2.9206543 -2.7153625q1.4430237 -0.67655945 2.7370148 -0.7137451q1.3147583 -0.029678345 2.3098297 0.6945343q1.0158539 0.73172 1.552887 1.8777618q0.68289185 1.4573059 0.37817383 2.721878q-0.30470276 1.2645569 -1.5368652 2.1701355l-0.9158783 -1.3653259q0.80596924 -0.636734 1.0067444 -1.3866272q0.20077515 -0.74990845 -0.1506195 -1.4997864q-0.5370331 -1.1460266 -1.6957092 -1.4829102q-1.1520386 -0.3227234 -2.920456 0.5063782q-1.7967072 0.8423767 -2.2923737 1.9203644q-0.48153687 1.0713501 0.035614014 2.174942q0.4176941 0.8913574 1.2337494 1.233551q0.8302002 0.3355713 2.0415497 -0.025283813z" fill-rule="nonzero"></path></g></svg>

